<?xml version="1.0" encoding="UTF-8" standalone="no"?>
<!DOCTYPE svg PUBLIC "-//W3C//DTD SVG 1.1//EN"
 "http://www.w3.org/Graphics/SVG/1.1/DTD/svg11.dtd">
<!-- Generated by graphviz version 12.2.1 (0)
 -->
<!-- Title: homelab Pages: 1 -->
<svg width="1304pt" height="689pt"
 viewBox="0.00 0.00 1304.00 689.25" xmlns="http://www.w3.org/2000/svg" xmlns:xlink="http://www.w3.org/1999/xlink">
<g id="graph0" class="graph" transform="scale(1 1) rotate(0) translate(36 653.25)">
<title>homelab</title>
<polygon fill="#09090b" stroke="none" points="-36,36 -36,-653.25 1268,-653.25 1268,36 -36,36"/>
<g id="clust1" class="cluster">
<title>cluster_network</title>
<path fill="#111111" stroke="#06b6d4" d="M94,-506.15C94,-506.15 294,-506.15 294,-506.15 300,-506.15 306,-512.15 306,-518.15 306,-518.15 306,-589 306,-589 306,-595 300,-601 294,-601 294,-601 94,-601 94,-601 88,-601 82,-595 82,-589 82,-589 82,-518.15 82,-518.15 82,-512.15 88,-506.15 94,-506.15"/>
<text text-anchor="middle" x="194" y="-584.65" font-family="Inter, Helvetica, sans-serif" font-size="13.00" fill="#22d3ee">NETWORK ENTRY</text>
</g>
<g id="clust3" class="cluster">
<title>cluster_gitops</title>
<path fill="#111111" stroke="#6366f1" d="M540,-497.9C540,-497.9 1194,-497.9 1194,-497.9 1200,-497.9 1206,-503.9 1206,-509.9 1206,-509.9 1206,-597.25 1206,-597.25 1206,-603.25 1200,-609.25 1194,-609.25 1194,-609.25 540,-609.25 540,-609.25 534,-609.25 528,-603.25 528,-597.25 528,-597.25 528,-509.9 528,-509.9 528,-503.9 534,-497.9 540,-497.9"/>
<text text-anchor="middle" x="867" y="-592.9" font-family="Inter, Helvetica, sans-serif" font-size="13.00" fill="#818cf8">GITOPS &amp; IaC</text>
</g>
<g id="clust5" class="cluster">
<title>cluster_external</title>
<path fill="#111111" stroke="#ec4899" d="M76,-371.3C76,-371.3 354,-371.3 354,-371.3 360,-371.3 366,-377.3 366,-383.3 366,-383.3 366,-470.65 366,-470.65 366,-476.65 360,-482.65 354,-482.65 354,-482.65 76,-482.65 76,-482.65 70,-482.65 64,-476.65 64,-470.65 64,-470.65 64,-383.3 64,-383.3 64,-377.3 70,-371.3 76,-371.3"/>
<text text-anchor="middle" x="215" y="-466.3" font-family="Inter, Helvetica, sans-serif" font-size="13.00" fill="#f472b6">EXTERNAL</text>
</g>
<g id="clust7" class="cluster">
<title>cluster_hardware</title>
<path fill="#111111" stroke="#10b981" d="M700,-371.3C700,-371.3 1037,-371.3 1037,-371.3 1043,-371.3 1049,-377.3 1049,-383.3 1049,-383.3 1049,-470.65 1049,-470.65 1049,-476.65 1043,-482.65 1037,-482.65 1037,-482.65 700,-482.65 700,-482.65 694,-482.65 688,-476.65 688,-470.65 688,-470.65 688,-383.3 688,-383.3 688,-377.3 694,-371.3 700,-371.3"/>
<text text-anchor="middle" x="868.5" y="-466.3" font-family="Inter, Helvetica, sans-serif" font-size="13.00" fill="#34d399">HARDWARE</text>
</g>
<g id="clust9" class="cluster">
<title>cluster_vm</title>
<path fill="#111111" stroke="#f59e0b" d="M80,-244.7C80,-244.7 762,-244.7 762,-244.7 768,-244.7 774,-250.7 774,-256.7 774,-256.7 774,-344.05 774,-344.05 774,-350.05 768,-356.05 762,-356.05 762,-356.05 80,-356.05 80,-356.05 74,-356.05 68,-350.05 68,-344.05 68,-344.05 68,-256.7 68,-256.7 68,-250.7 74,-244.7 80,-244.7"/>
<text text-anchor="middle" x="421" y="-339.7" font-family="Inter, Helvetica, sans-serif" font-size="13.00" fill="#fcd34d">VIRTUAL MACHINES</text>
</g>
<g id="clust11" class="cluster">
<title>cluster_infra</title>
<path fill="#111111" stroke="#f43f5e" d="M50,-118.1C50,-118.1 833,-118.1 833,-118.1 839,-118.1 845,-124.1 845,-130.1 845,-130.1 845,-217.45 845,-217.45 845,-223.45 839,-229.45 833,-229.45 833,-229.45 50,-229.45 50,-229.45 44,-229.45 38,-223.45 38,-217.45 38,-217.45 38,-130.1 38,-130.1 38,-124.1 44,-118.1 50,-118.1"/>
<text text-anchor="middle" x="441.5" y="-213.1" font-family="Inter, Helvetica, sans-serif" font-size="13.00" fill="#fb7185">KUBERNETES INFRASTRUCTURE</text>
</g>
<g id="clust13" class="cluster">
<title>cluster_workloads</title>
<path fill="#111111" stroke="#8b5cf6" d="M20,-8C20,-8 1212,-8 1212,-8 1218,-8 1224,-14 1224,-20 1224,-20 1224,-90.85 1224,-90.85 1224,-96.85 1218,-102.85 1212,-102.85 1212,-102.85 20,-102.85 20,-102.85 14,-102.85 8,-96.85 8,-90.85 8,-90.85 8,-20 8,-20 8,-14 14,-8 20,-8"/>
<text text-anchor="middle" x="616" y="-86.5" font-family="Inter, Helvetica, sans-serif" font-size="13.00" fill="#a78bfa">PRODUCTION WORKLOADS</text>
</g>
<!-- public -->
<g id="node1" class="node">
<title>public</title>
<path fill="#18181b" stroke="#06b6d4" stroke-width="1.5" d="M150.62,-559.25C150.62,-559.25 109.38,-559.25 109.38,-559.25 103.38,-559.25 97.38,-553.25 97.38,-547.25 97.38,-547.25 97.38,-533.15 97.38,-533.15 97.38,-527.15 103.38,-521.15 109.38,-521.15 109.38,-521.15 150.62,-521.15 150.62,-521.15 156.62,-521.15 162.62,-527.15 162.62,-533.15 162.62,-533.15 162.62,-547.25 162.62,-547.25 162.62,-553.25 156.62,-559.25 150.62,-559.25"/>
<text text-anchor="middle" x="130" y="-538" font-family="Inter, Helvetica, sans-serif" font-size="11.00" fill="#fafafa">Public</text>
</g>
<!-- private -->
<g id="node2" class="node">
<title>private</title>
<path fill="#18181b" stroke="#06b6d4" stroke-width="1.5" d="M278.88,-559.25C278.88,-559.25 233.12,-559.25 233.12,-559.25 227.12,-559.25 221.12,-553.25 221.12,-547.25 221.12,-547.25 221.12,-533.15 221.12,-533.15 221.12,-527.15 227.12,-521.15 233.12,-521.15 233.12,-521.15 278.88,-521.15 278.88,-521.15 284.88,-521.15 290.88,-527.15 290.88,-533.15 290.88,-533.15 290.88,-547.25 290.88,-547.25 290.88,-553.25 284.88,-559.25 278.88,-559.25"/>
<text text-anchor="middle" x="256" y="-538" font-family="Inter, Helvetica, sans-serif" font-size="11.00" fill="#fafafa">Private</text>
</g>
<!-- public&#45;&gt;private -->
<!-- cloudflare -->
<g id="node7" class="node">
<title>cloudflare</title>
<path fill="#18181b" stroke="#ec4899" stroke-width="1.5" d="M168.62,-440.9C168.62,-440.9 91.38,-440.9 91.38,-440.9 85.38,-440.9 79.38,-434.9 79.38,-428.9 79.38,-428.9 79.38,-398.3 79.38,-398.3 79.38,-392.3 85.38,-386.3 91.38,-386.3 91.38,-386.3 168.62,-386.3 168.62,-386.3 174.62,-386.3 180.62,-392.3 180.62,-398.3 180.62,-398.3 180.62,-428.9 180.62,-428.9 180.62,-434.9 174.62,-440.9 168.62,-440.9"/>
<text text-anchor="middle" x="130" y="-419.65" font-family="Inter, Helvetica, sans-serif" font-size="11.00" fill="#fafafa">Cloudflare</text>
<text text-anchor="middle" x="130" y="-403.15" font-family="Inter, Helvetica, sans-serif" font-size="11.00" fill="#fafafa">DNS &amp; Proxy</text>
</g>
<!-- public&#45;&gt;cloudflare -->
<g id="edge25" class="edge">
<title>public&#45;&gt;cloudflare</title>
<path fill="none" stroke="#38bdf8" stroke-width="2" d="M119.12,-520.7C119.12,-520.7 119.12,-451.79 119.12,-451.79"/>
<polygon fill="#38bdf8" stroke="#38bdf8" stroke-width="2" points="119.13,-443.79 122.73,-451.79 119.63,-445.35 119.63,-451.79 119.13,-451.79 118.63,-451.79 118.63,-445.35 115.53,-451.79 119.13,-443.79"/>
<text text-anchor="middle" x="103" y="-491.74" font-family="Inter, Helvetica, sans-serif" font-size="10.00" fill="#38bdf8"> Traffic </text>
</g>
<!-- public&#45;&gt;cloudflare -->
<!-- azure_kv -->
<g id="node8" class="node">
<title>azure_kv</title>
<path fill="#18181b" stroke="#ec4899" stroke-width="1.5" d="M339.25,-432.65C339.25,-432.65 250.75,-432.65 250.75,-432.65 244.75,-432.65 238.75,-426.65 238.75,-420.65 238.75,-420.65 238.75,-406.55 238.75,-406.55 238.75,-400.55 244.75,-394.55 250.75,-394.55 250.75,-394.55 339.25,-394.55 339.25,-394.55 345.25,-394.55 351.25,-400.55 351.25,-406.55 351.25,-406.55 351.25,-420.65 351.25,-420.65 351.25,-426.65 345.25,-432.65 339.25,-432.65"/>
<text text-anchor="middle" x="295" y="-411.4" font-family="Inter, Helvetica, sans-serif" font-size="11.00" fill="#fafafa">Azure Key Vault</text>
</g>
<!-- private&#45;&gt;azure_kv -->
<!-- pihole -->
<g id="node12" class="node">
<title>pihole</title>
<path fill="#18181b" stroke="#f59e0b" stroke-width="1.5" d="M349.88,-306.05C349.88,-306.05 250.12,-306.05 250.12,-306.05 244.12,-306.05 238.12,-300.05 238.12,-294.05 238.12,-294.05 238.12,-279.95 238.12,-279.95 238.12,-273.95 244.12,-267.95 250.12,-267.95 250.12,-267.95 349.88,-267.95 349.88,-267.95 355.88,-267.95 361.88,-273.95 361.88,-279.95 361.88,-279.95 361.88,-294.05 361.88,-294.05 361.88,-300.05 355.88,-306.05 349.88,-306.05"/>
<text text-anchor="middle" x="300" y="-284.8" font-family="Inter, Helvetica, sans-serif" font-size="11.00" fill="#fafafa">Pi&#45;hole &amp; Tailscale</text>
</g>
<!-- private&#45;&gt;pihole -->
<g id="edge27" class="edge">
<title>private&#45;&gt;pihole</title>
<path fill="none" stroke="#38bdf8" stroke-width="2" d="M226.79,-520.71C226.79,-463 226.79,-297 226.79,-297 226.79,-297 227.9,-297 227.9,-297"/>
<polygon fill="#38bdf8" stroke="#38bdf8" stroke-width="2" points="235.47,-297 227.47,-300.6 233.91,-297.5 227.47,-297.5 227.47,-297 227.47,-296.5 233.91,-296.5 227.47,-293.4 235.47,-297"/>
<text text-anchor="middle" x="210.67" y="-413.8" font-family="Inter, Helvetica, sans-serif" font-size="10.00" fill="#38bdf8"> Traffic </text>
</g>
<!-- nixos -->
<g id="node3" class="node">
<title>nixos</title>
<path fill="#18181b" stroke="#6366f1" stroke-width="1.5" d="M617.12,-567.5C617.12,-567.5 554.88,-567.5 554.88,-567.5 548.88,-567.5 542.88,-561.5 542.88,-555.5 542.88,-555.5 542.88,-524.9 542.88,-524.9 542.88,-518.9 548.88,-512.9 554.88,-512.9 554.88,-512.9 617.12,-512.9 617.12,-512.9 623.12,-512.9 629.12,-518.9 629.12,-524.9 629.12,-524.9 629.12,-555.5 629.12,-555.5 629.12,-561.5 623.12,-567.5 617.12,-567.5"/>
<text text-anchor="middle" x="586" y="-546.25" font-family="Inter, Helvetica, sans-serif" font-size="11.00" fill="#fafafa">NixOS</text>
<text text-anchor="middle" x="586" y="-529.75" font-family="Inter, Helvetica, sans-serif" font-size="11.00" fill="#fafafa">OS Config</text>
</g>
<!-- tofu -->
<g id="node4" class="node">
<title>tofu</title>
<path fill="#18181b" stroke="#6366f1" stroke-width="1.5" d="M815,-567.5C815,-567.5 725,-567.5 725,-567.5 719,-567.5 713,-561.5 713,-555.5 713,-555.5 713,-524.9 713,-524.9 713,-518.9 719,-512.9 725,-512.9 725,-512.9 815,-512.9 815,-512.9 821,-512.9 827,-518.9 827,-524.9 827,-524.9 827,-555.5 827,-555.5 827,-561.5 821,-567.5 815,-567.5"/>
<text text-anchor="middle" x="770" y="-546.25" font-family="Inter, Helvetica, sans-serif" font-size="11.00" fill="#fafafa">OpenTofu</text>
<text text-anchor="middle" x="770" y="-529.75" font-family="Inter, Helvetica, sans-serif" font-size="11.00" fill="#fafafa">VM Provisioning</text>
</g>
<!-- nixos&#45;&gt;tofu -->
<!-- opencode -->
<g id="node13" class="node">
<title>opencode</title>
<path fill="#18181b" stroke="#f59e0b" stroke-width="1.5" d="M561.25,-306.05C561.25,-306.05 496.75,-306.05 496.75,-306.05 490.75,-306.05 484.75,-300.05 484.75,-294.05 484.75,-294.05 484.75,-279.95 484.75,-279.95 484.75,-273.95 490.75,-267.95 496.75,-267.95 496.75,-267.95 561.25,-267.95 561.25,-267.95 567.25,-267.95 573.25,-273.95 573.25,-279.95 573.25,-279.95 573.25,-294.05 573.25,-294.05 573.25,-300.05 567.25,-306.05 561.25,-306.05"/>
<text text-anchor="middle" x="529" y="-284.8" font-family="Inter, Helvetica, sans-serif" font-size="11.00" fill="#fafafa">OpenCode</text>
</g>
<!-- nixos&#45;&gt;opencode -->
<g id="edge19" class="edge">
<title>nixos&#45;&gt;opencode</title>
<path fill="none" stroke="#818cf8" stroke-width="1.2" stroke-dasharray="5,2" d="M550.47,-512.62C550.47,-512.62 550.47,-422.27 550.47,-363.42"/>
<ellipse fill="#818cf8" stroke="#818cf8" stroke-width="1.2" cx="550.47" cy="-359.85" rx="3.2" ry="3.2"/>
<text text-anchor="middle" x="523.84" y="-443.52" font-family="Inter, Helvetica, sans-serif" font-size="10.00" fill="#818cf8"> Configures </text>
</g>
<!-- nixos&#45;&gt;opencode -->
<!-- github -->
<g id="node5" class="node">
<title>github</title>
<path fill="#18181b" stroke="#6366f1" stroke-width="1.5" d="M1019.38,-567.5C1019.38,-567.5 910.62,-567.5 910.62,-567.5 904.62,-567.5 898.62,-561.5 898.62,-555.5 898.62,-555.5 898.62,-524.9 898.62,-524.9 898.62,-518.9 904.62,-512.9 910.62,-512.9 910.62,-512.9 1019.38,-512.9 1019.38,-512.9 1025.38,-512.9 1031.38,-518.9 1031.38,-524.9 1031.38,-524.9 1031.38,-555.5 1031.38,-555.5 1031.38,-561.5 1025.38,-567.5 1019.38,-567.5"/>
<text text-anchor="middle" x="965" y="-546.25" font-family="Inter, Helvetica, sans-serif" font-size="11.00" fill="#fafafa">GitHub Repo</text>
<text text-anchor="middle" x="965" y="-529.75" font-family="Inter, Helvetica, sans-serif" font-size="11.00" fill="#fafafa">Flux + Tofu Sources</text>
</g>
<!-- tofu&#45;&gt;github -->
<!-- proxmox -->
<g id="node9" class="node">
<title>proxmox</title>
<path fill="#18181b" stroke="#10b981" stroke-width="1.5" d="M825.12,-440.9C825.12,-440.9 714.88,-440.9 714.88,-440.9 708.88,-440.9 702.88,-434.9 702.88,-428.9 702.88,-428.9 702.88,-398.3 702.88,-398.3 702.88,-392.3 708.88,-386.3 714.88,-386.3 714.88,-386.3 825.12,-386.3 825.12,-386.3 831.12,-386.3 837.12,-392.3 837.12,-398.3 837.12,-398.3 837.12,-428.9 837.12,-428.9 837.12,-434.9 831.12,-440.9 825.12,-440.9"/>
<text text-anchor="middle" x="770" y="-419.65" font-family="Inter, Helvetica, sans-serif" font-size="11.00" fill="#fafafa">Proxmox VE Cluster</text>
<text text-anchor="middle" x="770" y="-403.15" font-family="Inter, Helvetica, sans-serif" font-size="11.00" fill="#fafafa">3 Nodes</text>
</g>
<!-- tofu&#45;&gt;proxmox -->
<g id="edge18" class="edge">
<title>tofu&#45;&gt;proxmox</title>
<path fill="none" stroke="#818cf8" stroke-width="1.2" stroke-dasharray="5,2" d="M751,-512.42C751,-512.42 751,-448.92 751,-448.92"/>
<ellipse fill="#818cf8" stroke="#818cf8" stroke-width="1.2" cx="751" cy="-445.12" rx="3.2" ry="3.2"/>
<text text-anchor="middle" x="725.12" y="-486.17" font-family="Inter, Helvetica, sans-serif" font-size="10.00" fill="#818cf8"> Provisions </text>
</g>
<!-- tofu&#45;&gt;proxmox -->
<!-- flux -->
<g id="node6" class="node">
<title>flux</title>
<path fill="#18181b" stroke="#6366f1" stroke-width="1.5" d="M1179,-567.5C1179,-567.5 1101,-567.5 1101,-567.5 1095,-567.5 1089,-561.5 1089,-555.5 1089,-555.5 1089,-524.9 1089,-524.9 1089,-518.9 1095,-512.9 1101,-512.9 1101,-512.9 1179,-512.9 1179,-512.9 1185,-512.9 1191,-518.9 1191,-524.9 1191,-524.9 1191,-555.5 1191,-555.5 1191,-561.5 1185,-567.5 1179,-567.5"/>
<text text-anchor="middle" x="1140" y="-546.25" font-family="Inter, Helvetica, sans-serif" font-size="11.00" fill="#fafafa">FluxCD</text>
<text text-anchor="middle" x="1140" y="-529.75" font-family="Inter, Helvetica, sans-serif" font-size="11.00" fill="#fafafa">Reconciliation</text>
</g>
<!-- github&#45;&gt;flux -->
<!-- syn_nas -->
<g id="node10" class="node">
<title>syn_nas</title>
<path fill="#18181b" stroke="#10b981" stroke-width="1.5" d="M1022.38,-440.9C1022.38,-440.9 907.62,-440.9 907.62,-440.9 901.62,-440.9 895.62,-434.9 895.62,-428.9 895.62,-428.9 895.62,-398.3 895.62,-398.3 895.62,-392.3 901.62,-386.3 907.62,-386.3 907.62,-386.3 1022.38,-386.3 1022.38,-386.3 1028.38,-386.3 1034.38,-392.3 1034.38,-398.3 1034.38,-398.3 1034.38,-428.9 1034.38,-428.9 1034.38,-434.9 1028.38,-440.9 1022.38,-440.9"/>
<text text-anchor="middle" x="965" y="-419.65" font-family="Inter, Helvetica, sans-serif" font-size="11.00" fill="#fafafa">Synology NAS</text>
<text text-anchor="middle" x="965" y="-403.15" font-family="Inter, Helvetica, sans-serif" font-size="11.00" fill="#fafafa">NFS Volumes &amp; LUN</text>
</g>
<!-- github&#45;&gt;syn_nas -->
<!-- flux&#45;&gt;github -->
<g id="edge20" class="edge">
<title>flux&#45;&gt;github</title>
<path fill="none" stroke="#818cf8" stroke-width="1.2" stroke-dasharray="5,2" d="M1088.91,-531C1088.91,-531 1039.39,-531 1039.39,-531"/>
<ellipse fill="#818cf8" stroke="#818cf8" stroke-width="1.2" cx="1035.59" cy="-531" rx="3.2" ry="3.2"/>
<text text-anchor="middle" x="1064.15" y="-521.5" font-family="Inter, Helvetica, sans-serif" font-size="10.00" fill="#818cf8"> Reconciles </text>
</g>
<!-- home -->
<g id="node24" class="node">
<title>home</title>
<path fill="#18181b" stroke="#8b5cf6" stroke-width="1.5" d="M1197,-61.1C1197,-61.1 1083,-61.1 1083,-61.1 1077,-61.1 1071,-55.1 1071,-49.1 1071,-49.1 1071,-35 1071,-35 1071,-29 1077,-23 1083,-23 1083,-23 1197,-23 1197,-23 1203,-23 1209,-29 1209,-35 1209,-35 1209,-49.1 1209,-49.1 1209,-55.1 1203,-61.1 1197,-61.1"/>
<text text-anchor="middle" x="1140" y="-39.85" font-family="Inter, Helvetica, sans-serif" font-size="11.00" fill="#fafafa">Home: Assistant, MC</text>
</g>
<!-- flux&#45;&gt;home -->
<!-- cloudflare&#45;&gt;azure_kv -->
<!-- haproxy -->
<g id="node11" class="node">
<title>haproxy</title>
<path fill="#18181b" stroke="#f59e0b" stroke-width="1.5" d="M164.88,-306.05C164.88,-306.05 95.12,-306.05 95.12,-306.05 89.12,-306.05 83.12,-300.05 83.12,-294.05 83.12,-294.05 83.12,-279.95 83.12,-279.95 83.12,-273.95 89.12,-267.95 95.12,-267.95 95.12,-267.95 164.88,-267.95 164.88,-267.95 170.88,-267.95 176.88,-273.95 176.88,-279.95 176.88,-279.95 176.88,-294.05 176.88,-294.05 176.88,-300.05 170.88,-306.05 164.88,-306.05"/>
<text text-anchor="middle" x="130" y="-284.8" font-family="Inter, Helvetica, sans-serif" font-size="11.00" fill="#fafafa">HAProxy x3</text>
</g>
<!-- cloudflare&#45;&gt;haproxy -->
<!-- ingress -->
<g id="node15" class="node">
<title>ingress</title>
<path fill="#18181b" stroke="#f43f5e" stroke-width="1.5" d="M147.25,-187.7C147.25,-187.7 64.75,-187.7 64.75,-187.7 58.75,-187.7 52.75,-181.7 52.75,-175.7 52.75,-175.7 52.75,-145.1 52.75,-145.1 52.75,-139.1 58.75,-133.1 64.75,-133.1 64.75,-133.1 147.25,-133.1 147.25,-133.1 153.25,-133.1 159.25,-139.1 159.25,-145.1 159.25,-145.1 159.25,-175.7 159.25,-175.7 159.25,-181.7 153.25,-187.7 147.25,-187.7"/>
<text text-anchor="middle" x="106" y="-166.45" font-family="Inter, Helvetica, sans-serif" font-size="11.00" fill="#fafafa">Traefik Ingress</text>
<text text-anchor="middle" x="106" y="-149.95" font-family="Inter, Helvetica, sans-serif" font-size="11.00" fill="#fafafa">Controller</text>
</g>
<!-- cloudflare&#45;&gt;ingress -->
<g id="edge26" class="edge">
<title>cloudflare&#45;&gt;ingress</title>
<path fill="none" stroke="#38bdf8" stroke-width="2" d="M79,-414C71.4,-414 66.06,-414 66.06,-414 66.06,-414 66.06,-198.46 66.06,-198.46"/>
<polygon fill="#38bdf8" stroke="#38bdf8" stroke-width="2" points="66.06,-190.46 69.66,-198.46 66.56,-192.02 66.56,-198.46 66.06,-198.46 65.56,-198.46 65.56,-192.02 62.46,-198.46 66.06,-190.46"/>
<text text-anchor="middle" x="49.94" y="-318.2" font-family="Inter, Helvetica, sans-serif" font-size="10.00" fill="#38bdf8"> Traffic </text>
</g>
<!-- azure_kv&#45;&gt;pihole -->
<!-- platform -->
<g id="node16" class="node">
<title>platform</title>
<path fill="#18181b" stroke="#f43f5e" stroke-width="1.5" d="M376.5,-187.7C376.5,-187.7 229.5,-187.7 229.5,-187.7 223.5,-187.7 217.5,-181.7 217.5,-175.7 217.5,-175.7 217.5,-145.1 217.5,-145.1 217.5,-139.1 223.5,-133.1 229.5,-133.1 229.5,-133.1 376.5,-133.1 376.5,-133.1 382.5,-133.1 388.5,-139.1 388.5,-145.1 388.5,-145.1 388.5,-175.7 388.5,-175.7 388.5,-181.7 382.5,-187.7 376.5,-187.7"/>
<text text-anchor="middle" x="303" y="-166.45" font-family="Inter, Helvetica, sans-serif" font-size="11.00" fill="#fafafa">Core Services</text>
<text text-anchor="middle" x="303" y="-149.95" font-family="Inter, Helvetica, sans-serif" font-size="11.00" fill="#fafafa">Cert&#45;Manager, Harbor, ESO</text>
</g>
<!-- azure_kv&#45;&gt;platform -->
<g id="edge23" class="edge">
<title>azure_kv&#45;&gt;platform</title>
<path fill="none" stroke="#fbbf24" stroke-width="1.2" stroke-dasharray="5,2" d="M238.68,-407C234.84,-407 232.46,-407 232.46,-407 232.46,-407 232.46,-196.33 232.46,-196.33"/>
<polygon fill="none" stroke="#fbbf24" stroke-width="1.2" points="229.26,-188.33 235.66,-188.33 235.66,-194.73 229.26,-194.73 229.26,-188.33"/>
<polyline fill="none" stroke="#fbbf24" stroke-width="1.2" points="232.46,-194.73 232.46,-196.33"/>
<text text-anchor="middle" x="212.58" y="-310.28" font-family="Inter, Helvetica, sans-serif" font-size="10.00" fill="#fbbf24"> Secrets </text>
</g>
<!-- proxmox&#45;&gt;syn_nas -->
<!-- proxmox&#45;&gt;opencode -->
<g id="edge22" class="edge">
<title>proxmox&#45;&gt;opencode</title>
<path fill="none" stroke="#34d399" stroke-width="1.2" stroke-dasharray="5,2" d="M702.52,-390C643,-390 565.66,-390 565.66,-390 565.66,-390 565.66,-377.89 565.66,-363.34"/>
<ellipse fill="#34d399" stroke="#34d399" stroke-width="1.2" cx="565.66" cy="-359.85" rx="3.2" ry="3.2"/>
<text text-anchor="middle" x="604.64" y="-395.5" font-family="Inter, Helvetica, sans-serif" font-size="10.00" fill="#34d399"> Hosts </text>
</g>
<!-- k3s -->
<g id="node14" class="node">
<title>k3s</title>
<path fill="#18181b" stroke="#f59e0b" stroke-width="1.5" d="M747.12,-314.3C747.12,-314.3 642.88,-314.3 642.88,-314.3 636.88,-314.3 630.88,-308.3 630.88,-302.3 630.88,-302.3 630.88,-271.7 630.88,-271.7 630.88,-265.7 636.88,-259.7 642.88,-259.7 642.88,-259.7 747.12,-259.7 747.12,-259.7 753.12,-259.7 759.12,-265.7 759.12,-271.7 759.12,-271.7 759.12,-302.3 759.12,-302.3 759.12,-308.3 753.12,-314.3 747.12,-314.3"/>
<text text-anchor="middle" x="695" y="-293.05" font-family="Inter, Helvetica, sans-serif" font-size="11.00" fill="#fafafa">k3s Nodes</text>
<text text-anchor="middle" x="695" y="-276.55" font-family="Inter, Helvetica, sans-serif" font-size="11.00" fill="#fafafa">Kubernetes Cluster</text>
</g>
<!-- proxmox&#45;&gt;k3s -->
<!-- storage -->
<g id="node18" class="node">
<title>storage</title>
<path fill="#18181b" stroke="#f43f5e" stroke-width="1.5" d="M818.25,-187.7C818.25,-187.7 681.75,-187.7 681.75,-187.7 675.75,-187.7 669.75,-181.7 669.75,-175.7 669.75,-175.7 669.75,-145.1 669.75,-145.1 669.75,-139.1 675.75,-133.1 681.75,-133.1 681.75,-133.1 818.25,-133.1 818.25,-133.1 824.25,-133.1 830.25,-139.1 830.25,-145.1 830.25,-145.1 830.25,-175.7 830.25,-175.7 830.25,-181.7 824.25,-187.7 818.25,-187.7"/>
<text text-anchor="middle" x="750" y="-166.45" font-family="Inter, Helvetica, sans-serif" font-size="11.00" fill="#fafafa">Data &amp; Storage &amp; Backup</text>
<text text-anchor="middle" x="750" y="-149.95" font-family="Inter, Helvetica, sans-serif" font-size="11.00" fill="#fafafa">CloudNativePG, Velero</text>
</g>
<!-- syn_nas&#45;&gt;storage -->
<g id="edge24" class="edge">
<title>syn_nas&#45;&gt;storage</title>
<path fill="none" stroke="#2dd4bf" stroke-width="1.5" stroke-dasharray="1,5" d="M934.67,-385.98C934.67,-320.25 934.67,-160 934.67,-160 934.67,-160 880.13,-160 853.62,-160"/>
<polygon fill="#2dd4bf" stroke="#2dd4bf" stroke-width="1.5" points="845.75,-163.2 845.75,-156.8 852.15,-156.8 852.15,-163.2 845.75,-163.2"/>
<polyline fill="none" stroke="#2dd4bf" stroke-width="1.5" points="852.15,-160 853.75,-160"/>
<text text-anchor="middle" x="915.54" y="-237.96" font-family="Inter, Helvetica, sans-serif" font-size="10.00" fill="#2dd4bf"> Mounts </text>
</g>
<!-- utility -->
<g id="node23" class="node">
<title>utility</title>
<path fill="#18181b" stroke="#8b5cf6" stroke-width="1.5" d="M1000.75,-61.1C1000.75,-61.1 873.25,-61.1 873.25,-61.1 867.25,-61.1 861.25,-55.1 861.25,-49.1 861.25,-49.1 861.25,-35 861.25,-35 861.25,-29 867.25,-23 873.25,-23 873.25,-23 1000.75,-23 1000.75,-23 1006.75,-23 1012.75,-29 1012.75,-35 1012.75,-35 1012.75,-49.1 1012.75,-49.1 1012.75,-55.1 1006.75,-61.1 1000.75,-61.1"/>
<text text-anchor="middle" x="937" y="-39.85" font-family="Inter, Helvetica, sans-serif" font-size="11.00" fill="#fafafa">Util: Homepage, Budget</text>
</g>
<!-- syn_nas&#45;&gt;utility -->
<!-- haproxy&#45;&gt;pihole -->
<!-- haproxy&#45;&gt;ingress -->
<g id="edge29" class="edge">
<title>haproxy&#45;&gt;ingress</title>
<path fill="none" stroke="#38bdf8" stroke-width="2" d="M108.5,-267.5C108.5,-267.5 108.5,-198.59 108.5,-198.59"/>
<polygon fill="#38bdf8" stroke="#38bdf8" stroke-width="2" points="108.5,-190.59 112.1,-198.59 109,-192.15 109,-198.59 108.5,-198.59 108,-198.59 108,-192.15 104.9,-198.59 108.5,-190.59"/>
<text text-anchor="middle" x="92.38" y="-238.54" font-family="Inter, Helvetica, sans-serif" font-size="10.00" fill="#38bdf8"> Traffic </text>
</g>
<!-- haproxy&#45;&gt;ingress -->
<!-- pihole&#45;&gt;haproxy -->
<g id="edge28" class="edge">
<title>pihole&#45;&gt;haproxy</title>
<path fill="none" stroke="#38bdf8" stroke-width="2" d="M237.66,-277C237.66,-277 187.58,-277 187.58,-277"/>
<polygon fill="#38bdf8" stroke="#38bdf8" stroke-width="2" points="179.58,-277 187.59,-273.4 181.15,-276.5 187.58,-276.5 187.58,-277 187.58,-277.5 181.15,-277.5 187.58,-280.6 179.58,-277"/>
<text text-anchor="middle" x="196.5" y="-282.5" font-family="Inter, Helvetica, sans-serif" font-size="10.00" fill="#38bdf8"> Traffic </text>
</g>
<!-- pihole&#45;&gt;opencode -->
<!-- pihole&#45;&gt;platform -->
<!-- opencode&#45;&gt;k3s -->
<!-- obs -->
<g id="node17" class="node">
<title>obs</title>
<path fill="#18181b" stroke="#f43f5e" stroke-width="1.5" d="M599.5,-187.7C599.5,-187.7 458.5,-187.7 458.5,-187.7 452.5,-187.7 446.5,-181.7 446.5,-175.7 446.5,-175.7 446.5,-145.1 446.5,-145.1 446.5,-139.1 452.5,-133.1 458.5,-133.1 458.5,-133.1 599.5,-133.1 599.5,-133.1 605.5,-133.1 611.5,-139.1 611.5,-145.1 611.5,-145.1 611.5,-175.7 611.5,-175.7 611.5,-181.7 605.5,-187.7 599.5,-187.7"/>
<text text-anchor="middle" x="529" y="-166.45" font-family="Inter, Helvetica, sans-serif" font-size="11.00" fill="#fafafa">Observability</text>
<text text-anchor="middle" x="529" y="-149.95" font-family="Inter, Helvetica, sans-serif" font-size="11.00" fill="#fafafa">Prometheus, Grafana, Loki</text>
</g>
<!-- opencode&#45;&gt;obs -->
<!-- k3s&#45;&gt;storage -->
<g id="edge21" class="edge">
<title>k3s&#45;&gt;storage</title>
<path fill="none" stroke="#34d399" stroke-width="1.2" stroke-dasharray="5,2" d="M699.54,-259.22C699.54,-259.22 699.54,-249.03 699.54,-236.81"/>
<ellipse fill="#34d399" stroke="#34d399" stroke-width="1.2" cx="699.54" cy="-233.25" rx="3.2" ry="3.2"/>
<text text-anchor="middle" x="683.42" y="-238.52" font-family="Inter, Helvetica, sans-serif" font-size="10.00" fill="#34d399"> Hosts </text>
</g>
<!-- k3s&#45;&gt;storage -->
<!-- ingress&#45;&gt;platform -->
<!-- docs -->
<g id="node19" class="node">
<title>docs</title>
<path fill="#18181b" stroke="#8b5cf6" stroke-width="1.5" d="M177.25,-61.1C177.25,-61.1 34.75,-61.1 34.75,-61.1 28.75,-61.1 22.75,-55.1 22.75,-49.1 22.75,-49.1 22.75,-35 22.75,-35 22.75,-29 28.75,-23 34.75,-23 34.75,-23 177.25,-23 177.25,-23 183.25,-23 189.25,-29 189.25,-35 189.25,-35 189.25,-49.1 189.25,-49.1 189.25,-55.1 183.25,-61.1 177.25,-61.1"/>
<text text-anchor="middle" x="106" y="-39.85" font-family="Inter, Helvetica, sans-serif" font-size="11.00" fill="#fafafa">Docs: Paperless, Karakeep</text>
</g>
<!-- ingress&#45;&gt;docs -->
<g id="edge30" class="edge">
<title>ingress&#45;&gt;docs</title>
<path fill="none" stroke="#38bdf8" stroke-width="2" d="M88.25,-132.65C88.25,-132.65 88.25,-123.97 88.25,-113.17"/>
<polygon fill="#38bdf8" stroke="#38bdf8" stroke-width="2" points="88.25,-105.28 91.85,-113.28 88.75,-106.85 88.75,-113.28 88.25,-113.28 87.75,-113.28 87.75,-106.85 84.65,-113.28 88.25,-105.28"/>
<text text-anchor="middle" x="72.12" y="-113.41" font-family="Inter, Helvetica, sans-serif" font-size="10.00" fill="#38bdf8"> Traffic </text>
</g>
<!-- ingress&#45;&gt;docs -->
<!-- platform&#45;&gt;obs -->
<!-- ai_apps -->
<g id="node20" class="node">
<title>ai_apps</title>
<path fill="#18181b" stroke="#8b5cf6" stroke-width="1.5" d="M394.5,-61.1C394.5,-61.1 259.5,-61.1 259.5,-61.1 253.5,-61.1 247.5,-55.1 247.5,-49.1 247.5,-49.1 247.5,-35 247.5,-35 247.5,-29 253.5,-23 259.5,-23 259.5,-23 394.5,-23 394.5,-23 400.5,-23 406.5,-29 406.5,-35 406.5,-35 406.5,-49.1 406.5,-49.1 406.5,-55.1 400.5,-61.1 394.5,-61.1"/>
<text text-anchor="middle" x="327" y="-39.85" font-family="Inter, Helvetica, sans-serif" font-size="11.00" fill="#fafafa">AI: LiteLLM, Open WebUI</text>
</g>
<!-- platform&#45;&gt;ai_apps -->
<!-- obs&#45;&gt;storage -->
<!-- media -->
<g id="node21" class="node">
<title>media</title>
<path fill="#18181b" stroke="#8b5cf6" stroke-width="1.5" d="M580.75,-61.1C580.75,-61.1 477.25,-61.1 477.25,-61.1 471.25,-61.1 465.25,-55.1 465.25,-49.1 465.25,-49.1 465.25,-35 465.25,-35 465.25,-29 471.25,-23 477.25,-23 477.25,-23 580.75,-23 580.75,-23 586.75,-23 592.75,-29 592.75,-35 592.75,-35 592.75,-49.1 592.75,-49.1 592.75,-55.1 586.75,-61.1 580.75,-61.1"/>
<text text-anchor="middle" x="529" y="-39.85" font-family="Inter, Helvetica, sans-serif" font-size="11.00" fill="#fafafa">Media: Jellyfin, *arr</text>
</g>
<!-- obs&#45;&gt;media -->
<!-- dev -->
<g id="node22" class="node">
<title>dev</title>
<path fill="#18181b" stroke="#8b5cf6" stroke-width="1.5" d="M790.75,-61.1C790.75,-61.1 699.25,-61.1 699.25,-61.1 693.25,-61.1 687.25,-55.1 687.25,-49.1 687.25,-49.1 687.25,-35 687.25,-35 687.25,-29 693.25,-23 699.25,-23 699.25,-23 790.75,-23 790.75,-23 796.75,-23 802.75,-29 802.75,-35 802.75,-35 802.75,-49.1 802.75,-49.1 802.75,-55.1 796.75,-61.1 790.75,-61.1"/>
<text text-anchor="middle" x="745" y="-39.85" font-family="Inter, Helvetica, sans-serif" font-size="11.00" fill="#fafafa">Dev: n8n, Coder</text>
</g>
<!-- storage&#45;&gt;dev -->
<!-- docs&#45;&gt;ai_apps -->
<!-- ai_apps&#45;&gt;media -->
<!-- media&#45;&gt;dev -->
<!-- dev&#45;&gt;utility -->
<!-- utility&#45;&gt;home -->
</g>
</svg>
