<?xml version="1.0" encoding="UTF-8" standalone="no"?>
<!DOCTYPE svg PUBLIC "-//W3C//DTD SVG 1.1//EN"
 "http://www.w3.org/Graphics/SVG/1.1/DTD/svg11.dtd">
<!-- Generated by graphviz version 12.2.1 (0)
 -->
<!-- Title: homelab Pages: 1 -->
<svg width="1332pt" height="689pt"
 viewBox="0.00 0.00 1332.25 689.25" xmlns="http://www.w3.org/2000/svg" xmlns:xlink="http://www.w3.org/1999/xlink">
<g id="graph0" class="graph" transform="scale(1 1) rotate(0) translate(36 653.25)">
<title>homelab</title>
<polygon fill="#09090b" stroke="none" points="-36,36 -36,-653.25 1296.25,-653.25 1296.25,36 -36,36"/>
<g id="clust1" class="cluster">
<title>cluster_network</title>
<path fill="#111111" stroke="#06b6d4" d="M55.25,-506.15C55.25,-506.15 255.25,-506.15 255.25,-506.15 261.25,-506.15 267.25,-512.15 267.25,-518.15 267.25,-518.15 267.25,-589 267.25,-589 267.25,-595 261.25,-601 255.25,-601 255.25,-601 55.25,-601 55.25,-601 49.25,-601 43.25,-595 43.25,-589 43.25,-589 43.25,-518.15 43.25,-518.15 43.25,-512.15 49.25,-506.15 55.25,-506.15"/>
<text text-anchor="middle" x="155.25" y="-584.65" font-family="Inter, Helvetica, sans-serif" font-size="13.00" fill="#22d3ee">NETWORK ENTRY</text>
</g>
<g id="clust3" class="cluster">
<title>cluster_gitops</title>
<path fill="#111111" stroke="#6366f1" d="M501.25,-497.9C501.25,-497.9 1177.25,-497.9 1177.25,-497.9 1183.25,-497.9 1189.25,-503.9 1189.25,-509.9 1189.25,-509.9 1189.25,-597.25 1189.25,-597.25 1189.25,-603.25 1183.25,-609.25 1177.25,-609.25 1177.25,-609.25 501.25,-609.25 501.25,-609.25 495.25,-609.25 489.25,-603.25 489.25,-597.25 489.25,-597.25 489.25,-509.9 489.25,-509.9 489.25,-503.9 495.25,-497.9 501.25,-497.9"/>
<text text-anchor="middle" x="839.25" y="-592.9" font-family="Inter, Helvetica, sans-serif" font-size="13.00" fill="#818cf8">GITOPS &amp; IaC</text>
</g>
<g id="clust5" class="cluster">
<title>cluster_external</title>
<path fill="#111111" stroke="#ec4899" d="M37.25,-371.3C37.25,-371.3 315.25,-371.3 315.25,-371.3 321.25,-371.3 327.25,-377.3 327.25,-383.3 327.25,-383.3 327.25,-470.65 327.25,-470.65 327.25,-476.65 321.25,-482.65 315.25,-482.65 315.25,-482.65 37.25,-482.65 37.25,-482.65 31.25,-482.65 25.25,-476.65 25.25,-470.65 25.25,-470.65 25.25,-383.3 25.25,-383.3 25.25,-377.3 31.25,-371.3 37.25,-371.3"/>
<text text-anchor="middle" x="176.25" y="-466.3" font-family="Inter, Helvetica, sans-serif" font-size="13.00" fill="#f472b6">EXTERNAL</text>
</g>
<g id="clust7" class="cluster">
<title>cluster_hardware</title>
<path fill="#111111" stroke="#10b981" d="M661.25,-371.3C661.25,-371.3 998.25,-371.3 998.25,-371.3 1004.25,-371.3 1010.25,-377.3 1010.25,-383.3 1010.25,-383.3 1010.25,-470.65 1010.25,-470.65 1010.25,-476.65 1004.25,-482.65 998.25,-482.65 998.25,-482.65 661.25,-482.65 661.25,-482.65 655.25,-482.65 649.25,-476.65 649.25,-470.65 649.25,-470.65 649.25,-383.3 649.25,-383.3 649.25,-377.3 655.25,-371.3 661.25,-371.3"/>
<text text-anchor="middle" x="829.75" y="-466.3" font-family="Inter, Helvetica, sans-serif" font-size="13.00" fill="#34d399">HARDWARE</text>
</g>
<g id="clust9" class="cluster">
<title>cluster_vm</title>
<path fill="#111111" stroke="#f59e0b" d="M84.25,-244.7C84.25,-244.7 762.25,-244.7 762.25,-244.7 768.25,-244.7 774.25,-250.7 774.25,-256.7 774.25,-256.7 774.25,-344.05 774.25,-344.05 774.25,-350.05 768.25,-356.05 762.25,-356.05 762.25,-356.05 84.25,-356.05 84.25,-356.05 78.25,-356.05 72.25,-350.05 72.25,-344.05 72.25,-344.05 72.25,-256.7 72.25,-256.7 72.25,-250.7 78.25,-244.7 84.25,-244.7"/>
<text text-anchor="middle" x="423.25" y="-339.7" font-family="Inter, Helvetica, sans-serif" font-size="13.00" fill="#fcd34d">VIRTUAL MACHINES</text>
</g>
<g id="clust11" class="cluster">
<title>cluster_infra</title>
<path fill="#111111" stroke="#f43f5e" d="M78.25,-118.1C78.25,-118.1 833.25,-118.1 833.25,-118.1 839.25,-118.1 845.25,-124.1 845.25,-130.1 845.25,-130.1 845.25,-217.45 845.25,-217.45 845.25,-223.45 839.25,-229.45 833.25,-229.45 833.25,-229.45 78.25,-229.45 78.25,-229.45 72.25,-229.45 66.25,-223.45 66.25,-217.45 66.25,-217.45 66.25,-130.1 66.25,-130.1 66.25,-124.1 72.25,-118.1 78.25,-118.1"/>
<text text-anchor="middle" x="455.75" y="-213.1" font-family="Inter, Helvetica, sans-serif" font-size="13.00" fill="#fb7185">KUBERNETES INFRASTRUCTURE</text>
</g>
<g id="clust13" class="cluster">
<title>cluster_workloads</title>
<path fill="#111111" stroke="#8b5cf6" d="M48.25,-8C48.25,-8 1240.25,-8 1240.25,-8 1246.25,-8 1252.25,-14 1252.25,-20 1252.25,-20 1252.25,-90.85 1252.25,-90.85 1252.25,-96.85 1246.25,-102.85 1240.25,-102.85 1240.25,-102.85 48.25,-102.85 48.25,-102.85 42.25,-102.85 36.25,-96.85 36.25,-90.85 36.25,-90.85 36.25,-20 36.25,-20 36.25,-14 42.25,-8 48.25,-8"/>
<text text-anchor="middle" x="644.25" y="-86.5" font-family="Inter, Helvetica, sans-serif" font-size="13.00" fill="#a78bfa">PRODUCTION WORKLOADS</text>
</g>
<!-- public -->
<g id="node1" class="node">
<title>public</title>
<path fill="#18181b" stroke="#06b6d4" stroke-width="1.5" d="M111.88,-559.25C111.88,-559.25 70.62,-559.25 70.62,-559.25 64.62,-559.25 58.62,-553.25 58.62,-547.25 58.62,-547.25 58.62,-533.15 58.62,-533.15 58.62,-527.15 64.62,-521.15 70.62,-521.15 70.62,-521.15 111.88,-521.15 111.88,-521.15 117.88,-521.15 123.88,-527.15 123.88,-533.15 123.88,-533.15 123.88,-547.25 123.88,-547.25 123.88,-553.25 117.88,-559.25 111.88,-559.25"/>
<text text-anchor="middle" x="91.25" y="-538" font-family="Inter, Helvetica, sans-serif" font-size="11.00" fill="#fafafa">Public</text>
</g>
<!-- private -->
<g id="node2" class="node">
<title>private</title>
<path fill="#18181b" stroke="#06b6d4" stroke-width="1.5" d="M240.12,-559.25C240.12,-559.25 194.38,-559.25 194.38,-559.25 188.38,-559.25 182.38,-553.25 182.38,-547.25 182.38,-547.25 182.38,-533.15 182.38,-533.15 182.38,-527.15 188.38,-521.15 194.38,-521.15 194.38,-521.15 240.12,-521.15 240.12,-521.15 246.12,-521.15 252.12,-527.15 252.12,-533.15 252.12,-533.15 252.12,-547.25 252.12,-547.25 252.12,-553.25 246.12,-559.25 240.12,-559.25"/>
<text text-anchor="middle" x="217.25" y="-538" font-family="Inter, Helvetica, sans-serif" font-size="11.00" fill="#fafafa">Private</text>
</g>
<!-- public&#45;&gt;private -->
<!-- cloudflare -->
<g id="node7" class="node">
<title>cloudflare</title>
<path fill="#18181b" stroke="#ec4899" stroke-width="1.5" d="M129.88,-440.9C129.88,-440.9 52.62,-440.9 52.62,-440.9 46.62,-440.9 40.62,-434.9 40.62,-428.9 40.62,-428.9 40.62,-398.3 40.62,-398.3 40.62,-392.3 46.62,-386.3 52.62,-386.3 52.62,-386.3 129.88,-386.3 129.88,-386.3 135.88,-386.3 141.88,-392.3 141.88,-398.3 141.88,-398.3 141.88,-428.9 141.88,-428.9 141.88,-434.9 135.88,-440.9 129.88,-440.9"/>
<text text-anchor="middle" x="91.25" y="-419.65" font-family="Inter, Helvetica, sans-serif" font-size="11.00" fill="#fafafa">Cloudflare</text>
<text text-anchor="middle" x="91.25" y="-403.15" font-family="Inter, Helvetica, sans-serif" font-size="11.00" fill="#fafafa">DNS &amp; Proxy</text>
</g>
<!-- public&#45;&gt;cloudflare -->
<g id="edge25" class="edge">
<title>public&#45;&gt;cloudflare</title>
<path fill="none" stroke="#38bdf8" stroke-width="2" d="M80.38,-520.7C80.38,-520.7 80.38,-451.79 80.38,-451.79"/>
<polygon fill="#38bdf8" stroke="#38bdf8" stroke-width="2" points="80.38,-443.79 83.98,-451.79 80.88,-445.35 80.88,-451.79 80.38,-451.79 79.88,-451.79 79.88,-445.35 76.78,-451.79 80.38,-443.79"/>
<text text-anchor="middle" x="47.38" y="-491.74" font-family="Inter, Helvetica, sans-serif" font-size="10.00" fill="#38bdf8"> Routes Traffic </text>
</g>
<!-- public&#45;&gt;cloudflare -->
<!-- azure_kv -->
<g id="node8" class="node">
<title>azure_kv</title>
<path fill="#18181b" stroke="#ec4899" stroke-width="1.5" d="M300.5,-432.65C300.5,-432.65 212,-432.65 212,-432.65 206,-432.65 200,-426.65 200,-420.65 200,-420.65 200,-406.55 200,-406.55 200,-400.55 206,-394.55 212,-394.55 212,-394.55 300.5,-394.55 300.5,-394.55 306.5,-394.55 312.5,-400.55 312.5,-406.55 312.5,-406.55 312.5,-420.65 312.5,-420.65 312.5,-426.65 306.5,-432.65 300.5,-432.65"/>
<text text-anchor="middle" x="256.25" y="-411.4" font-family="Inter, Helvetica, sans-serif" font-size="11.00" fill="#fafafa">Azure Key Vault</text>
</g>
<!-- private&#45;&gt;azure_kv -->
<!-- pihole -->
<g id="node12" class="node">
<title>pihole</title>
<path fill="#18181b" stroke="#f59e0b" stroke-width="1.5" d="M367.12,-306.05C367.12,-306.05 267.38,-306.05 267.38,-306.05 261.38,-306.05 255.38,-300.05 255.38,-294.05 255.38,-294.05 255.38,-279.95 255.38,-279.95 255.38,-273.95 261.38,-267.95 267.38,-267.95 267.38,-267.95 367.12,-267.95 367.12,-267.95 373.12,-267.95 379.12,-273.95 379.12,-279.95 379.12,-279.95 379.12,-294.05 379.12,-294.05 379.12,-300.05 373.12,-306.05 367.12,-306.05"/>
<text text-anchor="middle" x="317.25" y="-284.8" font-family="Inter, Helvetica, sans-serif" font-size="11.00" fill="#fafafa">Pi&#45;hole &amp; Tailscale</text>
</g>
<!-- private&#45;&gt;pihole -->
<g id="edge27" class="edge">
<title>private&#45;&gt;pihole</title>
<path fill="none" stroke="#38bdf8" stroke-width="2" d="M193.75,-520.71C193.75,-463 193.75,-297 193.75,-297 193.75,-297 244.7,-297 244.7,-297"/>
<polygon fill="#38bdf8" stroke="#38bdf8" stroke-width="2" points="252.7,-297 244.7,-300.6 251.14,-297.5 244.7,-297.5 244.7,-297 244.7,-296.5 251.14,-296.5 244.7,-293.4 252.7,-297"/>
<text text-anchor="middle" x="160.75" y="-373.88" font-family="Inter, Helvetica, sans-serif" font-size="10.00" fill="#38bdf8"> Routes Traffic </text>
</g>
<!-- nixos -->
<g id="node3" class="node">
<title>nixos</title>
<path fill="#18181b" stroke="#6366f1" stroke-width="1.5" d="M578.38,-567.5C578.38,-567.5 516.12,-567.5 516.12,-567.5 510.12,-567.5 504.12,-561.5 504.12,-555.5 504.12,-555.5 504.12,-524.9 504.12,-524.9 504.12,-518.9 510.12,-512.9 516.12,-512.9 516.12,-512.9 578.38,-512.9 578.38,-512.9 584.38,-512.9 590.38,-518.9 590.38,-524.9 590.38,-524.9 590.38,-555.5 590.38,-555.5 590.38,-561.5 584.38,-567.5 578.38,-567.5"/>
<text text-anchor="middle" x="547.25" y="-546.25" font-family="Inter, Helvetica, sans-serif" font-size="11.00" fill="#fafafa">NixOS</text>
<text text-anchor="middle" x="547.25" y="-529.75" font-family="Inter, Helvetica, sans-serif" font-size="11.00" fill="#fafafa">OS Config</text>
</g>
<!-- tofu -->
<g id="node4" class="node">
<title>tofu</title>
<path fill="#18181b" stroke="#6366f1" stroke-width="1.5" d="M776.25,-567.5C776.25,-567.5 686.25,-567.5 686.25,-567.5 680.25,-567.5 674.25,-561.5 674.25,-555.5 674.25,-555.5 674.25,-524.9 674.25,-524.9 674.25,-518.9 680.25,-512.9 686.25,-512.9 686.25,-512.9 776.25,-512.9 776.25,-512.9 782.25,-512.9 788.25,-518.9 788.25,-524.9 788.25,-524.9 788.25,-555.5 788.25,-555.5 788.25,-561.5 782.25,-567.5 776.25,-567.5"/>
<text text-anchor="middle" x="731.25" y="-546.25" font-family="Inter, Helvetica, sans-serif" font-size="11.00" fill="#fafafa">OpenTofu</text>
<text text-anchor="middle" x="731.25" y="-529.75" font-family="Inter, Helvetica, sans-serif" font-size="11.00" fill="#fafafa">VM Provisioning</text>
</g>
<!-- nixos&#45;&gt;tofu -->
<!-- opencode -->
<g id="node13" class="node">
<title>opencode</title>
<path fill="#18181b" stroke="#f59e0b" stroke-width="1.5" d="M561.5,-306.05C561.5,-306.05 497,-306.05 497,-306.05 491,-306.05 485,-300.05 485,-294.05 485,-294.05 485,-279.95 485,-279.95 485,-273.95 491,-267.95 497,-267.95 497,-267.95 561.5,-267.95 561.5,-267.95 567.5,-267.95 573.5,-273.95 573.5,-279.95 573.5,-279.95 573.5,-294.05 573.5,-294.05 573.5,-300.05 567.5,-306.05 561.5,-306.05"/>
<text text-anchor="middle" x="529.25" y="-284.8" font-family="Inter, Helvetica, sans-serif" font-size="11.00" fill="#fafafa">OpenCode</text>
</g>
<!-- nixos&#45;&gt;opencode -->
<g id="edge19" class="edge">
<title>nixos&#45;&gt;opencode</title>
<path fill="none" stroke="#818cf8" stroke-width="1.2" stroke-dasharray="5,2" d="M527.25,-512.62C527.25,-512.62 527.25,-422.27 527.25,-363.42"/>
<ellipse fill="#818cf8" stroke="#818cf8" stroke-width="1.2" cx="527.25" cy="-359.85" rx="3.2" ry="3.2"/>
<text text-anchor="middle" x="500.62" y="-443.52" font-family="Inter, Helvetica, sans-serif" font-size="10.00" fill="#818cf8"> Configures </text>
</g>
<!-- nixos&#45;&gt;opencode -->
<!-- github -->
<g id="node5" class="node">
<title>github</title>
<path fill="#18181b" stroke="#6366f1" stroke-width="1.5" d="M980.62,-567.5C980.62,-567.5 871.88,-567.5 871.88,-567.5 865.88,-567.5 859.88,-561.5 859.88,-555.5 859.88,-555.5 859.88,-524.9 859.88,-524.9 859.88,-518.9 865.88,-512.9 871.88,-512.9 871.88,-512.9 980.62,-512.9 980.62,-512.9 986.62,-512.9 992.62,-518.9 992.62,-524.9 992.62,-524.9 992.62,-555.5 992.62,-555.5 992.62,-561.5 986.62,-567.5 980.62,-567.5"/>
<text text-anchor="middle" x="926.25" y="-546.25" font-family="Inter, Helvetica, sans-serif" font-size="11.00" fill="#fafafa">GitHub Repo</text>
<text text-anchor="middle" x="926.25" y="-529.75" font-family="Inter, Helvetica, sans-serif" font-size="11.00" fill="#fafafa">Flux + Tofu Sources</text>
</g>
<!-- tofu&#45;&gt;github -->
<!-- proxmox -->
<g id="node9" class="node">
<title>proxmox</title>
<path fill="#18181b" stroke="#10b981" stroke-width="1.5" d="M786.38,-440.9C786.38,-440.9 676.12,-440.9 676.12,-440.9 670.12,-440.9 664.12,-434.9 664.12,-428.9 664.12,-428.9 664.12,-398.3 664.12,-398.3 664.12,-392.3 670.12,-386.3 676.12,-386.3 676.12,-386.3 786.38,-386.3 786.38,-386.3 792.38,-386.3 798.38,-392.3 798.38,-398.3 798.38,-398.3 798.38,-428.9 798.38,-428.9 798.38,-434.9 792.38,-440.9 786.38,-440.9"/>
<text text-anchor="middle" x="731.25" y="-419.65" font-family="Inter, Helvetica, sans-serif" font-size="11.00" fill="#fafafa">Proxmox VE Cluster</text>
<text text-anchor="middle" x="731.25" y="-403.15" font-family="Inter, Helvetica, sans-serif" font-size="11.00" fill="#fafafa">3 Nodes</text>
</g>
<!-- tofu&#45;&gt;proxmox -->
<g id="edge18" class="edge">
<title>tofu&#45;&gt;proxmox</title>
<path fill="none" stroke="#818cf8" stroke-width="1.2" stroke-dasharray="5,2" d="M712.25,-512.42C712.25,-512.42 712.25,-448.92 712.25,-448.92"/>
<ellipse fill="#818cf8" stroke="#818cf8" stroke-width="1.2" cx="712.25" cy="-445.12" rx="3.2" ry="3.2"/>
<text text-anchor="middle" x="686.38" y="-486.17" font-family="Inter, Helvetica, sans-serif" font-size="10.00" fill="#818cf8"> Provisions </text>
</g>
<!-- tofu&#45;&gt;proxmox -->
<!-- flux -->
<g id="node6" class="node">
<title>flux</title>
<path fill="#18181b" stroke="#6366f1" stroke-width="1.5" d="M1162.12,-567.5C1162.12,-567.5 1062.38,-567.5 1062.38,-567.5 1056.38,-567.5 1050.38,-561.5 1050.38,-555.5 1050.38,-555.5 1050.38,-524.9 1050.38,-524.9 1050.38,-518.9 1056.38,-512.9 1062.38,-512.9 1062.38,-512.9 1162.12,-512.9 1162.12,-512.9 1168.12,-512.9 1174.12,-518.9 1174.12,-524.9 1174.12,-524.9 1174.12,-555.5 1174.12,-555.5 1174.12,-561.5 1168.12,-567.5 1162.12,-567.5"/>
<text text-anchor="middle" x="1112.25" y="-546.25" font-family="Inter, Helvetica, sans-serif" font-size="11.00" fill="#fafafa">FluxCD</text>
<text text-anchor="middle" x="1112.25" y="-529.75" font-family="Inter, Helvetica, sans-serif" font-size="11.00" fill="#fafafa">K8s Reconciliation</text>
</g>
<!-- github&#45;&gt;flux -->
<!-- syn_nas -->
<g id="node10" class="node">
<title>syn_nas</title>
<path fill="#18181b" stroke="#10b981" stroke-width="1.5" d="M983.62,-440.9C983.62,-440.9 868.88,-440.9 868.88,-440.9 862.88,-440.9 856.88,-434.9 856.88,-428.9 856.88,-428.9 856.88,-398.3 856.88,-398.3 856.88,-392.3 862.88,-386.3 868.88,-386.3 868.88,-386.3 983.62,-386.3 983.62,-386.3 989.62,-386.3 995.62,-392.3 995.62,-398.3 995.62,-398.3 995.62,-428.9 995.62,-428.9 995.62,-434.9 989.62,-440.9 983.62,-440.9"/>
<text text-anchor="middle" x="926.25" y="-419.65" font-family="Inter, Helvetica, sans-serif" font-size="11.00" fill="#fafafa">Synology NAS</text>
<text text-anchor="middle" x="926.25" y="-403.15" font-family="Inter, Helvetica, sans-serif" font-size="11.00" fill="#fafafa">NFS Volumes &amp; LUN</text>
</g>
<!-- github&#45;&gt;syn_nas -->
<!-- storage -->
<g id="node18" class="node">
<title>storage</title>
<path fill="#18181b" stroke="#f43f5e" stroke-width="1.5" d="M818.5,-187.7C818.5,-187.7 682,-187.7 682,-187.7 676,-187.7 670,-181.7 670,-175.7 670,-175.7 670,-145.1 670,-145.1 670,-139.1 676,-133.1 682,-133.1 682,-133.1 818.5,-133.1 818.5,-133.1 824.5,-133.1 830.5,-139.1 830.5,-145.1 830.5,-145.1 830.5,-175.7 830.5,-175.7 830.5,-181.7 824.5,-187.7 818.5,-187.7"/>
<text text-anchor="middle" x="750.25" y="-166.45" font-family="Inter, Helvetica, sans-serif" font-size="11.00" fill="#fafafa">Data &amp; Storage &amp; Backup</text>
<text text-anchor="middle" x="750.25" y="-149.95" font-family="Inter, Helvetica, sans-serif" font-size="11.00" fill="#fafafa">CloudNativePG, Velero</text>
</g>
<!-- flux&#45;&gt;storage -->
<g id="edge20" class="edge">
<title>flux&#45;&gt;storage</title>
<path fill="none" stroke="#818cf8" stroke-width="1.2" stroke-dasharray="5,2" d="M1074.81,-512.52C1074.81,-423.61 1074.81,-151 1074.81,-151 1074.81,-151 903.45,-151 852.57,-151"/>
<ellipse fill="#818cf8" stroke="#818cf8" stroke-width="1.2" cx="849.05" cy="-151" rx="3.2" ry="3.2"/>
<text text-anchor="middle" x="1047.81" y="-226.14" font-family="Inter, Helvetica, sans-serif" font-size="10.00" fill="#818cf8"> Reconciles </text>
</g>
<!-- home -->
<g id="node24" class="node">
<title>home</title>
<path fill="#18181b" stroke="#8b5cf6" stroke-width="1.5" d="M1225.25,-61.1C1225.25,-61.1 1111.25,-61.1 1111.25,-61.1 1105.25,-61.1 1099.25,-55.1 1099.25,-49.1 1099.25,-49.1 1099.25,-35 1099.25,-35 1099.25,-29 1105.25,-23 1111.25,-23 1111.25,-23 1225.25,-23 1225.25,-23 1231.25,-23 1237.25,-29 1237.25,-35 1237.25,-35 1237.25,-49.1 1237.25,-49.1 1237.25,-55.1 1231.25,-61.1 1225.25,-61.1"/>
<text text-anchor="middle" x="1168.25" y="-39.85" font-family="Inter, Helvetica, sans-serif" font-size="11.00" fill="#fafafa">Home: Assistant, MC</text>
</g>
<!-- flux&#45;&gt;home -->
<!-- cloudflare&#45;&gt;azure_kv -->
<!-- haproxy -->
<g id="node11" class="node">
<title>haproxy</title>
<path fill="#18181b" stroke="#f59e0b" stroke-width="1.5" d="M169.12,-306.05C169.12,-306.05 99.38,-306.05 99.38,-306.05 93.38,-306.05 87.38,-300.05 87.38,-294.05 87.38,-294.05 87.38,-279.95 87.38,-279.95 87.38,-273.95 93.38,-267.95 99.38,-267.95 99.38,-267.95 169.12,-267.95 169.12,-267.95 175.12,-267.95 181.12,-273.95 181.12,-279.95 181.12,-279.95 181.12,-294.05 181.12,-294.05 181.12,-300.05 175.12,-306.05 169.12,-306.05"/>
<text text-anchor="middle" x="134.25" y="-284.8" font-family="Inter, Helvetica, sans-serif" font-size="11.00" fill="#fafafa">HAProxy x3</text>
</g>
<!-- cloudflare&#45;&gt;haproxy -->
<!-- ingress -->
<g id="node15" class="node">
<title>ingress</title>
<path fill="#18181b" stroke="#f43f5e" stroke-width="1.5" d="M175.5,-187.7C175.5,-187.7 93,-187.7 93,-187.7 87,-187.7 81,-181.7 81,-175.7 81,-175.7 81,-145.1 81,-145.1 81,-139.1 87,-133.1 93,-133.1 93,-133.1 175.5,-133.1 175.5,-133.1 181.5,-133.1 187.5,-139.1 187.5,-145.1 187.5,-145.1 187.5,-175.7 187.5,-175.7 187.5,-181.7 181.5,-187.7 175.5,-187.7"/>
<text text-anchor="middle" x="134.25" y="-166.45" font-family="Inter, Helvetica, sans-serif" font-size="11.00" fill="#fafafa">Traefik Ingress</text>
<text text-anchor="middle" x="134.25" y="-149.95" font-family="Inter, Helvetica, sans-serif" font-size="11.00" fill="#fafafa">Controller</text>
</g>
<!-- cloudflare&#45;&gt;ingress -->
<g id="edge26" class="edge">
<title>cloudflare&#45;&gt;ingress</title>
<path fill="none" stroke="#38bdf8" stroke-width="2" d="M66,-385.98C66,-320.25 66,-160 66,-160 66,-160 70.37,-160 70.37,-160"/>
<polygon fill="#38bdf8" stroke="#38bdf8" stroke-width="2" points="78.37,-160 70.37,-163.6 76.81,-160.5 70.37,-160.5 70.37,-160 70.37,-159.5 76.81,-159.5 70.37,-156.4 78.37,-160"/>
<text text-anchor="middle" x="33" y="-276.3" font-family="Inter, Helvetica, sans-serif" font-size="10.00" fill="#38bdf8"> Routes Traffic </text>
</g>
<!-- azure_kv&#45;&gt;pihole -->
<!-- platform -->
<g id="node16" class="node">
<title>platform</title>
<path fill="#18181b" stroke="#f43f5e" stroke-width="1.5" d="M376.5,-187.7C376.5,-187.7 258,-187.7 258,-187.7 252,-187.7 246,-181.7 246,-175.7 246,-175.7 246,-145.1 246,-145.1 246,-139.1 252,-133.1 258,-133.1 258,-133.1 376.5,-133.1 376.5,-133.1 382.5,-133.1 388.5,-139.1 388.5,-145.1 388.5,-145.1 388.5,-175.7 388.5,-175.7 388.5,-181.7 382.5,-187.7 376.5,-187.7"/>
<text text-anchor="middle" x="317.25" y="-166.45" font-family="Inter, Helvetica, sans-serif" font-size="11.00" fill="#fafafa">Core Services</text>
<text text-anchor="middle" x="317.25" y="-149.95" font-family="Inter, Helvetica, sans-serif" font-size="11.00" fill="#fafafa">Cert&#45;Manager, Harbor</text>
</g>
<!-- azure_kv&#45;&gt;platform -->
<g id="edge23" class="edge">
<title>azure_kv&#45;&gt;platform</title>
<path fill="none" stroke="#fbbf24" stroke-width="1.2" stroke-dasharray="5,2" d="M250.69,-394.15C250.69,-394.15 250.69,-196.78 250.69,-196.78"/>
<polygon fill="none" stroke="#fbbf24" stroke-width="1.2" points="247.49,-188.78 253.89,-188.78 253.89,-195.18 247.49,-195.18 247.49,-188.78"/>
<polyline fill="none" stroke="#fbbf24" stroke-width="1.2" points="250.69,-195.18 250.69,-196.78"/>
<text text-anchor="middle" x="230.81" y="-300.97" font-family="Inter, Helvetica, sans-serif" font-size="10.00" fill="#fbbf24"> Secrets </text>
</g>
<!-- proxmox&#45;&gt;syn_nas -->
<!-- proxmox&#45;&gt;pihole -->
<g id="edge22" class="edge">
<title>proxmox&#45;&gt;pihole</title>
<path fill="none" stroke="#34d399" stroke-width="1.2" stroke-dasharray="5,2" d="M663.67,-390C553.13,-390 345.81,-390 345.81,-390 345.81,-390 345.81,-313.97 345.81,-313.97"/>
<ellipse fill="#34d399" stroke="#34d399" stroke-width="1.2" cx="345.81" cy="-310.17" rx="3.2" ry="3.2"/>
<text text-anchor="middle" x="450.6" y="-395.5" font-family="Inter, Helvetica, sans-serif" font-size="10.00" fill="#34d399"> Hosts </text>
</g>
<!-- k3s -->
<g id="node14" class="node">
<title>k3s</title>
<path fill="#18181b" stroke="#f59e0b" stroke-width="1.5" d="M747.38,-314.3C747.38,-314.3 643.12,-314.3 643.12,-314.3 637.12,-314.3 631.12,-308.3 631.12,-302.3 631.12,-302.3 631.12,-271.7 631.12,-271.7 631.12,-265.7 637.12,-259.7 643.12,-259.7 643.12,-259.7 747.38,-259.7 747.38,-259.7 753.38,-259.7 759.38,-265.7 759.38,-271.7 759.38,-271.7 759.38,-302.3 759.38,-302.3 759.38,-308.3 753.38,-314.3 747.38,-314.3"/>
<text text-anchor="middle" x="695.25" y="-293.05" font-family="Inter, Helvetica, sans-serif" font-size="11.00" fill="#fafafa">k3s Nodes</text>
<text text-anchor="middle" x="695.25" y="-276.55" font-family="Inter, Helvetica, sans-serif" font-size="11.00" fill="#fafafa">Kubernetes Cluster</text>
</g>
<!-- proxmox&#45;&gt;k3s -->
<!-- syn_nas&#45;&gt;storage -->
<g id="edge24" class="edge">
<title>syn_nas&#45;&gt;storage</title>
<path fill="none" stroke="#2dd4bf" stroke-width="1.5" stroke-dasharray="1,5" d="M873.19,-386.13C873.19,-322.42 873.19,-170 873.19,-170 873.19,-170 863.06,-170 853.93,-170"/>
<polygon fill="#2dd4bf" stroke="#2dd4bf" stroke-width="1.5" points="846,-173.2 846,-166.8 852.4,-166.8 852.4,-173.2 846,-173.2"/>
<polyline fill="none" stroke="#2dd4bf" stroke-width="1.5" points="852.4,-170 854,-170"/>
<text text-anchor="middle" x="854.06" y="-273.94" font-family="Inter, Helvetica, sans-serif" font-size="10.00" fill="#2dd4bf"> Mounts </text>
</g>
<!-- utility -->
<g id="node23" class="node">
<title>utility</title>
<path fill="#18181b" stroke="#8b5cf6" stroke-width="1.5" d="M1029,-61.1C1029,-61.1 901.5,-61.1 901.5,-61.1 895.5,-61.1 889.5,-55.1 889.5,-49.1 889.5,-49.1 889.5,-35 889.5,-35 889.5,-29 895.5,-23 901.5,-23 901.5,-23 1029,-23 1029,-23 1035,-23 1041,-29 1041,-35 1041,-35 1041,-49.1 1041,-49.1 1041,-55.1 1035,-61.1 1029,-61.1"/>
<text text-anchor="middle" x="965.25" y="-39.85" font-family="Inter, Helvetica, sans-serif" font-size="11.00" fill="#fafafa">Util: Homepage, Budget</text>
</g>
<!-- syn_nas&#45;&gt;utility -->
<!-- haproxy&#45;&gt;pihole -->
<!-- haproxy&#45;&gt;ingress -->
<g id="edge29" class="edge">
<title>haproxy&#45;&gt;ingress</title>
<path fill="none" stroke="#38bdf8" stroke-width="2" d="M118.62,-267.5C118.62,-267.5 118.62,-198.59 118.62,-198.59"/>
<polygon fill="#38bdf8" stroke="#38bdf8" stroke-width="2" points="118.63,-190.59 122.23,-198.59 119.13,-192.15 119.13,-198.59 118.63,-198.59 118.13,-198.59 118.13,-192.15 115.03,-198.59 118.63,-190.59"/>
<text text-anchor="middle" x="85.62" y="-238.54" font-family="Inter, Helvetica, sans-serif" font-size="10.00" fill="#38bdf8"> Routes Traffic </text>
</g>
<!-- haproxy&#45;&gt;ingress -->
<!-- pihole&#45;&gt;haproxy -->
<g id="edge28" class="edge">
<title>pihole&#45;&gt;haproxy</title>
<path fill="none" stroke="#38bdf8" stroke-width="2" d="M255.04,-277C255.04,-277 191.98,-277 191.98,-277"/>
<polygon fill="#38bdf8" stroke="#38bdf8" stroke-width="2" points="183.98,-277 191.98,-273.4 185.54,-276.5 191.98,-276.5 191.98,-277 191.98,-277.5 185.54,-277.5 191.98,-280.6 183.98,-277"/>
<text text-anchor="middle" x="223.51" y="-267.5" font-family="Inter, Helvetica, sans-serif" font-size="10.00" fill="#38bdf8"> Routes Traffic </text>
</g>
<!-- pihole&#45;&gt;opencode -->
<!-- pihole&#45;&gt;platform -->
<!-- opencode&#45;&gt;k3s -->
<!-- obs -->
<g id="node17" class="node">
<title>obs</title>
<path fill="#18181b" stroke="#f43f5e" stroke-width="1.5" d="M599.75,-187.7C599.75,-187.7 458.75,-187.7 458.75,-187.7 452.75,-187.7 446.75,-181.7 446.75,-175.7 446.75,-175.7 446.75,-145.1 446.75,-145.1 446.75,-139.1 452.75,-133.1 458.75,-133.1 458.75,-133.1 599.75,-133.1 599.75,-133.1 605.75,-133.1 611.75,-139.1 611.75,-145.1 611.75,-145.1 611.75,-175.7 611.75,-175.7 611.75,-181.7 605.75,-187.7 599.75,-187.7"/>
<text text-anchor="middle" x="529.25" y="-166.45" font-family="Inter, Helvetica, sans-serif" font-size="11.00" fill="#fafafa">Observability</text>
<text text-anchor="middle" x="529.25" y="-149.95" font-family="Inter, Helvetica, sans-serif" font-size="11.00" fill="#fafafa">Prometheus, Grafana, Loki</text>
</g>
<!-- opencode&#45;&gt;obs -->
<!-- k3s&#45;&gt;storage -->
<g id="edge21" class="edge">
<title>k3s&#45;&gt;storage</title>
<path fill="none" stroke="#34d399" stroke-width="1.2" stroke-dasharray="5,2" d="M699.79,-259.22C699.79,-259.22 699.79,-249.03 699.79,-236.81"/>
<ellipse fill="#34d399" stroke="#34d399" stroke-width="1.2" cx="699.79" cy="-233.25" rx="3.2" ry="3.2"/>
<text text-anchor="middle" x="683.67" y="-238.52" font-family="Inter, Helvetica, sans-serif" font-size="10.00" fill="#34d399"> Hosts </text>
</g>
<!-- k3s&#45;&gt;storage -->
<!-- ingress&#45;&gt;platform -->
<!-- docs -->
<g id="node19" class="node">
<title>docs</title>
<path fill="#18181b" stroke="#8b5cf6" stroke-width="1.5" d="M205.5,-61.1C205.5,-61.1 63,-61.1 63,-61.1 57,-61.1 51,-55.1 51,-49.1 51,-49.1 51,-35 51,-35 51,-29 57,-23 63,-23 63,-23 205.5,-23 205.5,-23 211.5,-23 217.5,-29 217.5,-35 217.5,-35 217.5,-49.1 217.5,-49.1 217.5,-55.1 211.5,-61.1 205.5,-61.1"/>
<text text-anchor="middle" x="134.25" y="-39.85" font-family="Inter, Helvetica, sans-serif" font-size="11.00" fill="#fafafa">Docs: Paperless, Karakeep</text>
</g>
<!-- ingress&#45;&gt;docs -->
<g id="edge30" class="edge">
<title>ingress&#45;&gt;docs</title>
<path fill="none" stroke="#38bdf8" stroke-width="2" d="M116.5,-132.65C116.5,-132.65 116.5,-123.97 116.5,-113.17"/>
<polygon fill="#38bdf8" stroke="#38bdf8" stroke-width="2" points="116.5,-105.28 120.1,-113.28 117,-106.85 117,-113.28 116.5,-113.28 116,-113.28 116,-106.85 112.9,-113.28 116.5,-105.28"/>
<text text-anchor="middle" x="83.5" y="-113.41" font-family="Inter, Helvetica, sans-serif" font-size="10.00" fill="#38bdf8"> Routes Traffic </text>
</g>
<!-- ingress&#45;&gt;docs -->
<!-- platform&#45;&gt;obs -->
<!-- ai_apps -->
<g id="node20" class="node">
<title>ai_apps</title>
<path fill="#18181b" stroke="#8b5cf6" stroke-width="1.5" d="M422.75,-61.1C422.75,-61.1 287.75,-61.1 287.75,-61.1 281.75,-61.1 275.75,-55.1 275.75,-49.1 275.75,-49.1 275.75,-35 275.75,-35 275.75,-29 281.75,-23 287.75,-23 287.75,-23 422.75,-23 422.75,-23 428.75,-23 434.75,-29 434.75,-35 434.75,-35 434.75,-49.1 434.75,-49.1 434.75,-55.1 428.75,-61.1 422.75,-61.1"/>
<text text-anchor="middle" x="355.25" y="-39.85" font-family="Inter, Helvetica, sans-serif" font-size="11.00" fill="#fafafa">AI: LiteLLM, Open WebUI</text>
</g>
<!-- platform&#45;&gt;ai_apps -->
<!-- obs&#45;&gt;storage -->
<!-- media -->
<g id="node21" class="node">
<title>media</title>
<path fill="#18181b" stroke="#8b5cf6" stroke-width="1.5" d="M608,-61.1C608,-61.1 504.5,-61.1 504.5,-61.1 498.5,-61.1 492.5,-55.1 492.5,-49.1 492.5,-49.1 492.5,-35 492.5,-35 492.5,-29 498.5,-23 504.5,-23 504.5,-23 608,-23 608,-23 614,-23 620,-29 620,-35 620,-35 620,-49.1 620,-49.1 620,-55.1 614,-61.1 608,-61.1"/>
<text text-anchor="middle" x="556.25" y="-39.85" font-family="Inter, Helvetica, sans-serif" font-size="11.00" fill="#fafafa">Media: Jellyfin, *arr</text>
</g>
<!-- obs&#45;&gt;media -->
<!-- dev -->
<g id="node22" class="node">
<title>dev</title>
<path fill="#18181b" stroke="#8b5cf6" stroke-width="1.5" d="M796,-61.1C796,-61.1 704.5,-61.1 704.5,-61.1 698.5,-61.1 692.5,-55.1 692.5,-49.1 692.5,-49.1 692.5,-35 692.5,-35 692.5,-29 698.5,-23 704.5,-23 704.5,-23 796,-23 796,-23 802,-23 808,-29 808,-35 808,-35 808,-49.1 808,-49.1 808,-55.1 802,-61.1 796,-61.1"/>
<text text-anchor="middle" x="750.25" y="-39.85" font-family="Inter, Helvetica, sans-serif" font-size="11.00" fill="#fafafa">Dev: n8n, Coder</text>
</g>
<!-- storage&#45;&gt;dev -->
<!-- docs&#45;&gt;ai_apps -->
<!-- ai_apps&#45;&gt;media -->
<!-- media&#45;&gt;dev -->
<!-- dev&#45;&gt;utility -->
<!-- utility&#45;&gt;home -->
</g>
</svg>
