<?xml version="1.0" encoding="UTF-8"?>
<svg xmlns="http://www.w3.org/2000/svg" viewBox="0 0 960 720" font-family="system-ui, -apple-system, sans-serif">

  <!-- Background -->
  <rect width="960" height="720" fill="#fafafa"/>

  <!-- Title -->
  <text x="480" y="32" text-anchor="middle" font-size="18" font-weight="600" fill="#1a1a1a">Application Data Flow</text>

  <!-- ============================================ -->
  <!-- ANCHOR: Traefik Ingress (center, left side) -->
  <!-- ============================================ -->
  <rect x="65" y="85" width="130" height="48" rx="8" fill="#e8f5e9" stroke="#2e7d32" stroke-width="1.5"/>
  <text x="130" y="104" text-anchor="middle" font-size="13" font-weight="600" fill="#1b5e20">Traefik</text>
  <text x="130" y="120" text-anchor="middle" font-size="11" fill="#2e7d32">Ingress Controller</text>

  <!-- ============================================ -->
  <!-- ROW 1: Productivity & Dev Tools              -->
  <!-- ============================================ -->
  <text x="225" y="80" text-anchor="middle" font-size="11" font-weight="600" fill="#666">Productivity &amp; Dev Tools</text>

  <rect x="225" y="93" width="105" height="34" rx="6" fill="#e8f5e9" stroke="#2e7d32" stroke-width="0.75"/>
  <text x="277" y="110" text-anchor="middle" font-size="10.5" fill="#1b5e20">Actual Budget</text>

  <rect x="345" y="93" width="85" height="34" rx="6" fill="#e8f5e9" stroke="#2e7d32" stroke-width="0.75"/>
  <text x="387" y="110" text-anchor="middle" font-size="10.5" fill="#1b5e20">Chrome</text>

  <rect x="445" y="93" width="85" height="34" rx="6" fill="#e8f5e9" stroke="#2e7d32" stroke-width="0.75"/>
  <text x="487" y="110" text-anchor="middle" font-size="10.5" fill="#1b5e20">IT-Tools</text>

  <rect x="545" y="93" width="75" height="34" rx="6" fill="#e8f5e9" stroke="#2e7d32" stroke-width="0.75"/>
  <text x="582" y="110" text-anchor="middle" font-size="10.5" fill="#1b5e20">Termix</text>

  <rect x="635" y="93" width="80" height="34" rx="6" fill="#e8f5e9" stroke="#2e7d32" stroke-width="0.75"/>
  <text x="675" y="110" text-anchor="middle" font-size="10.5" fill="#1b5e20">Whoami</text>

  <rect x="730" y="93" width="85" height="34" rx="6" fill="#e8f5e9" stroke="#2e7d32" stroke-width="0.75"/>
  <text x="772" y="110" text-anchor="middle" font-size="10.5" fill="#1b5e20">Portfolio</text>

  <!-- ============================================ -->
  <!-- ROW 2: Dashboard, Photo/Doc, Media Suite    -->
  <!-- ============================================ -->
  <text x="225" y="168" text-anchor="middle" font-size="11" font-weight="600" fill="#666">Dashboard &amp; Browsing</text>

  <rect x="225" y="181" width="90" height="34" rx="6" fill="#e8f5e9" stroke="#2e7d32" stroke-width="0.75"/>
  <text x="270" y="198" text-anchor="middle" font-size="10.5" fill="#1b5e20">Homepage</text>

  <rect x="330" y="181" width="85" height="34" rx="6" fill="#e8f5e9" stroke="#2e7d32" stroke-width="0.75"/>
  <text x="372" y="198" text-anchor="middle" font-size="10.5" fill="#1b5e20">Commafeed</text>

  <!-- Photo & Doc -->
  <text x="455" y="168" text-anchor="middle" font-size="11" font-weight="600" fill="#666">Photo &amp; Documents</text>

  <rect x="430" y="181" width="90" height="34" rx="6" fill="#e8f5e9" stroke="#2e7d32" stroke-width="0.75"/>
  <text x="475" y="198" text-anchor="middle" font-size="10.5" fill="#1b5e20">Immich</text>

  <rect x="535" y="181" width="105" height="34" rx="6" fill="#e8f5e9" stroke="#2e7d32" stroke-width="0.75"/>
  <text x="587" y="198" text-anchor="middle" font-size="10.5" fill="#1b5e20">Paperless-ngx</text>

  <!-- Media Suite -->
  <text x="665" y="168" text-anchor="middle" font-size="11" font-weight="600" fill="#666">Media Suite</text>

  <rect x="630" y="181" width="95" height="34" rx="6" fill="#e8f5e9" stroke="#2e7d32" stroke-width="0.75"/>
  <text x="677" y="198" text-anchor="middle" font-size="10.5" fill="#1b5e20">Jellyfin</text>

  <rect x="740" y="181" width="100" height="34" rx="6" fill="#e8f5e9" stroke="#2e7d32" stroke-width="0.75"/>
  <text x="790" y="198" text-anchor="middle" font-size="10.5" fill="#1b5e20">Jellyseerr</text>

  <!-- ============================================ -->
  <!-- ROW 3: *arr Suite                            -->
  <!-- ============================================ -->
  <text x="480" y="260" text-anchor="middle" font-size="12" font-weight="600" fill="#455a64">*arr Suite (Media Management)</text>

  <rect x="195" y="275" width="80" height="32" rx="6" fill="#e8f5e9" stroke="#2e7d32" stroke-width="0.75"/>
  <text x="235" y="292" text-anchor="middle" font-size="10" fill="#1b5e20">Prowlarr</text>

  <rect x="290" y="275" width="85" height="32" rx="6" fill="#e8f5e9" stroke="#2e7d32" stroke-width="0.75"/>
  <text x="332" y="292" text-anchor="middle" font-size="10" fill="#1b5e20">qBittorrent</text>

  <rect x="400" y="275" width="75" height="32" rx="6" fill="#e8f5e9" stroke="#2e7d32" stroke-width="0.75"/>
  <text x="437" y="292" text-anchor="middle" font-size="10" fill="#1b5e20">Radarr</text>

  <rect x="495" y="275" width="75" height="32" rx="6" fill="#e8f5e9" stroke="#2e7d32" stroke-width="0.75"/>
  <text x="532" y="292" text-anchor="middle" font-size="10" fill="#1b5e20">Sonarr</text>

  <rect x="585" y="275" width="75" height="32" rx="6" fill="#e8f5e9" stroke="#2e7d32" stroke-width="0.75"/>
  <text x="622" y="292" text-anchor="middle" font-size="10" fill="#1b5e20">Lidarr</text>

  <rect x="675" y="275" width="75" height="32" rx="6" fill="#e8f5e9" stroke="#2e7d32" stroke-width="0.75"/>
  <text x="712" y="292" text-anchor="middle" font-size="10" fill="#1b5e20">Bazarr</text>

  <!-- ============================================ -->
  <!-- ROW 4: AI Services (highlighted)             -->
  <!-- ============================================ -->
  <rect x="380" y="340" width="200" height="90" rx="10" fill="#f3e5f5" stroke="#7b1fa2" stroke-width="1.5"/>
  <text x="480" y="360" text-anchor="middle" font-size="11" font-weight="600" fill="#7b1fa2">AI Services (GPU Worker)</text>

  <rect x="400" y="375" width="80" height="28" rx="6" fill="#f3e5f5" stroke="#7b1fa2" stroke-width="1"/>
  <text x="440" y="393" text-anchor="middle" font-size="10" fill="#4a148c">vLLM</text>

  <rect x="500" y="375" width="90" height="28" rx="6" fill="#f3e5f5" stroke="#7b1fa2" stroke-width="1"/>
  <text x="545" y="393" text-anchor="middle" font-size="10" fill="#4a148c">llama.cpp</text>

  <rect x="400" y="413" width="85" height="28" rx="6" fill="#f3e5f5" stroke="#7b1fa2" stroke-width="1"/>
  <text x="442" y="431" text-anchor="middle" font-size="10" fill="#4a148c">LiteLLM</text>

  <rect x="505" y="413" width="95" height="28" rx="6" fill="#f3e5f5" stroke="#7b1fa2" stroke-width="1"/>
  <text x="552" y="431" text-anchor="middle" font-size="10" fill="#4a148c">OpenWebUI</text>

  <!-- ============================================ -->
  <!-- ROW 5: Other Apps                            -->
  <!-- ============================================ -->
  <text x="225" y="505" text-anchor="middle" font-size="11" font-weight="600" fill="#666">Other Applications</text>

  <rect x="225" y="518" width="95" height="34" rx="6" fill="#e8f5e9" stroke="#2e7d32" stroke-width="0.75"/>
  <text x="272" y="535" text-anchor="middle" font-size="10.5" fill="#1b5e20">Home Assistant</text>

  <rect x="335" y="518" width="65" height="34" rx="6" fill="#e8f5e9" stroke="#2e7d32" stroke-width="0.75"/>
  <text x="367" y="535" text-anchor="middle" font-size="10.5" fill="#1b5e20">n8n</text>

  <rect x="420" y="518" width="85" height="34" rx="6" fill="#e8f5e9" stroke="#2e7d32" stroke-width="0.75"/>
  <text x="462" y="535" text-anchor="middle" font-size="10.5" fill="#1b5e20">Syncthing</text>

  <rect x="520" y="518" width="85" height="34" rx="6" fill="#e8f5e9" stroke="#2e7d32" stroke-width="0.75"/>
  <text x="562" y="535" text-anchor="middle" font-size="10.5" fill="#1b5e20">Grimmory</text>

  <rect x="620" y="518" width="85" height="34" rx="6" fill="#e8f5e9" stroke="#2e7d32" stroke-width="0.75"/>
  <text x="662" y="535" text-anchor="middle" font-size="10.5" fill="#1b5e20">Mini QR</text>

  <rect x="720" y="518" width="110" height="34" rx="6" fill="#e8f5e9" stroke="#2e7d32" stroke-width="0.75"/>
  <text x="775" y="535" text-anchor="middle" font-size="10.5" fill="#1b5e20">Life in the UK Quiz</text>

  <!-- ============================================ -->
  <!-- ROW 6: Monitoring & Other Services           -->
  <!-- ============================================ -->
  <text x="340" y="600" text-anchor="middle" font-size="11" font-weight="600" fill="#666">Monitoring &amp; Observability</text>

  <rect x="230" y="615" width="120" height="34" rx="6" fill="#e8f5e9" stroke="#2e7d32" stroke-width="0.75"/>
  <text x="290" y="632" text-anchor="middle" font-size="10.5" fill="#1b5e20">Prometheus + Grafana</text>

  <rect x="370" y="615" width="75" height="34" rx="6" fill="#e8f5e9" stroke="#2e7d32" stroke-width="0.75"/>
  <text x="407" y="632" text-anchor="middle" font-size="10.5" fill="#1b5e20">Loki</text>

  <rect x="465" y="615" width="95" height="34" rx="6" fill="#e8f5e9" stroke="#2e7d32" stroke-width="0.75"/>
  <text x="512" y="632" text-anchor="middle" font-size="10.5" fill="#1b5e20">Alloy (OTEL)</text>

  <!-- Other Services -->
  <text x="680" y="600" text-anchor="middle" font-size="11" font-weight="600" fill="#666">Other Services</text>

  <rect x="590" y="615" width="100" height="34" rx="6" fill="#e8f5e9" stroke="#2e7d32" stroke-width="0.75"/>
  <text x="640" y="632" text-anchor="middle" font-size="10.5" fill="#1b5e20">Minecraft</text>

  <rect x="705" y="615" width="95" height="34" rx="6" fill="#e8f5e9" stroke="#2e7d32" stroke-width="0.75"/>
  <text x="752" y="632" text-anchor="middle" font-size="10.5" fill="#1b5e20">Zotero</text>

  <rect x="815" y="615" width="95" height="34" rx="6" fill="#e8f5e9" stroke="#2e7d32" stroke-width="0.75"/>
  <text x="862" y="632" text-anchor="middle" font-size="10.5" fill="#1b5e20">Karakeep</text>

  <!-- ============================================ -->
  <!-- DATABASES (right side)                       -->
  <!-- ============================================ -->
  <text x="900" y="85" text-anchor="middle" font-size="11" font-weight="600" fill="#666">Databases</text>

  <ellipse cx="840" cy="130" rx="28" ry="14" fill="#f3e5f5" stroke="#7b1fa2" stroke-width="1.5"/>
  <text x="840" y="134" text-anchor="middle" font-size="9.5" fill="#4a148c">PostgreSQL</text>

  <ellipse cx="840" cy="175" rx="24" ry="14" fill="#f3e5f5" stroke="#7b1fa2" stroke-width="1.5"/>
  <text x="840" y="179" text-anchor="middle" font-size="9.5" fill="#4a148c">Redis</text>

  <!-- ============================================ -->
  <!-- CONNECTIONS (sparse, only the important ones) -->
  <!-- ============================================ -->

  <!-- Traefik → all apps (simplified: arrows to first in each group) -->
  <line x1="195" y1="109" x2="225" y2="109" stroke="#2e7d32" stroke-width="0.75"/>

  <line x1="195" y1="118" x2="225" y2="198" stroke="#2e7d32" stroke-width="0.75"/>
  <line x1="195" y1="118" x2="475" y2="198" stroke="#2e7d32" stroke-width="0.75"/>
  <line x1="195" y1="118" x2="677" y2="198" stroke="#2e7d32" stroke-width="0.75"/>

  <!-- AI flow -->
  <line x1="552" y1="427" x2="442" y2="427" stroke="#7b1fa2" stroke-width="1"/>
  <line x1="440" y1="427" x2="440" y2="389" stroke="#7b1fa2" stroke-width="1"/>
  <line x1="440" y1="427" x2="545" y2="389" stroke="#7b1fa2" stroke-width="1"/>

  <!-- *arr → Jellyfin -->
  <line x1="437" y1="307" x2="677" y2="215" stroke="#e65100" stroke-width="0.75" stroke-dasharray="3,3"/>
  <line x1="532" y1="307" x2="677" y2="215" stroke="#e65100" stroke-width="0.75" stroke-dasharray="3,3"/>

</svg>
