<?xml version="1.0" encoding="UTF-8" standalone="no"?>
<!DOCTYPE svg PUBLIC "-//W3C//DTD SVG 1.1//EN"
 "http://www.w3.org/Graphics/SVG/1.1/DTD/svg11.dtd">
<!-- Generated by graphviz version 12.2.1 (0)
 -->
<!-- Title: homelab Pages: 1 -->
<svg width="275pt" height="485pt"
 viewBox="0.00 0.00 274.80 484.80" xmlns="http://www.w3.org/2000/svg" xmlns:xlink="http://www.w3.org/1999/xlink">
<g id="graph0" class="graph" transform="scale(1 1) rotate(0) translate(14.4 470.4)">
<title>homelab</title>
<polygon fill="white" stroke="none" points="-14.4,14.4 -14.4,-470.4 260.4,-470.4 260.4,14.4 -14.4,14.4"/>
<text text-anchor="middle" x="123" y="-438.7" font-family="Helvetica,sans-Serif" font-size="14.00">Homelab Architecture</text>
<g id="clust1" class="cluster">
<title>cluster_edge</title>
<path fill="white" stroke="#f2994a" d="M50,-273.5C50,-273.5 138,-273.5 138,-273.5 144,-273.5 150,-279.5 150,-285.5 150,-285.5 150,-410.75 150,-410.75 150,-416.75 144,-422.75 138,-422.75 138,-422.75 50,-422.75 50,-422.75 44,-422.75 38,-416.75 38,-410.75 38,-410.75 38,-285.5 38,-285.5 38,-279.5 44,-273.5 50,-273.5"/>
<text text-anchor="middle" x="94" y="-405.45" font-family="Helvetica,sans-Serif" font-size="14.00">External Edge</text>
</g>
<g id="clust2" class="cluster">
<title>cluster_platform</title>
<path fill="white" stroke="#90a4ae" d="M65,-116.25C65,-116.25 181,-116.25 181,-116.25 187,-116.25 193,-122.25 193,-128.25 193,-128.25 193,-253.5 193,-253.5 193,-259.5 187,-265.5 181,-265.5 181,-265.5 65,-265.5 65,-265.5 59,-265.5 53,-259.5 53,-253.5 53,-253.5 53,-128.25 53,-128.25 53,-122.25 59,-116.25 65,-116.25"/>
<text text-anchor="middle" x="123" y="-248.2" font-family="Helvetica,sans-Serif" font-size="14.00">Homelab Platform</text>
</g>
<g id="clust3" class="cluster">
<title>cluster_services</title>
<path fill="white" stroke="#42a5f5" d="M20,-8C20,-8 226,-8 226,-8 232,-8 238,-14 238,-20 238,-20 238,-96.25 238,-96.25 238,-102.25 232,-108.25 226,-108.25 226,-108.25 20,-108.25 20,-108.25 14,-108.25 8,-102.25 8,-96.25 8,-96.25 8,-20 8,-20 8,-14 14,-8 20,-8"/>
<text text-anchor="middle" x="123" y="-90.95" font-family="Helvetica,sans-Serif" font-size="14.00">Kubernetes Services</text>
</g>
<!-- users -->
<g id="node1" class="node">
<title>users</title>
<path fill="#fff3e0" stroke="#5f6368" d="M119,-389.5C119,-389.5 89,-389.5 89,-389.5 83,-389.5 77,-383.5 77,-377.5 77,-377.5 77,-365.5 77,-365.5 77,-359.5 83,-353.5 89,-353.5 89,-353.5 119,-353.5 119,-353.5 125,-353.5 131,-359.5 131,-365.5 131,-365.5 131,-377.5 131,-377.5 131,-383.5 125,-389.5 119,-389.5"/>
<text text-anchor="middle" x="104" y="-368.38" font-family="Helvetica,sans-Serif" font-size="10.00">Users</text>
</g>
<!-- cloudflare -->
<g id="node2" class="node">
<title>cloudflare</title>
<path fill="#fff3e0" stroke="#5f6368" d="M123.38,-317.5C123.38,-317.5 64.62,-317.5 64.62,-317.5 58.62,-317.5 52.62,-311.5 52.62,-305.5 52.62,-305.5 52.62,-293.5 52.62,-293.5 52.62,-287.5 58.62,-281.5 64.62,-281.5 64.62,-281.5 123.38,-281.5 123.38,-281.5 129.38,-281.5 135.38,-287.5 135.38,-293.5 135.38,-293.5 135.38,-305.5 135.38,-305.5 135.38,-311.5 129.38,-317.5 123.38,-317.5"/>
<text text-anchor="middle" x="94" y="-302.75" font-family="Helvetica,sans-Serif" font-size="10.00">Cloudflare</text>
<text text-anchor="middle" x="94" y="-290" font-family="Helvetica,sans-Serif" font-size="10.00">DNS + Tunnel</text>
</g>
<!-- users&#45;&gt;cloudflare -->
<g id="edge1" class="edge">
<title>users&#45;&gt;cloudflare</title>
<path fill="none" stroke="#5f6368" d="M104,-353.33C104,-353.33 104,-326.43 104,-326.43"/>
<polygon fill="#5f6368" stroke="#5f6368" points="106.45,-326.43 104,-319.43 101.55,-326.43 106.45,-326.43"/>
<text text-anchor="middle" x="89.75" y="-342.58" font-family="Helvetica,sans-Serif" font-size="9.00">HTTPS</text>
</g>
<!-- proxmox -->
<g id="node3" class="node">
<title>proxmox</title>
<path fill="#eceff1" stroke="#5f6368" d="M173,-232.25C173,-232.25 73,-232.25 73,-232.25 67,-232.25 61,-226.25 61,-220.25 61,-220.25 61,-208.25 61,-208.25 61,-202.25 67,-196.25 73,-196.25 73,-196.25 173,-196.25 173,-196.25 179,-196.25 185,-202.25 185,-208.25 185,-208.25 185,-220.25 185,-220.25 185,-226.25 179,-232.25 173,-232.25"/>
<text text-anchor="middle" x="123" y="-217.5" font-family="Helvetica,sans-Serif" font-size="10.00">Proxmox VMs</text>
<text text-anchor="middle" x="123" y="-204.75" font-family="Helvetica,sans-Serif" font-size="10.00">HAProxy + K3s Nodes</text>
</g>
<!-- users&#45;&gt;proxmox -->
<g id="edge2" class="edge">
<title>users&#45;&gt;proxmox</title>
<path fill="none" stroke="#5f6368" d="M131.44,-372C145.7,-372 160.19,-372 160.19,-372 160.19,-372 160.19,-241.17 160.19,-241.17"/>
<polygon fill="#5f6368" stroke="#5f6368" points="162.64,-241.17 160.19,-234.17 157.74,-241.17 162.64,-241.17"/>
<text text-anchor="middle" x="151.19" y="-323.66" font-family="Helvetica,sans-Serif" font-size="9.00">LAN</text>
</g>
<!-- cloudflare&#45;&gt;proxmox -->
<g id="edge3" class="edge">
<title>cloudflare&#45;&gt;proxmox</title>
<path fill="none" stroke="#5f6368" d="M98.19,-281C98.19,-281 98.19,-241.23 98.19,-241.23"/>
<polygon fill="#5f6368" stroke="#5f6368" points="100.64,-241.23 98.19,-234.23 95.74,-241.23 100.64,-241.23"/>
<text text-anchor="middle" x="83.19" y="-263.81" font-family="Helvetica,sans-Serif" font-size="9.00">Tunnel</text>
</g>
<!-- traefik -->
<g id="node4" class="node">
<title>traefik</title>
<path fill="#e8f5e9" stroke="#5f6368" d="M138,-160.25C138,-160.25 108,-160.25 108,-160.25 102,-160.25 96,-154.25 96,-148.25 96,-148.25 96,-136.25 96,-136.25 96,-130.25 102,-124.25 108,-124.25 108,-124.25 138,-124.25 138,-124.25 144,-124.25 150,-130.25 150,-136.25 150,-136.25 150,-148.25 150,-148.25 150,-154.25 144,-160.25 138,-160.25"/>
<text text-anchor="middle" x="123" y="-145.5" font-family="Helvetica,sans-Serif" font-size="10.00">Traefik</text>
<text text-anchor="middle" x="123" y="-132.75" font-family="Helvetica,sans-Serif" font-size="10.00">Ingress</text>
</g>
<!-- proxmox&#45;&gt;traefik -->
<g id="edge4" class="edge">
<title>proxmox&#45;&gt;traefik</title>
<path fill="none" stroke="#5f6368" d="M123,-196.08C123,-196.08 123,-169.18 123,-169.18"/>
<polygon fill="#5f6368" stroke="#5f6368" points="125.45,-169.18 123,-162.18 120.55,-169.18 125.45,-169.18"/>
<text text-anchor="middle" x="106.5" y="-185.33" font-family="Helvetica,sans-Serif" font-size="9.00">Ingress</text>
</g>
<!-- services -->
<g id="node5" class="node">
<title>services</title>
<path fill="#e3f2fd" stroke="#5f6368" d="M217.62,-75C217.62,-75 28.38,-75 28.38,-75 22.38,-75 16.37,-69 16.37,-63 16.37,-63 16.37,-28 16.37,-28 16.37,-22 22.37,-16 28.37,-16 28.37,-16 217.62,-16 217.62,-16 223.62,-16 229.62,-22 229.62,-28 229.62,-28 229.62,-63 229.62,-63 229.62,-69 223.62,-75 217.62,-75"/>
<text text-anchor="middle" x="123" y="-61.5" font-family="Helvetica,sans-Serif" font-size="10.00">Public: Homepage, Immich, Open WebUI</text>
<text text-anchor="middle" x="123" y="-48.75" font-family="Helvetica,sans-Serif" font-size="10.00">Private: n8n, Paperless, Grafana</text>
<text text-anchor="middle" x="123" y="-36" font-family="Helvetica,sans-Serif" font-size="10.00">AI: LiteLLM + vLLM (GPU Worker)</text>
<text text-anchor="middle" x="123" y="-23.25" font-family="Helvetica,sans-Serif" font-size="10.00">Data: CloudNativePG + Redis + NAS CSI</text>
</g>
<!-- traefik&#45;&gt;services -->
<g id="edge5" class="edge">
<title>traefik&#45;&gt;services</title>
<path fill="none" stroke="#5f6368" d="M123,-124.05C123,-124.05 123,-83.92 123,-83.92"/>
<polygon fill="#5f6368" stroke="#5f6368" points="125.45,-83.92 123,-76.92 120.55,-83.92 125.45,-83.92"/>
</g>
</g>
</svg>
