<?xml version="1.0" encoding="UTF-8" standalone="no"?>
<!DOCTYPE svg PUBLIC "-//W3C//DTD SVG 1.1//EN"
 "http://www.w3.org/Graphics/SVG/1.1/DTD/svg11.dtd">
<!-- Generated by graphviz version 12.2.1 (0)
 -->
<!-- Title: homelab Pages: 1 -->
<svg width="1184pt" height="729pt"
 viewBox="0.00 0.00 1184.00 728.75" xmlns="http://www.w3.org/2000/svg" xmlns:xlink="http://www.w3.org/1999/xlink">
<g id="graph0" class="graph" transform="scale(1 1) rotate(0) translate(36 692.75)">
<title>homelab</title>
<polygon fill="#09090b" stroke="none" points="-36,36 -36,-692.75 1148,-692.75 1148,36 -36,36"/>
<g id="clust1" class="cluster">
<title>cluster_gitops</title>
<path fill="#111111" stroke="#7c3aed" d="M571,-537.4C571,-537.4 1092,-537.4 1092,-537.4 1098,-537.4 1104,-543.4 1104,-549.4 1104,-549.4 1104,-636.75 1104,-636.75 1104,-642.75 1098,-648.75 1092,-648.75 1092,-648.75 571,-648.75 571,-648.75 565,-648.75 559,-642.75 559,-636.75 559,-636.75 559,-549.4 559,-549.4 559,-543.4 565,-537.4 571,-537.4"/>
<text text-anchor="middle" x="831.5" y="-632.4" font-family="Inter, Helvetica, sans-serif" font-size="13.00" fill="#a78bfa">GITOPS &amp; IaC</text>
</g>
<g id="clust3" class="cluster">
<title>cluster_network</title>
<path fill="#111111" stroke="#3b82f6" d="M384,-545.65C384,-545.65 539,-545.65 539,-545.65 545,-545.65 551,-551.65 551,-557.65 551,-557.65 551,-628.5 551,-628.5 551,-634.5 545,-640.5 539,-640.5 539,-640.5 384,-640.5 384,-640.5 378,-640.5 372,-634.5 372,-628.5 372,-628.5 372,-557.65 372,-557.65 372,-551.65 378,-545.65 384,-545.65"/>
<text text-anchor="middle" x="461.5" y="-624.15" font-family="Inter, Helvetica, sans-serif" font-size="13.00" fill="#93c5fd">NETWORK ENTRY</text>
</g>
<g id="clust5" class="cluster">
<title>cluster_external</title>
<path fill="#111111" stroke="#0ea5e9" d="M231,-396.8C231,-396.8 466,-396.8 466,-396.8 472,-396.8 478,-402.8 478,-408.8 478,-408.8 478,-496.15 478,-496.15 478,-502.15 472,-508.15 466,-508.15 466,-508.15 231,-508.15 231,-508.15 225,-508.15 219,-502.15 219,-496.15 219,-496.15 219,-408.8 219,-408.8 219,-402.8 225,-396.8 231,-396.8"/>
<text text-anchor="middle" x="348.5" y="-491.8" font-family="Inter, Helvetica, sans-serif" font-size="13.00" fill="#7dd3fc">EXTERNAL</text>
</g>
<g id="clust7" class="cluster">
<title>cluster_hardware</title>
<path fill="#111111" stroke="#10b981" d="M498,-396.8C498,-396.8 792,-396.8 792,-396.8 798,-396.8 804,-402.8 804,-408.8 804,-408.8 804,-496.15 804,-496.15 804,-502.15 798,-508.15 792,-508.15 792,-508.15 498,-508.15 498,-508.15 492,-508.15 486,-502.15 486,-496.15 486,-496.15 486,-408.8 486,-408.8 486,-402.8 492,-396.8 498,-396.8"/>
<text text-anchor="middle" x="645" y="-491.8" font-family="Inter, Helvetica, sans-serif" font-size="13.00" fill="#6ee7b7">HARDWARE</text>
</g>
<g id="clust9" class="cluster">
<title>cluster_vm</title>
<path fill="#111111" stroke="#ef4444" d="M606,-272.7C606,-272.7 955,-272.7 955,-272.7 961,-272.7 967,-278.7 967,-284.7 967,-284.7 967,-355.55 967,-355.55 967,-361.55 961,-367.55 955,-367.55 955,-367.55 606,-367.55 606,-367.55 600,-367.55 594,-361.55 594,-355.55 594,-355.55 594,-284.7 594,-284.7 594,-278.7 600,-272.7 606,-272.7"/>
<text text-anchor="middle" x="780.5" y="-351.2" font-family="Inter, Helvetica, sans-serif" font-size="13.00" fill="#fca5a1">VIRTUAL MACHINES</text>
</g>
<g id="clust11" class="cluster">
<title>cluster_infra</title>
<path fill="#111111" stroke="#ef4444" d="M216,-132.1C216,-132.1 855,-132.1 855,-132.1 861,-132.1 867,-138.1 867,-144.1 867,-144.1 867,-231.45 867,-231.45 867,-237.45 861,-243.45 855,-243.45 855,-243.45 216,-243.45 216,-243.45 210,-243.45 204,-237.45 204,-231.45 204,-231.45 204,-144.1 204,-144.1 204,-138.1 210,-132.1 216,-132.1"/>
<text text-anchor="middle" x="535.5" y="-227.1" font-family="Inter, Helvetica, sans-serif" font-size="13.00" fill="#fca5a1">KUBERNETES INFRASTRUCTURE</text>
</g>
<g id="clust13" class="cluster">
<title>cluster_workloads</title>
<path fill="#111111" stroke="#ef4444" d="M20,-8C20,-8 986,-8 986,-8 992,-8 998,-14 998,-20 998,-20 998,-90.85 998,-90.85 998,-96.85 992,-102.85 986,-102.85 986,-102.85 20,-102.85 20,-102.85 14,-102.85 8,-96.85 8,-90.85 8,-90.85 8,-20 8,-20 8,-14 14,-8 20,-8"/>
<text text-anchor="middle" x="503" y="-86.5" font-family="Inter, Helvetica, sans-serif" font-size="13.00" fill="#fca5a1">PRODUCTION WORKLOADS</text>
</g>
<!-- github -->
<g id="node1" class="node">
<title>github</title>
<path fill="#18181b" stroke="#7c3aed" stroke-width="1.5" d="M687.77,-607C687.77,-607 586.23,-607 586.23,-607 580.23,-607 574.23,-601 574.23,-595 574.23,-595 574.23,-564.4 574.23,-564.4 574.23,-558.4 580.23,-552.4 586.23,-552.4 586.23,-552.4 687.77,-552.4 687.77,-552.4 693.77,-552.4 699.77,-558.4 699.77,-564.4 699.77,-564.4 699.77,-595 699.77,-595 699.77,-601 693.77,-607 687.77,-607"/>
<text text-anchor="middle" x="637" y="-585.75" font-family="Inter, Helvetica, sans-serif" font-size="11.00" fill="#fafafa">GitHub Repo</text>
<text text-anchor="middle" x="637" y="-569.25" font-family="Inter, Helvetica, sans-serif" font-size="11.00" fill="#fafafa">Flux + Tofu Sources</text>
</g>
<!-- nixos -->
<g id="node2" class="node">
<title>nixos</title>
<path fill="#18181b" stroke="#7c3aed" stroke-width="1.5" d="M931.52,-607C931.52,-607 876.48,-607 876.48,-607 870.48,-607 864.48,-601 864.48,-595 864.48,-595 864.48,-564.4 864.48,-564.4 864.48,-558.4 870.48,-552.4 876.48,-552.4 876.48,-552.4 931.52,-552.4 931.52,-552.4 937.52,-552.4 943.52,-558.4 943.52,-564.4 943.52,-564.4 943.52,-595 943.52,-595 943.52,-601 937.52,-607 931.52,-607"/>
<text text-anchor="middle" x="904" y="-585.75" font-family="Inter, Helvetica, sans-serif" font-size="11.00" fill="#fafafa">NixOS</text>
<text text-anchor="middle" x="904" y="-569.25" font-family="Inter, Helvetica, sans-serif" font-size="11.00" fill="#fafafa">OS Config</text>
</g>
<!-- opencode -->
<g id="node13" class="node">
<title>opencode</title>
<path fill="#18181b" stroke="#ef4444" stroke-width="1.5" d="M939.65,-325.8C939.65,-325.8 882.35,-325.8 882.35,-325.8 876.35,-325.8 870.35,-319.8 870.35,-313.8 870.35,-313.8 870.35,-299.7 870.35,-299.7 870.35,-293.7 876.35,-287.7 882.35,-287.7 882.35,-287.7 939.65,-287.7 939.65,-287.7 945.65,-287.7 951.65,-293.7 951.65,-299.7 951.65,-299.7 951.65,-313.8 951.65,-313.8 951.65,-319.8 945.65,-325.8 939.65,-325.8"/>
<text text-anchor="middle" x="911" y="-304.55" font-family="Inter, Helvetica, sans-serif" font-size="11.00" fill="#fafafa">OpenCode</text>
</g>
<!-- nixos&#45;&gt;opencode -->
<g id="edge2" class="edge">
<title>nixos&#45;&gt;opencode</title>
<path fill="none" stroke="#a1a1aa" stroke-width="1.2" stroke-dasharray="5,2" d="M906.94,-552.03C906.94,-552.03 906.94,-439.85 906.94,-377.16"/>
<polygon fill="#a1a1aa" stroke="#a1a1aa" stroke-width="1.2" points="909.74,-377.36 906.94,-369.36 904.14,-377.36 909.74,-377.36"/>
<text text-anchor="middle" x="880.31" y="-470.09" font-family="Inter, Helvetica, sans-serif" font-size="10.00" fill="#a1a1aa"> Configures </text>
</g>
<!-- tofu -->
<g id="node3" class="node">
<title>tofu</title>
<path fill="#18181b" stroke="#7c3aed" stroke-width="1.5" d="M823.4,-607C823.4,-607 740.6,-607 740.6,-607 734.6,-607 728.6,-601 728.6,-595 728.6,-595 728.6,-564.4 728.6,-564.4 728.6,-558.4 734.6,-552.4 740.6,-552.4 740.6,-552.4 823.4,-552.4 823.4,-552.4 829.4,-552.4 835.4,-558.4 835.4,-564.4 835.4,-564.4 835.4,-595 835.4,-595 835.4,-601 829.4,-607 823.4,-607"/>
<text text-anchor="middle" x="782" y="-585.75" font-family="Inter, Helvetica, sans-serif" font-size="11.00" fill="#fafafa">OpenTofu</text>
<text text-anchor="middle" x="782" y="-569.25" font-family="Inter, Helvetica, sans-serif" font-size="11.00" fill="#fafafa">VM Provisioning</text>
</g>
<!-- proxmox -->
<g id="node9" class="node">
<title>proxmox</title>
<path fill="#18181b" stroke="#10b981" stroke-width="1.5" d="M776.52,-466.4C776.52,-466.4 673.48,-466.4 673.48,-466.4 667.48,-466.4 661.48,-460.4 661.48,-454.4 661.48,-454.4 661.48,-423.8 661.48,-423.8 661.48,-417.8 667.48,-411.8 673.48,-411.8 673.48,-411.8 776.52,-411.8 776.52,-411.8 782.52,-411.8 788.52,-417.8 788.52,-423.8 788.52,-423.8 788.52,-454.4 788.52,-454.4 788.52,-460.4 782.52,-466.4 776.52,-466.4"/>
<text text-anchor="middle" x="725" y="-445.15" font-family="Inter, Helvetica, sans-serif" font-size="11.00" fill="#fafafa">Proxmox VE Cluster</text>
<text text-anchor="middle" x="725" y="-428.65" font-family="Inter, Helvetica, sans-serif" font-size="11.00" fill="#fafafa">3 Nodes</text>
</g>
<!-- tofu&#45;&gt;proxmox -->
<g id="edge1" class="edge">
<title>tofu&#45;&gt;proxmox</title>
<path fill="none" stroke="#a1a1aa" stroke-width="1.2" stroke-dasharray="5,2" d="M758.56,-551.92C758.56,-551.92 758.56,-476.64 758.56,-476.64"/>
<polygon fill="#a1a1aa" stroke="#a1a1aa" stroke-width="1.2" points="761.36,-476.64 758.56,-468.64 755.76,-476.64 761.36,-476.64"/>
<text text-anchor="middle" x="732.69" y="-519.78" font-family="Inter, Helvetica, sans-serif" font-size="10.00" fill="#a1a1aa"> Provisions </text>
</g>
<!-- flux -->
<g id="node4" class="node">
<title>flux</title>
<path fill="#18181b" stroke="#7c3aed" stroke-width="1.5" d="M1077.28,-607C1077.28,-607 984.73,-607 984.73,-607 978.73,-607 972.73,-601 972.73,-595 972.73,-595 972.73,-564.4 972.73,-564.4 972.73,-558.4 978.73,-552.4 984.73,-552.4 984.73,-552.4 1077.28,-552.4 1077.28,-552.4 1083.28,-552.4 1089.28,-558.4 1089.28,-564.4 1089.28,-564.4 1089.28,-595 1089.28,-595 1089.28,-601 1083.28,-607 1077.28,-607"/>
<text text-anchor="middle" x="1031" y="-585.75" font-family="Inter, Helvetica, sans-serif" font-size="11.00" fill="#fafafa">FluxCD</text>
<text text-anchor="middle" x="1031" y="-569.25" font-family="Inter, Helvetica, sans-serif" font-size="11.00" fill="#fafafa">K8s Reconciliation</text>
</g>
<!-- storage -->
<g id="node14" class="node">
<title>storage</title>
<path fill="#18181b" stroke="#ef4444" stroke-width="1.5" d="M652.65,-201.7C652.65,-201.7 523.35,-201.7 523.35,-201.7 517.35,-201.7 511.35,-195.7 511.35,-189.7 511.35,-189.7 511.35,-159.1 511.35,-159.1 511.35,-153.1 517.35,-147.1 523.35,-147.1 523.35,-147.1 652.65,-147.1 652.65,-147.1 658.65,-147.1 664.65,-153.1 664.65,-159.1 664.65,-159.1 664.65,-189.7 664.65,-189.7 664.65,-195.7 658.65,-201.7 652.65,-201.7"/>
<text text-anchor="middle" x="588" y="-180.45" font-family="Inter, Helvetica, sans-serif" font-size="11.00" fill="#fafafa">Data &amp; Storage &amp; Backup</text>
<text text-anchor="middle" x="588" y="-163.95" font-family="Inter, Helvetica, sans-serif" font-size="11.00" fill="#fafafa">CloudNativePG, Velero</text>
</g>
<!-- flux&#45;&gt;storage -->
<g id="edge4" class="edge">
<title>flux&#45;&gt;storage</title>
<path fill="none" stroke="#a1a1aa" stroke-width="1.2" stroke-dasharray="5,2" d="M978.06,-552.03C978.06,-471.84 978.06,-245 978.06,-245 978.06,-245 710.03,-245 655.59,-243.87"/>
<polygon fill="#a1a1aa" stroke="#a1a1aa" stroke-width="1.2" points="655.94,-241.09 647.82,-243.53 655.69,-246.68 655.94,-241.09"/>
<text text-anchor="middle" x="943.34" y="-250.47" font-family="Inter, Helvetica, sans-serif" font-size="10.00" fill="#a1a1aa"> Reconciles </text>
</g>
<!-- public -->
<g id="node5" class="node">
<title>public</title>
<path fill="#18181b" stroke="#3b82f6" stroke-width="1.5" d="M433.02,-598.75C433.02,-598.75 398.98,-598.75 398.98,-598.75 392.98,-598.75 386.98,-592.75 386.98,-586.75 386.98,-586.75 386.98,-572.65 386.98,-572.65 386.98,-566.65 392.98,-560.65 398.98,-560.65 398.98,-560.65 433.02,-560.65 433.02,-560.65 439.02,-560.65 445.02,-566.65 445.02,-572.65 445.02,-572.65 445.02,-586.75 445.02,-586.75 445.02,-592.75 439.02,-598.75 433.02,-598.75"/>
<text text-anchor="middle" x="416" y="-577.5" font-family="Inter, Helvetica, sans-serif" font-size="11.00" fill="#fafafa">Public</text>
</g>
<!-- cloudflare -->
<g id="node8" class="node">
<title>cloudflare</title>
<path fill="#18181b" stroke="#0ea5e9" stroke-width="1.5" d="M451.02,-466.4C451.02,-466.4 380.98,-466.4 380.98,-466.4 374.98,-466.4 368.98,-460.4 368.98,-454.4 368.98,-454.4 368.98,-423.8 368.98,-423.8 368.98,-417.8 374.98,-411.8 380.98,-411.8 380.98,-411.8 451.02,-411.8 451.02,-411.8 457.02,-411.8 463.02,-417.8 463.02,-423.8 463.02,-423.8 463.02,-454.4 463.02,-454.4 463.02,-460.4 457.02,-466.4 451.02,-466.4"/>
<text text-anchor="middle" x="416" y="-445.15" font-family="Inter, Helvetica, sans-serif" font-size="11.00" fill="#fafafa">Cloudflare</text>
<text text-anchor="middle" x="416" y="-428.65" font-family="Inter, Helvetica, sans-serif" font-size="11.00" fill="#fafafa">DNS &amp; Proxy</text>
</g>
<!-- public&#45;&gt;cloudflare -->
<g id="edge7" class="edge">
<title>public&#45;&gt;cloudflare</title>
<path fill="none" stroke="#3b82f6" stroke-width="2" d="M406.32,-560.15C406.32,-560.15 406.32,-477.73 406.32,-477.73"/>
<polygon fill="#3b82f6" stroke="#3b82f6" stroke-width="2" points="409.13,-477.73 406.33,-469.73 403.53,-477.73 409.13,-477.73"/>
<text text-anchor="middle" x="373.32" y="-524.44" font-family="Inter, Helvetica, sans-serif" font-size="10.00" fill="#a1a1aa"> Routes Traffic </text>
</g>
<!-- public&#45;&gt;cloudflare -->
<!-- private -->
<g id="node6" class="node">
<title>private</title>
<path fill="#18181b" stroke="#3b82f6" stroke-width="1.5" d="M524.27,-598.75C524.27,-598.75 485.73,-598.75 485.73,-598.75 479.73,-598.75 473.73,-592.75 473.73,-586.75 473.73,-586.75 473.73,-572.65 473.73,-572.65 473.73,-566.65 479.73,-560.65 485.73,-560.65 485.73,-560.65 524.27,-560.65 524.27,-560.65 530.27,-560.65 536.27,-566.65 536.27,-572.65 536.27,-572.65 536.27,-586.75 536.27,-586.75 536.27,-592.75 530.27,-598.75 524.27,-598.75"/>
<text text-anchor="middle" x="505" y="-577.5" font-family="Inter, Helvetica, sans-serif" font-size="11.00" fill="#fafafa">Private</text>
</g>
<!-- syn_nas -->
<g id="node10" class="node">
<title>syn_nas</title>
<path fill="#18181b" stroke="#10b981" stroke-width="1.5" d="M620.77,-466.4C620.77,-466.4 513.23,-466.4 513.23,-466.4 507.23,-466.4 501.23,-460.4 501.23,-454.4 501.23,-454.4 501.23,-423.8 501.23,-423.8 501.23,-417.8 507.23,-411.8 513.23,-411.8 513.23,-411.8 620.77,-411.8 620.77,-411.8 626.77,-411.8 632.77,-417.8 632.77,-423.8 632.77,-423.8 632.77,-454.4 632.77,-454.4 632.77,-460.4 626.77,-466.4 620.77,-466.4"/>
<text text-anchor="middle" x="567" y="-445.15" font-family="Inter, Helvetica, sans-serif" font-size="11.00" fill="#fafafa">Synology NAS</text>
<text text-anchor="middle" x="567" y="-428.65" font-family="Inter, Helvetica, sans-serif" font-size="11.00" fill="#fafafa">NFS Volumes &amp; LUN</text>
</g>
<!-- private&#45;&gt;syn_nas -->
<!-- pihole -->
<g id="node12" class="node">
<title>pihole</title>
<path fill="#18181b" stroke="#ef4444" stroke-width="1.5" d="M829.27,-325.8C829.27,-325.8 736.73,-325.8 736.73,-325.8 730.73,-325.8 724.73,-319.8 724.73,-313.8 724.73,-313.8 724.73,-299.7 724.73,-299.7 724.73,-293.7 730.73,-287.7 736.73,-287.7 736.73,-287.7 829.27,-287.7 829.27,-287.7 835.27,-287.7 841.27,-293.7 841.27,-299.7 841.27,-299.7 841.27,-313.8 841.27,-313.8 841.27,-319.8 835.27,-325.8 829.27,-325.8"/>
<text text-anchor="middle" x="783" y="-304.55" font-family="Inter, Helvetica, sans-serif" font-size="11.00" fill="#fafafa">Pi&#45;hole &amp; Tailscale</text>
</g>
<!-- private&#45;&gt;pihole -->
<g id="edge9" class="edge">
<title>private&#45;&gt;pihole</title>
<path fill="none" stroke="#3b82f6" stroke-width="2" d="M491.94,-560.48C491.94,-510.99 491.94,-383 491.94,-383 491.94,-383 756.62,-383 756.62,-383 756.62,-383 756.62,-337.02 756.62,-337.02"/>
<polygon fill="#3b82f6" stroke="#3b82f6" stroke-width="2" points="759.43,-337.02 756.63,-329.02 753.83,-337.02 759.43,-337.02"/>
<text text-anchor="middle" x="525.53" y="-388.5" font-family="Inter, Helvetica, sans-serif" font-size="10.00" fill="#a1a1aa"> Routes Traffic </text>
</g>
<!-- azure_kv -->
<g id="node7" class="node">
<title>azure_kv</title>
<path fill="#18181b" stroke="#0ea5e9" stroke-width="1.5" d="M327.65,-458.15C327.65,-458.15 246.35,-458.15 246.35,-458.15 240.35,-458.15 234.35,-452.15 234.35,-446.15 234.35,-446.15 234.35,-432.05 234.35,-432.05 234.35,-426.05 240.35,-420.05 246.35,-420.05 246.35,-420.05 327.65,-420.05 327.65,-420.05 333.65,-420.05 339.65,-426.05 339.65,-432.05 339.65,-432.05 339.65,-446.15 339.65,-446.15 339.65,-452.15 333.65,-458.15 327.65,-458.15"/>
<text text-anchor="middle" x="287" y="-436.9" font-family="Inter, Helvetica, sans-serif" font-size="11.00" fill="#fafafa">Azure Key Vault</text>
</g>
<!-- platform -->
<g id="node15" class="node">
<title>platform</title>
<path fill="#18181b" stroke="#ef4444" stroke-width="1.5" d="M342.65,-201.7C342.65,-201.7 231.35,-201.7 231.35,-201.7 225.35,-201.7 219.35,-195.7 219.35,-189.7 219.35,-189.7 219.35,-159.1 219.35,-159.1 219.35,-153.1 225.35,-147.1 231.35,-147.1 231.35,-147.1 342.65,-147.1 342.65,-147.1 348.65,-147.1 354.65,-153.1 354.65,-159.1 354.65,-159.1 354.65,-189.7 354.65,-189.7 354.65,-195.7 348.65,-201.7 342.65,-201.7"/>
<text text-anchor="middle" x="287" y="-180.45" font-family="Inter, Helvetica, sans-serif" font-size="11.00" fill="#fafafa">Core Services</text>
<text text-anchor="middle" x="287" y="-163.95" font-family="Inter, Helvetica, sans-serif" font-size="11.00" fill="#fafafa">Cert&#45;Manager, Harbor</text>
</g>
<!-- azure_kv&#45;&gt;platform -->
<g id="edge5" class="edge">
<title>azure_kv&#45;&gt;platform</title>
<path fill="none" stroke="#0ea5e9" stroke-width="1.2" stroke-dasharray="5,2" d="M287,-419.64C287,-419.64 287,-211.83 287,-211.83"/>
<polygon fill="#0ea5e9" stroke="#0ea5e9" stroke-width="1.2" points="289.8,-211.83 287,-203.83 284.2,-211.83 289.8,-211.83"/>
<text text-anchor="middle" x="267.12" y="-321.24" font-family="Inter, Helvetica, sans-serif" font-size="10.00" fill="#a1a1aa"> Secrets </text>
</g>
<!-- cloudflare&#45;&gt;pihole -->
<!-- ingress -->
<g id="node16" class="node">
<title>ingress</title>
<path fill="#18181b" stroke="#ef4444" stroke-width="1.5" d="M470.65,-201.7C470.65,-201.7 395.35,-201.7 395.35,-201.7 389.35,-201.7 383.35,-195.7 383.35,-189.7 383.35,-189.7 383.35,-159.1 383.35,-159.1 383.35,-153.1 389.35,-147.1 395.35,-147.1 395.35,-147.1 470.65,-147.1 470.65,-147.1 476.65,-147.1 482.65,-153.1 482.65,-159.1 482.65,-159.1 482.65,-189.7 482.65,-189.7 482.65,-195.7 476.65,-201.7 470.65,-201.7"/>
<text text-anchor="middle" x="433" y="-180.45" font-family="Inter, Helvetica, sans-serif" font-size="11.00" fill="#fafafa">Traefik Ingress</text>
<text text-anchor="middle" x="433" y="-163.95" font-family="Inter, Helvetica, sans-serif" font-size="11.00" fill="#fafafa">Controller</text>
</g>
<!-- cloudflare&#45;&gt;ingress -->
<g id="edge8" class="edge">
<title>cloudflare&#45;&gt;ingress</title>
<path fill="none" stroke="#3b82f6" stroke-width="2" d="M436.47,-411.77C436.47,-411.77 436.47,-213.01 436.47,-213.01"/>
<polygon fill="#3b82f6" stroke="#3b82f6" stroke-width="2" points="439.27,-213.01 436.47,-205.01 433.67,-213.01 439.27,-213.01"/>
<text text-anchor="middle" x="403.47" y="-317.89" font-family="Inter, Helvetica, sans-serif" font-size="10.00" fill="#a1a1aa"> Routes Traffic </text>
</g>
<!-- haproxy -->
<g id="node11" class="node">
<title>haproxy</title>
<path fill="#18181b" stroke="#ef4444" stroke-width="1.5" d="M683.27,-325.8C683.27,-325.8 620.73,-325.8 620.73,-325.8 614.73,-325.8 608.73,-319.8 608.73,-313.8 608.73,-313.8 608.73,-299.7 608.73,-299.7 608.73,-293.7 614.73,-287.7 620.73,-287.7 620.73,-287.7 683.27,-287.7 683.27,-287.7 689.27,-287.7 695.27,-293.7 695.27,-299.7 695.27,-299.7 695.27,-313.8 695.27,-313.8 695.27,-319.8 689.27,-325.8 683.27,-325.8"/>
<text text-anchor="middle" x="652" y="-304.55" font-family="Inter, Helvetica, sans-serif" font-size="11.00" fill="#fafafa">HAProxy x3</text>
</g>
<!-- proxmox&#45;&gt;haproxy -->
<!-- proxmox&#45;&gt;pihole -->
<g id="edge3" class="edge">
<title>proxmox&#45;&gt;pihole</title>
<path fill="none" stroke="#a1a1aa" stroke-width="1.2" stroke-dasharray="5,2" d="M772.58,-411.36C772.58,-411.36 772.58,-335.72 772.58,-335.72"/>
<polygon fill="#a1a1aa" stroke="#a1a1aa" stroke-width="1.2" points="775.38,-335.72 772.58,-327.72 769.78,-335.72 775.38,-335.72"/>
<text text-anchor="middle" x="756.45" y="-379.04" font-family="Inter, Helvetica, sans-serif" font-size="10.00" fill="#a1a1aa"> Hosts </text>
</g>
<!-- syn_nas&#45;&gt;storage -->
<g id="edge6" class="edge">
<title>syn_nas&#45;&gt;storage</title>
<path fill="none" stroke="#0ea5e9" stroke-width="1.2" stroke-dasharray="5,2" d="M560.04,-411.77C560.04,-411.77 560.04,-311.73 560.04,-253.17"/>
<polygon fill="#0ea5e9" stroke="#0ea5e9" stroke-width="1.2" points="562.84,-253.26 560.04,-245.26 557.24,-253.26 562.84,-253.26"/>
<text text-anchor="middle" x="540.91" y="-337.97" font-family="Inter, Helvetica, sans-serif" font-size="10.00" fill="#a1a1aa"> Mounts </text>
</g>
<!-- haproxy&#45;&gt;storage -->
<!-- haproxy&#45;&gt;ingress -->
<g id="edge11" class="edge">
<title>haproxy&#45;&gt;ingress</title>
<path fill="none" stroke="#3b82f6" stroke-width="2" d="M608.59,-307C557.11,-307 478.19,-307 478.19,-307 478.19,-307 478.19,-213.22 478.19,-213.22"/>
<polygon fill="#3b82f6" stroke="#3b82f6" stroke-width="2" points="480.99,-213.22 478.19,-205.22 475.39,-213.22 480.99,-213.22"/>
<text text-anchor="middle" x="463.5" y="-297.5" font-family="Inter, Helvetica, sans-serif" font-size="10.00" fill="#a1a1aa"> Routes Traffic </text>
</g>
<!-- pihole&#45;&gt;haproxy -->
<g id="edge10" class="edge">
<title>pihole&#45;&gt;haproxy</title>
<path fill="none" stroke="#3b82f6" stroke-width="2" d="M724.4,-307C724.4,-307 706.65,-307 706.65,-307"/>
<polygon fill="#3b82f6" stroke="#3b82f6" stroke-width="2" points="706.65,-304.2 698.65,-307 706.65,-309.8 706.65,-304.2"/>
<text text-anchor="middle" x="699.02" y="-297.5" font-family="Inter, Helvetica, sans-serif" font-size="10.00" fill="#a1a1aa"> Routes Traffic </text>
</g>
<!-- home -->
<g id="node23" class="node">
<title>home</title>
<path fill="#18181b" stroke="#ef4444" stroke-width="1.5" d="M971.4,-61.1C971.4,-61.1 864.6,-61.1 864.6,-61.1 858.6,-61.1 852.6,-55.1 852.6,-49.1 852.6,-49.1 852.6,-35 852.6,-35 852.6,-29 858.6,-23 864.6,-23 864.6,-23 971.4,-23 971.4,-23 977.4,-23 983.4,-29 983.4,-35 983.4,-35 983.4,-49.1 983.4,-49.1 983.4,-55.1 977.4,-61.1 971.4,-61.1"/>
<text text-anchor="middle" x="918" y="-39.85" font-family="Inter, Helvetica, sans-serif" font-size="11.00" fill="#fafafa">Home: Assistant, MC</text>
</g>
<!-- pihole&#45;&gt;home -->
<!-- docs -->
<g id="node20" class="node">
<title>docs</title>
<path fill="#18181b" stroke="#ef4444" stroke-width="1.5" d="M500.65,-61.1C500.65,-61.1 365.35,-61.1 365.35,-61.1 359.35,-61.1 353.35,-55.1 353.35,-49.1 353.35,-49.1 353.35,-35 353.35,-35 353.35,-29 359.35,-23 365.35,-23 365.35,-23 500.65,-23 500.65,-23 506.65,-23 512.65,-29 512.65,-35 512.65,-35 512.65,-49.1 512.65,-49.1 512.65,-55.1 506.65,-61.1 500.65,-61.1"/>
<text text-anchor="middle" x="433" y="-39.85" font-family="Inter, Helvetica, sans-serif" font-size="11.00" fill="#fafafa">Docs: Paperless, Karakeep</text>
</g>
<!-- storage&#45;&gt;docs -->
<!-- ingress&#45;&gt;docs -->
<g id="edge12" class="edge">
<title>ingress&#45;&gt;docs</title>
<path fill="none" stroke="#f59e0b" stroke-width="2" d="M433,-146.66C433,-146.66 433,-130.68 433,-113.54"/>
<polygon fill="#f59e0b" stroke="#f59e0b" stroke-width="2" points="435.8,-113.87 433,-105.87 430.2,-113.87 435.8,-113.87"/>
<text text-anchor="middle" x="400" y="-135.6" font-family="Inter, Helvetica, sans-serif" font-size="10.00" fill="#a1a1aa"> Routes Traffic </text>
</g>
<!-- obs -->
<g id="node17" class="node">
<title>obs</title>
<path fill="#18181b" stroke="#ef4444" stroke-width="1.5" d="M839.9,-201.7C839.9,-201.7 706.1,-201.7 706.1,-201.7 700.1,-201.7 694.1,-195.7 694.1,-189.7 694.1,-189.7 694.1,-159.1 694.1,-159.1 694.1,-153.1 700.1,-147.1 706.1,-147.1 706.1,-147.1 839.9,-147.1 839.9,-147.1 845.9,-147.1 851.9,-153.1 851.9,-159.1 851.9,-159.1 851.9,-189.7 851.9,-189.7 851.9,-195.7 845.9,-201.7 839.9,-201.7"/>
<text text-anchor="middle" x="773" y="-180.45" font-family="Inter, Helvetica, sans-serif" font-size="11.00" fill="#fafafa">Observability</text>
<text text-anchor="middle" x="773" y="-163.95" font-family="Inter, Helvetica, sans-serif" font-size="11.00" fill="#fafafa">Prometheus, Grafana, Loki</text>
</g>
<!-- ai_apps -->
<g id="node18" class="node">
<title>ai_apps</title>
<path fill="#18181b" stroke="#ef4444" stroke-width="1.5" d="M162.9,-61.1C162.9,-61.1 35.1,-61.1 35.1,-61.1 29.1,-61.1 23.1,-55.1 23.1,-49.1 23.1,-49.1 23.1,-35 23.1,-35 23.1,-29 29.1,-23 35.1,-23 35.1,-23 162.9,-23 162.9,-23 168.9,-23 174.9,-29 174.9,-35 174.9,-35 174.9,-49.1 174.9,-49.1 174.9,-55.1 168.9,-61.1 162.9,-61.1"/>
<text text-anchor="middle" x="99" y="-39.85" font-family="Inter, Helvetica, sans-serif" font-size="11.00" fill="#fafafa">AI: LiteLLM, Open WebUI</text>
</g>
<!-- media -->
<g id="node19" class="node">
<title>media</title>
<path fill="#18181b" stroke="#ef4444" stroke-width="1.5" d="M312.15,-61.1C312.15,-61.1 215.85,-61.1 215.85,-61.1 209.85,-61.1 203.85,-55.1 203.85,-49.1 203.85,-49.1 203.85,-35 203.85,-35 203.85,-29 209.85,-23 215.85,-23 215.85,-23 312.15,-23 312.15,-23 318.15,-23 324.15,-29 324.15,-35 324.15,-35 324.15,-49.1 324.15,-49.1 324.15,-55.1 318.15,-61.1 312.15,-61.1"/>
<text text-anchor="middle" x="264" y="-39.85" font-family="Inter, Helvetica, sans-serif" font-size="11.00" fill="#fafafa">Media: Jellyfin, *arr</text>
</g>
<!-- utility -->
<g id="node21" class="node">
<title>utility</title>
<path fill="#18181b" stroke="#ef4444" stroke-width="1.5" d="M674.15,-61.1C674.15,-61.1 553.85,-61.1 553.85,-61.1 547.85,-61.1 541.85,-55.1 541.85,-49.1 541.85,-49.1 541.85,-35 541.85,-35 541.85,-29 547.85,-23 553.85,-23 553.85,-23 674.15,-23 674.15,-23 680.15,-23 686.15,-29 686.15,-35 686.15,-35 686.15,-49.1 686.15,-49.1 686.15,-55.1 680.15,-61.1 674.15,-61.1"/>
<text text-anchor="middle" x="614" y="-39.85" font-family="Inter, Helvetica, sans-serif" font-size="11.00" fill="#fafafa">Util: Homepage, Budget</text>
</g>
<!-- dev -->
<g id="node22" class="node">
<title>dev</title>
<path fill="#18181b" stroke="#ef4444" stroke-width="1.5" d="M811.15,-61.1C811.15,-61.1 726.85,-61.1 726.85,-61.1 720.85,-61.1 714.85,-55.1 714.85,-49.1 714.85,-49.1 714.85,-35 714.85,-35 714.85,-29 720.85,-23 726.85,-23 726.85,-23 811.15,-23 811.15,-23 817.15,-23 823.15,-29 823.15,-35 823.15,-35 823.15,-49.1 823.15,-49.1 823.15,-55.1 817.15,-61.1 811.15,-61.1"/>
<text text-anchor="middle" x="769" y="-39.85" font-family="Inter, Helvetica, sans-serif" font-size="11.00" fill="#fafafa">Dev: n8n, Coder</text>
</g>
</g>
</svg>
