<?xml version="1.0" encoding="UTF-8" standalone="no"?>
<!DOCTYPE svg PUBLIC "-//W3C//DTD SVG 1.1//EN"
 "http://www.w3.org/Graphics/SVG/1.1/DTD/svg11.dtd">
<!-- Generated by graphviz version 12.2.1 (0)
 -->
<!-- Title: Homelab Pages: 1 -->
<svg width="1349pt" height="1203pt"
 viewBox="0.00 0.00 1348.80 1203.00" xmlns="http://www.w3.org/2000/svg" xmlns:xlink="http://www.w3.org/1999/xlink">
<g id="graph0" class="graph" transform="scale(1 1) rotate(0) translate(36 1167)">
<title>Homelab</title>
<polygon fill="#1e1e1e" stroke="none" points="-36,36 -36,-1167 1312.8,-1167 1312.8,36 -36,36"/>
<g id="clust1" class="cluster">
<title>cluster_gitops</title>
<path fill="#2a2a2a" stroke="#444444" d="M20,-509C20,-509 443.65,-509 443.65,-509 449.65,-509 455.65,-515 455.65,-521 455.65,-521 455.65,-746 455.65,-746 455.65,-752 449.65,-758 443.65,-758 443.65,-758 20,-758 20,-758 14,-758 8,-752 8,-746 8,-746 8,-521 8,-521 8,-515 14,-509 20,-509"/>
<text text-anchor="middle" x="231.82" y="-740.7" font-family="Inter, Helvetica, sans-serif" font-size="14.00" fill="#e0e0e0">GitOps &amp; IaC (Two&#45;Layer)</text>
</g>
<g id="clust4" class="cluster">
<title>cluster_external</title>
<path fill="#2a2a2a" stroke="#444444" d="M647.4,-874C647.4,-874 797.35,-874 797.35,-874 803.35,-874 809.35,-880 809.35,-886 809.35,-886 809.35,-1111 809.35,-1111 809.35,-1117 803.35,-1123 797.35,-1123 797.35,-1123 647.4,-1123 647.4,-1123 641.4,-1123 635.4,-1117 635.4,-1111 635.4,-1111 635.4,-886 635.4,-886 635.4,-880 641.4,-874 647.4,-874"/>
<text text-anchor="middle" x="722.37" y="-1105.7" font-family="Inter, Helvetica, sans-serif" font-size="14.00" fill="#e0e0e0">External Resources</text>
</g>
<g id="clust6" class="cluster">
<title>cluster_network</title>
<path fill="#2a2a2a" stroke="#444444" d="M40.25,-8C40.25,-8 799.22,-8 799.22,-8 805.22,-8 811.22,-14 811.22,-20 811.22,-20 811.22,-299 811.22,-299 811.22,-305 805.22,-311 799.22,-311 799.22,-311 40.25,-311 40.25,-311 34.25,-311 28.25,-305 28.25,-299 28.25,-299 28.25,-20 28.25,-20 28.25,-14 34.25,-8 40.25,-8"/>
<text text-anchor="middle" x="419.74" y="-293.7" font-family="Inter, Helvetica, sans-serif" font-size="14.00" fill="#e0e0e0">Network Entry &amp; Routing</text>
</g>
<g id="clust7" class="cluster">
<title>cluster_infra</title>
<path fill="#2a2a2a" stroke="#444444" d="M612.9,-509C612.9,-509 1256.8,-509 1256.8,-509 1262.8,-509 1268.8,-515 1268.8,-521 1268.8,-521 1268.8,-854 1268.8,-854 1268.8,-860 1262.8,-866 1256.8,-866 1256.8,-866 612.9,-866 612.9,-866 606.9,-866 600.9,-860 600.9,-854 600.9,-854 600.9,-521 600.9,-521 600.9,-515 606.9,-509 612.9,-509"/>
<text text-anchor="middle" x="934.85" y="-848.7" font-family="Inter, Helvetica, sans-serif" font-size="14.00" fill="#e0e0e0">Infrastructure &amp; Platform</text>
</g>
<g id="clust10" class="cluster">
<title>cluster_workloads</title>
<path fill="#2a2a2a" stroke="#444444" d="M1024.35,-36C1024.35,-36 1247.8,-36 1247.8,-36 1253.8,-36 1259.8,-42 1259.8,-48 1259.8,-48 1259.8,-489 1259.8,-489 1259.8,-495 1253.8,-501 1247.8,-501 1247.8,-501 1024.35,-501 1024.35,-501 1018.35,-501 1012.35,-495 1012.35,-489 1012.35,-489 1012.35,-48 1012.35,-48 1012.35,-42 1018.35,-36 1024.35,-36"/>
<text text-anchor="middle" x="1136.07" y="-483.7" font-family="Inter, Helvetica, sans-serif" font-size="14.00" fill="#e0e0e0">Production Workloads</text>
</g>
<!-- github -->
<g id="node1" class="node">
<title>github</title>
<path fill="#44337a" stroke="#553c9a" d="M152.95,-709C152.95,-709 56.5,-709 56.5,-709 50.5,-709 44.5,-703 44.5,-697 44.5,-697 44.5,-649 44.5,-649 44.5,-643 50.5,-637 56.5,-637 56.5,-637 152.95,-637 152.95,-637 158.95,-637 164.95,-643 164.95,-649 164.95,-649 164.95,-697 164.95,-697 164.95,-703 158.95,-709 152.95,-709"/>
<text text-anchor="middle" x="104.72" y="-679.6" font-family="Inter, Helvetica, sans-serif" font-size="12.00" fill="#ffffff">GitHub Repo</text>
<text text-anchor="middle" x="104.72" y="-661.6" font-family="Inter, Helvetica, sans-serif" font-size="12.00" fill="#ffffff">Base/Overlays</text>
</g>
<!-- opentofu -->
<g id="node3" class="node">
<title>opentofu</title>
<path fill="#44337a" stroke="#553c9a" d="M416.52,-709C416.52,-709 309.57,-709 309.57,-709 303.57,-709 297.57,-703 297.57,-697 297.57,-697 297.57,-649 297.57,-649 297.57,-643 303.57,-637 309.57,-637 309.57,-637 416.52,-637 416.52,-637 422.52,-637 428.52,-643 428.52,-649 428.52,-649 428.52,-697 428.52,-697 428.52,-703 422.52,-709 416.52,-709"/>
<text text-anchor="middle" x="363.05" y="-679.6" font-family="Inter, Helvetica, sans-serif" font-size="12.00" fill="#ffffff">OpenTofu</text>
<text text-anchor="middle" x="363.05" y="-661.6" font-family="Inter, Helvetica, sans-serif" font-size="12.00" fill="#ffffff">VM Provisioning</text>
</g>
<!-- github&#45;&gt;opentofu -->
<!-- nixos -->
<g id="node2" class="node">
<title>nixos</title>
<path fill="#44337a" stroke="#553c9a" d="M169.45,-601C169.45,-601 40,-601 40,-601 34,-601 28,-595 28,-589 28,-589 28,-541 28,-541 28,-535 34,-529 40,-529 40,-529 169.45,-529 169.45,-529 175.45,-529 181.45,-535 181.45,-541 181.45,-541 181.45,-589 181.45,-589 181.45,-595 175.45,-601 169.45,-601"/>
<text text-anchor="middle" x="104.72" y="-571.6" font-family="Inter, Helvetica, sans-serif" font-size="12.00" fill="#ffffff">NixOS + sops&#45;nix</text>
<text text-anchor="middle" x="104.72" y="-553.6" font-family="Inter, Helvetica, sans-serif" font-size="12.00" fill="#ffffff">OS Config &amp; Secrets</text>
</g>
<!-- k3s -->
<g id="node14" class="node">
<title>k3s</title>
<path fill="#22543d" stroke="#276749" d="M811.85,-601C811.85,-601 632.9,-601 632.9,-601 626.9,-601 620.9,-595 620.9,-589 620.9,-589 620.9,-541 620.9,-541 620.9,-535 626.9,-529 632.9,-529 632.9,-529 811.85,-529 811.85,-529 817.85,-529 823.85,-535 823.85,-541 823.85,-541 823.85,-589 823.85,-589 823.85,-595 817.85,-601 811.85,-601"/>
<text text-anchor="middle" x="722.37" y="-571.6" font-family="Inter, Helvetica, sans-serif" font-size="12.00" fill="#ffffff">K3s Kubernetes</text>
<text text-anchor="middle" x="722.37" y="-553.6" font-family="Inter, Helvetica, sans-serif" font-size="12.00" fill="#ffffff">Control Planes + GPU Worker</text>
</g>
<!-- nixos&#45;&gt;k3s -->
<g id="edge10" class="edge">
<title>nixos&#45;&gt;k3s</title>
<path fill="none" stroke="#a0aec0" stroke-width="1.5" stroke-dasharray="5,2" d="M181.93,-535.92C232.81,-516.5 290.45,-494.5 290.45,-494.5 290.45,-494.5 455.65,-494.5 455.65,-494.5 455.65,-494.5 537.82,-516.3 610.77,-535.66"/>
<polygon fill="#a0aec0" stroke="#a0aec0" stroke-width="1.5" points="609.89,-538.32 618.34,-537.66 611.33,-532.91 609.89,-538.32"/>
<text text-anchor="middle" x="363.05" y="-500.55" font-family="Inter, Helvetica, sans-serif" font-size="11.00" fill="#aaaaaa"> OS Config</text>
</g>
<!-- proxmox -->
<g id="node13" class="node">
<title>proxmox</title>
<path fill="#22543d" stroke="#276749" d="M792.35,-709C792.35,-709 652.4,-709 652.4,-709 646.4,-709 640.4,-703 640.4,-697 640.4,-697 640.4,-649 640.4,-649 640.4,-643 646.4,-637 652.4,-637 652.4,-637 792.35,-637 792.35,-637 798.35,-637 804.35,-643 804.35,-649 804.35,-649 804.35,-697 804.35,-697 804.35,-703 798.35,-709 792.35,-709"/>
<text text-anchor="middle" x="722.37" y="-679.6" font-family="Inter, Helvetica, sans-serif" font-size="12.00" fill="#ffffff">Proxmox VE</text>
<text text-anchor="middle" x="722.37" y="-661.6" font-family="Inter, Helvetica, sans-serif" font-size="12.00" fill="#ffffff">2 Mini PCs, 1 GPU PC</text>
</g>
<!-- opentofu&#45;&gt;proxmox -->
<g id="edge8" class="edge">
<title>opentofu&#45;&gt;proxmox</title>
<path fill="none" stroke="#a0aec0" stroke-width="1.5" stroke-dasharray="5,2" d="M428.76,-673C485.08,-673 567.32,-673 630.28,-673"/>
<polygon fill="#a0aec0" stroke="#a0aec0" stroke-width="1.5" points="629.94,-675.8 637.94,-673 629.94,-670.2 629.94,-675.8"/>
<text text-anchor="middle" x="528.27" y="-679.05" font-family="Inter, Helvetica, sans-serif" font-size="11.00" fill="#aaaaaa"> Provisions VMs</text>
</g>
<!-- fluxcd -->
<g id="node4" class="node">
<title>fluxcd</title>
<path fill="#44337a" stroke="#553c9a" d="M423.65,-601C423.65,-601 302.45,-601 302.45,-601 296.45,-601 290.45,-595 290.45,-589 290.45,-589 290.45,-541 290.45,-541 290.45,-535 296.45,-529 302.45,-529 302.45,-529 423.65,-529 423.65,-529 429.65,-529 435.65,-535 435.65,-541 435.65,-541 435.65,-589 435.65,-589 435.65,-595 429.65,-601 423.65,-601"/>
<text text-anchor="middle" x="363.05" y="-571.6" font-family="Inter, Helvetica, sans-serif" font-size="12.00" fill="#ffffff">FluxCD</text>
<text text-anchor="middle" x="363.05" y="-553.6" font-family="Inter, Helvetica, sans-serif" font-size="12.00" fill="#ffffff">Continuous Recon.</text>
</g>
<!-- fluxcd&#45;&gt;k3s -->
<g id="edge9" class="edge">
<title>fluxcd&#45;&gt;k3s</title>
<path fill="none" stroke="#a0aec0" stroke-width="1.5" stroke-dasharray="5,2" d="M435.93,-565C485.92,-565 553.52,-565 610.38,-565"/>
<polygon fill="#a0aec0" stroke="#a0aec0" stroke-width="1.5" points="610.24,-567.8 618.24,-565 610.24,-562.2 610.24,-567.8"/>
<text text-anchor="middle" x="528.27" y="-571.05" font-family="Inter, Helvetica, sans-serif" font-size="11.00" fill="#aaaaaa"> Reconciles K8s</text>
</g>
<!-- azure_kv -->
<g id="node5" class="node">
<title>azure_kv</title>
<path fill="#333333" stroke="#555555" d="M777.35,-966C777.35,-966 667.4,-966 667.4,-966 661.4,-966 655.4,-960 655.4,-954 655.4,-954 655.4,-906 655.4,-906 655.4,-900 661.4,-894 667.4,-894 667.4,-894 777.35,-894 777.35,-894 783.35,-894 789.35,-900 789.35,-906 789.35,-906 789.35,-954 789.35,-954 789.35,-960 783.35,-966 777.35,-966"/>
<text text-anchor="middle" x="722.37" y="-936.6" font-family="Inter, Helvetica, sans-serif" font-size="12.00" fill="#ffffff">Azure Key Vault</text>
<text text-anchor="middle" x="722.37" y="-918.6" font-family="Inter, Helvetica, sans-serif" font-size="12.00" fill="#ffffff">Secrets Backend</text>
</g>
<!-- platform_svcs -->
<g id="node15" class="node">
<title>platform_svcs</title>
<path fill="#22543d" stroke="#276749" d="M1228.55,-601C1228.55,-601 1043.6,-601 1043.6,-601 1037.6,-601 1031.6,-595 1031.6,-589 1031.6,-589 1031.6,-541 1031.6,-541 1031.6,-535 1037.6,-529 1043.6,-529 1043.6,-529 1228.55,-529 1228.55,-529 1234.55,-529 1240.55,-535 1240.55,-541 1240.55,-541 1240.55,-589 1240.55,-589 1240.55,-595 1234.55,-601 1228.55,-601"/>
<text text-anchor="middle" x="1136.07" y="-571.6" font-family="Inter, Helvetica, sans-serif" font-size="12.00" fill="#ffffff">Core Platform</text>
<text text-anchor="middle" x="1136.07" y="-553.6" font-family="Inter, Helvetica, sans-serif" font-size="12.00" fill="#ffffff">Cert Manager, Harbor, Rancher</text>
</g>
<!-- azure_kv&#45;&gt;platform_svcs -->
<g id="edge11" class="edge">
<title>azure_kv&#45;&gt;platform_svcs</title>
<path fill="none" stroke="#63b3ed" stroke-width="1.5" stroke-dasharray="5,2" d="M789.83,-893.62C808.52,-883.39 823.85,-875 823.85,-875 823.85,-875 877.85,-770.5 877.85,-770.5 877.85,-770.5 1012.35,-619 1012.35,-619 1012.35,-619 1025.5,-613.22 1043.19,-605.43"/>
<polygon fill="#63b3ed" stroke="#63b3ed" stroke-width="1.5" points="1043.92,-608.17 1050.12,-602.38 1041.67,-603.04 1043.92,-608.17"/>
<text text-anchor="middle" x="923.6" y="-776.55" font-family="Inter, Helvetica, sans-serif" font-size="11.00" fill="#63b3ed"> Secrets Provider</text>
</g>
<!-- synology_nas -->
<g id="node6" class="node">
<title>synology_nas</title>
<path fill="#333333" stroke="#555555" d="M770.97,-1074C770.97,-1074 673.77,-1074 673.77,-1074 667.77,-1074 661.77,-1068 661.77,-1062 661.77,-1062 661.77,-1014 661.77,-1014 661.77,-1008 667.77,-1002 673.77,-1002 673.77,-1002 770.97,-1002 770.97,-1002 776.97,-1002 782.97,-1008 782.97,-1014 782.97,-1014 782.97,-1062 782.97,-1062 782.97,-1068 776.97,-1074 770.97,-1074"/>
<text text-anchor="middle" x="722.37" y="-1044.6" font-family="Inter, Helvetica, sans-serif" font-size="12.00" fill="#ffffff">Synology NAS</text>
<text text-anchor="middle" x="722.37" y="-1026.6" font-family="Inter, Helvetica, sans-serif" font-size="12.00" fill="#ffffff">NFS Volumes</text>
</g>
<!-- data_storage -->
<g id="node16" class="node">
<title>data_storage</title>
<path fill="#22543d" stroke="#276749" d="M1227.05,-709C1227.05,-709 1045.1,-709 1045.1,-709 1039.1,-709 1033.1,-703 1033.1,-697 1033.1,-697 1033.1,-649 1033.1,-649 1033.1,-643 1039.1,-637 1045.1,-637 1045.1,-637 1227.05,-637 1227.05,-637 1233.05,-637 1239.05,-643 1239.05,-649 1239.05,-649 1239.05,-697 1239.05,-697 1239.05,-703 1233.05,-709 1227.05,-709"/>
<text text-anchor="middle" x="1136.07" y="-679.6" font-family="Inter, Helvetica, sans-serif" font-size="12.00" fill="#ffffff">Data &amp; Storage</text>
<text text-anchor="middle" x="1136.07" y="-661.6" font-family="Inter, Helvetica, sans-serif" font-size="12.00" fill="#ffffff">CloudNativePG, Synology CSI</text>
</g>
<!-- synology_nas&#45;&gt;data_storage -->
<g id="edge12" class="edge">
<title>synology_nas&#45;&gt;data_storage</title>
<path fill="none" stroke="#63b3ed" stroke-width="1.5" stroke-dasharray="5,2" d="M783.27,-1005.81C804.79,-994.24 823.85,-984 823.85,-984 823.85,-984 969.35,-792 969.35,-792 969.35,-792 1012.35,-727 1012.35,-727 1012.35,-727 1025.5,-721.22 1043.19,-713.43"/>
<polygon fill="#63b3ed" stroke="#63b3ed" stroke-width="1.5" points="1043.92,-716.17 1050.12,-710.38 1041.67,-711.04 1043.92,-716.17"/>
<text text-anchor="middle" x="923.6" y="-916.89" font-family="Inter, Helvetica, sans-serif" font-size="11.00" fill="#63b3ed"> Mounts PVs</text>
</g>
<!-- public_users -->
<g id="node7" class="node">
<title>public_users</title>
<path fill="#1a365d" stroke="#2a4365" d="M148.45,-82C148.45,-82 61,-82 61,-82 55,-82 49,-76 49,-70 49,-70 49,-40 49,-40 49,-34 55,-28 61,-28 61,-28 148.45,-28 148.45,-28 154.45,-28 160.45,-34 160.45,-40 160.45,-40 160.45,-70 160.45,-70 160.45,-76 154.45,-82 148.45,-82"/>
<text text-anchor="middle" x="104.72" y="-52.6" font-family="Inter, Helvetica, sans-serif" font-size="12.00" fill="#ffffff">Public Users</text>
</g>
<!-- cloudflare -->
<g id="node10" class="node">
<title>cloudflare</title>
<path fill="#1a365d" stroke="#2a4365" d="M422.52,-100C422.52,-100 303.57,-100 303.57,-100 297.57,-100 291.57,-94 291.57,-88 291.57,-88 291.57,-40 291.57,-40 291.57,-34 297.57,-28 303.57,-28 303.57,-28 422.52,-28 422.52,-28 428.52,-28 434.52,-34 434.52,-40 434.52,-40 434.52,-88 434.52,-88 434.52,-94 428.52,-100 422.52,-100"/>
<text text-anchor="middle" x="363.05" y="-70.6" font-family="Inter, Helvetica, sans-serif" font-size="12.00" fill="#ffffff">Cloudflare</text>
<text text-anchor="middle" x="363.05" y="-52.6" font-family="Inter, Helvetica, sans-serif" font-size="12.00" fill="#ffffff">(DNS + Zero Trust)</text>
</g>
<!-- public_users&#45;&gt;cloudflare -->
<g id="edge2" class="edge">
<title>public_users&#45;&gt;cloudflare</title>
<path fill="none" stroke="#888888" stroke-width="1.5" d="M160.71,-56.93C195.9,-58.17 242.15,-59.79 281.44,-61.17"/>
<polygon fill="#888888" stroke="#888888" stroke-width="1.5" points="281.17,-63.96 289.27,-61.44 281.37,-58.37 281.17,-63.96"/>
<text text-anchor="middle" x="201.2" y="-48.6" font-family="Inter, Helvetica, sans-serif" font-size="11.00" fill="#aaaaaa"> HTTPS</text>
</g>
<!-- lan_users -->
<g id="node8" class="node">
<title>lan_users</title>
<path fill="#1a365d" stroke="#2a4365" d="M143.57,-172C143.57,-172 65.87,-172 65.87,-172 59.87,-172 53.87,-166 53.87,-160 53.87,-160 53.87,-130 53.87,-130 53.87,-124 59.87,-118 65.87,-118 65.87,-118 143.57,-118 143.57,-118 149.57,-118 155.57,-124 155.57,-130 155.57,-130 155.57,-160 155.57,-160 155.57,-166 149.57,-172 143.57,-172"/>
<text text-anchor="middle" x="104.72" y="-142.6" font-family="Inter, Helvetica, sans-serif" font-size="12.00" fill="#ffffff">LAN Users</text>
</g>
<!-- haproxy -->
<g id="node11" class="node">
<title>haproxy</title>
<path fill="#1a365d" stroke="#2a4365" d="M418.4,-208C418.4,-208 307.7,-208 307.7,-208 301.7,-208 295.7,-202 295.7,-196 295.7,-196 295.7,-148 295.7,-148 295.7,-142 301.7,-136 307.7,-136 307.7,-136 418.4,-136 418.4,-136 424.4,-136 430.4,-142 430.4,-148 430.4,-148 430.4,-196 430.4,-196 430.4,-202 424.4,-208 418.4,-208"/>
<text text-anchor="middle" x="363.05" y="-178.6" font-family="Inter, Helvetica, sans-serif" font-size="12.00" fill="#ffffff">HAProxy (3 VMs)</text>
<text text-anchor="middle" x="363.05" y="-160.6" font-family="Inter, Helvetica, sans-serif" font-size="12.00" fill="#ffffff">L4 LB + SSL</text>
</g>
<!-- lan_users&#45;&gt;haproxy -->
<g id="edge3" class="edge">
<title>lan_users&#45;&gt;haproxy</title>
<path fill="none" stroke="#888888" stroke-width="1.5" d="M156.06,-150.3C192.83,-154.18 243.36,-159.5 285.17,-163.9"/>
<polygon fill="#888888" stroke="#888888" stroke-width="1.5" points="284.81,-166.68 293.06,-164.73 285.4,-161.11 284.81,-166.68"/>
<text text-anchor="middle" x="193.99" y="-146.65" font-family="Inter, Helvetica, sans-serif" font-size="11.00" fill="#aaaaaa"> Local LAN</text>
</g>
<!-- tailnet_users -->
<g id="node9" class="node">
<title>tailnet_users</title>
<path fill="#1a365d" stroke="#2a4365" d="M149.2,-262C149.2,-262 60.25,-262 60.25,-262 54.25,-262 48.25,-256 48.25,-250 48.25,-250 48.25,-220 48.25,-220 48.25,-214 54.25,-208 60.25,-208 60.25,-208 149.2,-208 149.2,-208 155.2,-208 161.2,-214 161.2,-220 161.2,-220 161.2,-250 161.2,-250 161.2,-256 155.2,-262 149.2,-262"/>
<text text-anchor="middle" x="104.72" y="-232.6" font-family="Inter, Helvetica, sans-serif" font-size="12.00" fill="#ffffff">Tailnet Users</text>
</g>
<!-- tailnet_users&#45;&gt;haproxy -->
<g id="edge4" class="edge">
<title>tailnet_users&#45;&gt;haproxy</title>
<path fill="none" stroke="#888888" stroke-width="1.5" d="M161.66,-221.25C197.92,-212.34 245.63,-200.61 285.4,-190.84"/>
<polygon fill="#888888" stroke="#888888" stroke-width="1.5" points="286.02,-193.57 293.12,-188.94 284.68,-188.13 286.02,-193.57"/>
<text text-anchor="middle" x="201.78" y="-195.6" font-family="Inter, Helvetica, sans-serif" font-size="11.00" fill="#aaaaaa"> Tailscale</text>
</g>
<!-- traefik -->
<g id="node12" class="node">
<title>traefik</title>
<path fill="#1a365d" stroke="#2a4365" d="M779.22,-128C779.22,-128 665.52,-128 665.52,-128 659.52,-128 653.52,-122 653.52,-116 653.52,-116 653.52,-68 653.52,-68 653.52,-62 659.52,-56 665.52,-56 665.52,-56 779.22,-56 779.22,-56 785.22,-56 791.22,-62 791.22,-68 791.22,-68 791.22,-116 791.22,-116 791.22,-122 785.22,-128 779.22,-128"/>
<text text-anchor="middle" x="722.37" y="-98.6" font-family="Inter, Helvetica, sans-serif" font-size="12.00" fill="#ffffff">Traefik</text>
<text text-anchor="middle" x="722.37" y="-80.6" font-family="Inter, Helvetica, sans-serif" font-size="12.00" fill="#ffffff">Ingress Controller</text>
</g>
<!-- cloudflare&#45;&gt;traefik -->
<g id="edge5" class="edge">
<title>cloudflare&#45;&gt;traefik</title>
<path fill="none" stroke="#888888" stroke-width="1.5" d="M434.65,-69.53C494.66,-74.23 580.73,-80.98 642.9,-85.85"/>
<polygon fill="#888888" stroke="#888888" stroke-width="1.5" points="642.59,-88.63 650.79,-86.47 643.03,-83.05 642.59,-88.63"/>
<text text-anchor="middle" x="521.15" y="-67.24" font-family="Inter, Helvetica, sans-serif" font-size="11.00" fill="#aaaaaa"> Tunnel</text>
</g>
<!-- haproxy&#45;&gt;traefik -->
<g id="edge6" class="edge">
<title>haproxy&#45;&gt;traefik</title>
<path fill="none" stroke="#888888" stroke-width="1.5" d="M430.84,-157.05C491.05,-143.57 579.61,-123.74 643.12,-109.52"/>
<polygon fill="#888888" stroke="#888888" stroke-width="1.5" points="643.68,-112.26 650.87,-107.78 642.45,-106.8 643.68,-112.26"/>
<text text-anchor="middle" x="517.48" y="-122.83" font-family="Inter, Helvetica, sans-serif" font-size="11.00" fill="#aaaaaa"> Internal</text>
</g>
<!-- ai_apps -->
<g id="node18" class="node">
<title>ai_apps</title>
<path fill="#742a2a" stroke="#9b2c2c" d="M1222.17,-128C1222.17,-128 1049.97,-128 1049.97,-128 1043.97,-128 1037.97,-122 1037.97,-116 1037.97,-116 1037.97,-68 1037.97,-68 1037.97,-62 1043.97,-56 1049.97,-56 1049.97,-56 1222.17,-56 1222.17,-56 1228.17,-56 1234.17,-62 1234.17,-68 1234.17,-68 1234.17,-116 1234.17,-116 1234.17,-122 1228.17,-128 1222.17,-128"/>
<text text-anchor="middle" x="1136.07" y="-98.6" font-family="Inter, Helvetica, sans-serif" font-size="12.00" fill="#ffffff">AI &amp; LLM Stack</text>
<text text-anchor="middle" x="1136.07" y="-80.6" font-family="Inter, Helvetica, sans-serif" font-size="12.00" fill="#ffffff">vLLM, LiteLLM, Open WebUI</text>
</g>
<!-- traefik&#45;&gt;ai_apps -->
<g id="edge13" class="edge">
<title>traefik&#45;&gt;ai_apps</title>
<path fill="none" stroke="#f6ad55" stroke-width="1.5" d="M791.36,-92C848.59,-92 932.12,-92 1002.51,-92"/>
<polygon fill="#f6ad55" stroke="#f6ad55" stroke-width="1.5" points="1002.08,-94.8 1010.08,-92 1002.08,-89.2 1002.08,-94.8"/>
<text text-anchor="middle" x="923.6" y="-98.05" font-family="Inter, Helvetica, sans-serif" font-size="11.00" fill="#f6ad55"> Routes App Traffic</text>
</g>
<!-- proxmox&#45;&gt;platform_svcs -->
<!-- k3s&#45;&gt;ai_apps -->
<!-- observability -->
<g id="node17" class="node">
<title>observability</title>
<path fill="#22543d" stroke="#276749" d="M1236.8,-817C1236.8,-817 1035.35,-817 1035.35,-817 1029.35,-817 1023.35,-811 1023.35,-805 1023.35,-805 1023.35,-757 1023.35,-757 1023.35,-751 1029.35,-745 1035.35,-745 1035.35,-745 1236.8,-745 1236.8,-745 1242.8,-745 1248.8,-751 1248.8,-757 1248.8,-757 1248.8,-805 1248.8,-805 1248.8,-811 1242.8,-817 1236.8,-817"/>
<text text-anchor="middle" x="1136.07" y="-787.6" font-family="Inter, Helvetica, sans-serif" font-size="12.00" fill="#ffffff">Observability</text>
<text text-anchor="middle" x="1136.07" y="-769.6" font-family="Inter, Helvetica, sans-serif" font-size="12.00" fill="#ffffff">Prometheus, Grafana, Loki, Velero</text>
</g>
<!-- media_apps -->
<g id="node19" class="node">
<title>media_apps</title>
<path fill="#742a2a" stroke="#9b2c2c" d="M1227.8,-236C1227.8,-236 1044.35,-236 1044.35,-236 1038.35,-236 1032.35,-230 1032.35,-224 1032.35,-224 1032.35,-176 1032.35,-176 1032.35,-170 1038.35,-164 1044.35,-164 1044.35,-164 1227.8,-164 1227.8,-164 1233.8,-164 1239.8,-170 1239.8,-176 1239.8,-176 1239.8,-224 1239.8,-224 1239.8,-230 1233.8,-236 1227.8,-236"/>
<text text-anchor="middle" x="1136.07" y="-206.6" font-family="Inter, Helvetica, sans-serif" font-size="12.00" fill="#ffffff">Media &amp; Docs</text>
<text text-anchor="middle" x="1136.07" y="-188.6" font-family="Inter, Helvetica, sans-serif" font-size="12.00" fill="#ffffff">Jellyfin, *arr, Immich, Paperless</text>
</g>
<!-- auto_apps -->
<g id="node20" class="node">
<title>auto_apps</title>
<path fill="#742a2a" stroke="#9b2c2c" d="M1207.55,-344C1207.55,-344 1064.6,-344 1064.6,-344 1058.6,-344 1052.6,-338 1052.6,-332 1052.6,-332 1052.6,-284 1052.6,-284 1052.6,-278 1058.6,-272 1064.6,-272 1064.6,-272 1207.55,-272 1207.55,-272 1213.55,-272 1219.55,-278 1219.55,-284 1219.55,-284 1219.55,-332 1219.55,-332 1219.55,-338 1213.55,-344 1207.55,-344"/>
<text text-anchor="middle" x="1136.07" y="-314.6" font-family="Inter, Helvetica, sans-serif" font-size="12.00" fill="#ffffff">Dev &amp; Auto</text>
<text text-anchor="middle" x="1136.07" y="-296.6" font-family="Inter, Helvetica, sans-serif" font-size="12.00" fill="#ffffff">n8n, OpenCode, Coder</text>
</g>
<!-- utility_apps -->
<g id="node21" class="node">
<title>utility_apps</title>
<path fill="#742a2a" stroke="#9b2c2c" d="M1220.3,-452C1220.3,-452 1051.85,-452 1051.85,-452 1045.85,-452 1039.85,-446 1039.85,-440 1039.85,-440 1039.85,-392 1039.85,-392 1039.85,-386 1045.85,-380 1051.85,-380 1051.85,-380 1220.3,-380 1220.3,-380 1226.3,-380 1232.3,-386 1232.3,-392 1232.3,-392 1232.3,-440 1232.3,-440 1232.3,-446 1226.3,-452 1220.3,-452"/>
<text text-anchor="middle" x="1136.07" y="-422.6" font-family="Inter, Helvetica, sans-serif" font-size="12.00" fill="#ffffff">Utility &amp; Home</text>
<text text-anchor="middle" x="1136.07" y="-404.6" font-family="Inter, Helvetica, sans-serif" font-size="12.00" fill="#ffffff">Homepage, Home Assistant</text>
</g>
</g>
</svg>
