<?xml version="1.0" encoding="UTF-8" standalone="no"?>
<!DOCTYPE svg PUBLIC "-//W3C//DTD SVG 1.1//EN"
 "http://www.w3.org/Graphics/SVG/1.1/DTD/svg11.dtd">
<!-- Generated by graphviz version 12.2.1 (0)
 -->
<!-- Title: Homelab_Pro Pages: 1 -->
<svg width="1190pt" height="605pt"
 viewBox="0.00 0.00 1190.00 604.65" xmlns="http://www.w3.org/2000/svg" xmlns:xlink="http://www.w3.org/1999/xlink">
<g id="graph0" class="graph" transform="scale(1 1) rotate(0) translate(36 568.65)">
<title>Homelab_Pro</title>
<polygon fill="#09090b" stroke="none" points="-36,36 -36,-568.65 1154,-568.65 1154,36 -36,36"/>
<g id="clust1" class="cluster">
<title>cluster_gitops</title>
<path fill="#111111" stroke="#7c3aed" d="M376,-413.3C376,-413.3 897,-413.3 897,-413.3 903,-413.3 909,-419.3 909,-425.3 909,-425.3 909,-512.65 909,-512.65 909,-518.65 903,-524.65 897,-524.65 897,-524.65 376,-524.65 376,-524.65 370,-524.65 364,-518.65 364,-512.65 364,-512.65 364,-425.3 364,-425.3 364,-419.3 370,-413.3 376,-413.3"/>
<text text-anchor="middle" x="636.5" y="-508.3" font-family="Inter, Helvetica, sans-serif" font-size="13.00" fill="#a78bfa">GITOPS &amp; IaC</text>
</g>
<g id="clust2" class="cluster">
<title>cluster_external</title>
<path fill="#111111" stroke="#0ea5e9" d="M326,-272.7C326,-272.7 565,-272.7 565,-272.7 571,-272.7 577,-278.7 577,-284.7 577,-284.7 577,-372.05 577,-372.05 577,-378.05 571,-384.05 565,-384.05 565,-384.05 326,-384.05 326,-384.05 320,-384.05 314,-378.05 314,-372.05 314,-372.05 314,-284.7 314,-284.7 314,-278.7 320,-272.7 326,-272.7"/>
<text text-anchor="middle" x="445.5" y="-367.7" font-family="Inter, Helvetica, sans-serif" font-size="13.00" fill="#7dd3fc">EXTERNAL RESOURCES</text>
</g>
<g id="clust3" class="cluster">
<title>cluster_network</title>
<path fill="#111111" stroke="#3b82f6" d="M20,-132.1C20,-132.1 264,-132.1 264,-132.1 270,-132.1 276,-138.1 276,-144.1 276,-144.1 276,-231.45 276,-231.45 276,-237.45 270,-243.45 264,-243.45 264,-243.45 20,-243.45 20,-243.45 14,-243.45 8,-237.45 8,-231.45 8,-231.45 8,-144.1 8,-144.1 8,-138.1 14,-132.1 20,-132.1"/>
<text text-anchor="middle" x="142" y="-227.1" font-family="Inter, Helvetica, sans-serif" font-size="13.00" fill="#93c5fd">NETWORK ENTRY</text>
</g>
<g id="clust5" class="cluster">
<title>cluster_infra</title>
<path fill="#111111" stroke="#10b981" d="M296,-132.1C296,-132.1 1090,-132.1 1090,-132.1 1096,-132.1 1102,-138.1 1102,-144.1 1102,-144.1 1102,-231.45 1102,-231.45 1102,-237.45 1096,-243.45 1090,-243.45 1090,-243.45 296,-243.45 296,-243.45 290,-243.45 284,-237.45 284,-231.45 284,-231.45 284,-144.1 284,-144.1 284,-138.1 290,-132.1 296,-132.1"/>
<text text-anchor="middle" x="693" y="-227.1" font-family="Inter, Helvetica, sans-serif" font-size="13.00" fill="#6ee7b7">INFRASTRUCTURE &amp; PLATFORM</text>
</g>
<g id="clust8" class="cluster">
<title>cluster_workloads</title>
<path fill="#111111" stroke="#ef4444" d="M132,-8C132,-8 1098,-8 1098,-8 1104,-8 1110,-14 1110,-20 1110,-20 1110,-90.85 1110,-90.85 1110,-96.85 1104,-102.85 1098,-102.85 1098,-102.85 132,-102.85 132,-102.85 126,-102.85 120,-96.85 120,-90.85 120,-90.85 120,-20 120,-20 120,-14 126,-8 132,-8"/>
<text text-anchor="middle" x="615" y="-86.5" font-family="Inter, Helvetica, sans-serif" font-size="13.00" fill="#fca5a1">PRODUCTION WORKLOADS</text>
</g>
<!-- github -->
<g id="node1" class="node">
<title>github</title>
<path fill="#18181b" stroke="#7c3aed" stroke-width="1.5" d="M492.77,-482.9C492.77,-482.9 391.23,-482.9 391.23,-482.9 385.23,-482.9 379.23,-476.9 379.23,-470.9 379.23,-470.9 379.23,-440.3 379.23,-440.3 379.23,-434.3 385.23,-428.3 391.23,-428.3 391.23,-428.3 492.77,-428.3 492.77,-428.3 498.77,-428.3 504.77,-434.3 504.77,-440.3 504.77,-440.3 504.77,-470.9 504.77,-470.9 504.77,-476.9 498.77,-482.9 492.77,-482.9"/>
<text text-anchor="middle" x="442" y="-461.65" font-family="Inter, Helvetica, sans-serif" font-size="11.00" fill="#fafafa">GitHub Repo</text>
<text text-anchor="middle" x="442" y="-445.15" font-family="Inter, Helvetica, sans-serif" font-size="11.00" fill="#fafafa">Flux + Tofu Sources</text>
</g>
<!-- azure_kv -->
<g id="node5" class="node">
<title>azure_kv</title>
<path fill="#18181b" stroke="#0ea5e9" stroke-width="1.5" d="M422.65,-342.3C422.65,-342.3 341.35,-342.3 341.35,-342.3 335.35,-342.3 329.35,-336.3 329.35,-330.3 329.35,-330.3 329.35,-299.7 329.35,-299.7 329.35,-293.7 335.35,-287.7 341.35,-287.7 341.35,-287.7 422.65,-287.7 422.65,-287.7 428.65,-287.7 434.65,-293.7 434.65,-299.7 434.65,-299.7 434.65,-330.3 434.65,-330.3 434.65,-336.3 428.65,-342.3 422.65,-342.3"/>
<text text-anchor="middle" x="382" y="-321.05" font-family="Inter, Helvetica, sans-serif" font-size="11.00" fill="#fafafa">Azure Key Vault</text>
<text text-anchor="middle" x="382" y="-304.55" font-family="Inter, Helvetica, sans-serif" font-size="11.00" fill="#fafafa">Secrets</text>
</g>
<!-- github&#45;&gt;azure_kv -->
<g id="edge11" class="edge">
<title>github&#45;&gt;azure_kv</title>
<path fill="none" stroke="#52525b" stroke-width="1.2" d="M406.94,-427.82C406.94,-427.82 406.94,-352.54 406.94,-352.54"/>
<polygon fill="#52525b" stroke="#52525b" stroke-width="1.2" points="409.74,-352.54 406.94,-344.54 404.14,-352.54 409.74,-352.54"/>
</g>
<!-- nixos -->
<g id="node2" class="node">
<title>nixos</title>
<path fill="#18181b" stroke="#7c3aed" stroke-width="1.5" d="M600.52,-482.9C600.52,-482.9 545.48,-482.9 545.48,-482.9 539.48,-482.9 533.48,-476.9 533.48,-470.9 533.48,-470.9 533.48,-440.3 533.48,-440.3 533.48,-434.3 539.48,-428.3 545.48,-428.3 545.48,-428.3 600.52,-428.3 600.52,-428.3 606.52,-428.3 612.52,-434.3 612.52,-440.3 612.52,-440.3 612.52,-470.9 612.52,-470.9 612.52,-476.9 606.52,-482.9 600.52,-482.9"/>
<text text-anchor="middle" x="573" y="-461.65" font-family="Inter, Helvetica, sans-serif" font-size="11.00" fill="#fafafa">NixOS</text>
<text text-anchor="middle" x="573" y="-445.15" font-family="Inter, Helvetica, sans-serif" font-size="11.00" fill="#fafafa">OS Config</text>
</g>
<!-- tofu -->
<g id="node3" class="node">
<title>tofu</title>
<path fill="#18181b" stroke="#7c3aed" stroke-width="1.5" d="M736.4,-482.9C736.4,-482.9 653.6,-482.9 653.6,-482.9 647.6,-482.9 641.6,-476.9 641.6,-470.9 641.6,-470.9 641.6,-440.3 641.6,-440.3 641.6,-434.3 647.6,-428.3 653.6,-428.3 653.6,-428.3 736.4,-428.3 736.4,-428.3 742.4,-428.3 748.4,-434.3 748.4,-440.3 748.4,-440.3 748.4,-470.9 748.4,-470.9 748.4,-476.9 742.4,-482.9 736.4,-482.9"/>
<text text-anchor="middle" x="695" y="-461.65" font-family="Inter, Helvetica, sans-serif" font-size="11.00" fill="#fafafa">OpenTofu</text>
<text text-anchor="middle" x="695" y="-445.15" font-family="Inter, Helvetica, sans-serif" font-size="11.00" fill="#fafafa">VM Provisioning</text>
</g>
<!-- proxmox -->
<g id="node9" class="node">
<title>proxmox</title>
<path fill="#18181b" stroke="#10b981" stroke-width="1.5" d="M756.65,-201.7C756.65,-201.7 633.35,-201.7 633.35,-201.7 627.35,-201.7 621.35,-195.7 621.35,-189.7 621.35,-189.7 621.35,-159.1 621.35,-159.1 621.35,-153.1 627.35,-147.1 633.35,-147.1 633.35,-147.1 756.65,-147.1 756.65,-147.1 762.65,-147.1 768.65,-153.1 768.65,-159.1 768.65,-159.1 768.65,-189.7 768.65,-189.7 768.65,-195.7 762.65,-201.7 756.65,-201.7"/>
<text text-anchor="middle" x="695" y="-180.45" font-family="Inter, Helvetica, sans-serif" font-size="11.00" fill="#fafafa">Proxmox VE Cluster</text>
<text text-anchor="middle" x="695" y="-163.95" font-family="Inter, Helvetica, sans-serif" font-size="11.00" fill="#fafafa">3 Nodes (2 Mini, 1 GPU)</text>
</g>
<!-- tofu&#45;&gt;proxmox -->
<g id="edge3" class="edge">
<title>tofu&#45;&gt;proxmox</title>
<path fill="none" stroke="#a1a1aa" stroke-width="1.2" stroke-dasharray="5,2" d="M677.2,-427.87C677.2,-427.87 677.2,-211.74 677.2,-211.74"/>
<polygon fill="#a1a1aa" stroke="#a1a1aa" stroke-width="1.2" points="680,-211.74 677.2,-203.74 674.4,-211.74 680,-211.74"/>
<text text-anchor="middle" x="651.33" y="-325.3" font-family="Inter, Helvetica, sans-serif" font-size="10.00" fill="#a1a1aa"> Provisions </text>
</g>
<!-- tofu&#45;&gt;proxmox -->
<g id="edge8" class="edge">
<title>tofu&#45;&gt;proxmox</title>
<path fill="none" stroke="#52525b" stroke-width="1.2" d="M712.8,-427.87C712.8,-427.87 712.8,-211.74 712.8,-211.74"/>
<polygon fill="#52525b" stroke="#52525b" stroke-width="1.2" points="715.6,-211.74 712.8,-203.74 710,-211.74 715.6,-211.74"/>
</g>
<!-- flux -->
<g id="node4" class="node">
<title>flux</title>
<path fill="#18181b" stroke="#7c3aed" stroke-width="1.5" d="M882.27,-482.9C882.27,-482.9 789.73,-482.9 789.73,-482.9 783.73,-482.9 777.73,-476.9 777.73,-470.9 777.73,-470.9 777.73,-440.3 777.73,-440.3 777.73,-434.3 783.73,-428.3 789.73,-428.3 789.73,-428.3 882.27,-428.3 882.27,-428.3 888.27,-428.3 894.27,-434.3 894.27,-440.3 894.27,-440.3 894.27,-470.9 894.27,-470.9 894.27,-476.9 888.27,-482.9 882.27,-482.9"/>
<text text-anchor="middle" x="836" y="-461.65" font-family="Inter, Helvetica, sans-serif" font-size="11.00" fill="#fafafa">FluxCD</text>
<text text-anchor="middle" x="836" y="-445.15" font-family="Inter, Helvetica, sans-serif" font-size="11.00" fill="#fafafa">K8s Reconciliation</text>
</g>
<!-- k3s -->
<g id="node10" class="node">
<title>k3s</title>
<path fill="#18181b" stroke="#10b981" stroke-width="1.5" d="M920.65,-201.7C920.65,-201.7 809.35,-201.7 809.35,-201.7 803.35,-201.7 797.35,-195.7 797.35,-189.7 797.35,-189.7 797.35,-159.1 797.35,-159.1 797.35,-153.1 803.35,-147.1 809.35,-147.1 809.35,-147.1 920.65,-147.1 920.65,-147.1 926.65,-147.1 932.65,-153.1 932.65,-159.1 932.65,-159.1 932.65,-189.7 932.65,-189.7 932.65,-195.7 926.65,-201.7 920.65,-201.7"/>
<text text-anchor="middle" x="865" y="-180.45" font-family="Inter, Helvetica, sans-serif" font-size="11.00" fill="#fafafa">K3s Cluster</text>
<text text-anchor="middle" x="865" y="-163.95" font-family="Inter, Helvetica, sans-serif" font-size="11.00" fill="#fafafa">Control + GPU Nodes</text>
</g>
<!-- flux&#45;&gt;k3s -->
<g id="edge4" class="edge">
<title>flux&#45;&gt;k3s</title>
<path fill="none" stroke="#a1a1aa" stroke-width="1.2" stroke-dasharray="5,2" d="M845.81,-427.87C845.81,-427.87 845.81,-211.74 845.81,-211.74"/>
<polygon fill="#a1a1aa" stroke="#a1a1aa" stroke-width="1.2" points="848.61,-211.74 845.81,-203.74 843.01,-211.74 848.61,-211.74"/>
<text text-anchor="middle" x="818.81" y="-325.3" font-family="Inter, Helvetica, sans-serif" font-size="10.00" fill="#a1a1aa"> Reconciles </text>
</g>
<!-- ingress -->
<g id="node8" class="node">
<title>ingress</title>
<path fill="#1e3a8a" stroke="#3b82f6" stroke-width="1.5" d="M248.65,-201.7C248.65,-201.7 173.35,-201.7 173.35,-201.7 167.35,-201.7 161.35,-195.7 161.35,-189.7 161.35,-189.7 161.35,-159.1 161.35,-159.1 161.35,-153.1 167.35,-147.1 173.35,-147.1 173.35,-147.1 248.65,-147.1 248.65,-147.1 254.65,-147.1 260.65,-153.1 260.65,-159.1 260.65,-159.1 260.65,-189.7 260.65,-189.7 260.65,-195.7 254.65,-201.7 248.65,-201.7"/>
<text text-anchor="middle" x="211" y="-180.45" font-family="Inter, Helvetica, sans-serif" font-size="11.00" fill="#fafafa">Traefik Ingress</text>
<text text-anchor="middle" x="211" y="-163.95" font-family="Inter, Helvetica, sans-serif" font-size="11.00" fill="#fafafa">Controller</text>
</g>
<!-- azure_kv&#45;&gt;ingress -->
<g id="edge12" class="edge">
<title>azure_kv&#45;&gt;ingress</title>
<path fill="none" stroke="#52525b" stroke-width="1.2" d="M329.3,-315C279.06,-315 211,-315 211,-315 211,-315 211,-211.99 211,-211.99"/>
<polygon fill="#52525b" stroke="#52525b" stroke-width="1.2" points="213.8,-211.99 211,-203.99 208.2,-211.99 213.8,-211.99"/>
</g>
<!-- platform -->
<g id="node11" class="node">
<title>platform</title>
<path fill="#18181b" stroke="#10b981" stroke-width="1.5" d="M422.65,-201.7C422.65,-201.7 311.35,-201.7 311.35,-201.7 305.35,-201.7 299.35,-195.7 299.35,-189.7 299.35,-189.7 299.35,-159.1 299.35,-159.1 299.35,-153.1 305.35,-147.1 311.35,-147.1 311.35,-147.1 422.65,-147.1 422.65,-147.1 428.65,-147.1 434.65,-153.1 434.65,-159.1 434.65,-159.1 434.65,-189.7 434.65,-189.7 434.65,-195.7 428.65,-201.7 422.65,-201.7"/>
<text text-anchor="middle" x="367" y="-180.45" font-family="Inter, Helvetica, sans-serif" font-size="11.00" fill="#fafafa">Core Services</text>
<text text-anchor="middle" x="367" y="-163.95" font-family="Inter, Helvetica, sans-serif" font-size="11.00" fill="#fafafa">Cert&#45;Manager, Harbor</text>
</g>
<!-- azure_kv&#45;&gt;platform -->
<g id="edge5" class="edge">
<title>azure_kv&#45;&gt;platform</title>
<path fill="none" stroke="#0ea5e9" stroke-width="1.2" stroke-dasharray="5,2" d="M382,-287.22C382,-287.22 382,-211.94 382,-211.94"/>
<polygon fill="#0ea5e9" stroke="#0ea5e9" stroke-width="1.2" points="384.8,-211.94 382,-203.94 379.2,-211.94 384.8,-211.94"/>
<text text-anchor="middle" x="362.12" y="-255.08" font-family="Inter, Helvetica, sans-serif" font-size="10.00" fill="#a1a1aa"> Secrets </text>
</g>
<!-- syn_nas -->
<g id="node6" class="node">
<title>syn_nas</title>
<path fill="#18181b" stroke="#0ea5e9" stroke-width="1.5" d="M550.27,-342.3C550.27,-342.3 475.73,-342.3 475.73,-342.3 469.73,-342.3 463.73,-336.3 463.73,-330.3 463.73,-330.3 463.73,-299.7 463.73,-299.7 463.73,-293.7 469.73,-287.7 475.73,-287.7 475.73,-287.7 550.27,-287.7 550.27,-287.7 556.27,-287.7 562.27,-293.7 562.27,-299.7 562.27,-299.7 562.27,-330.3 562.27,-330.3 562.27,-336.3 556.27,-342.3 550.27,-342.3"/>
<text text-anchor="middle" x="513" y="-321.05" font-family="Inter, Helvetica, sans-serif" font-size="11.00" fill="#fafafa">Synology NAS</text>
<text text-anchor="middle" x="513" y="-304.55" font-family="Inter, Helvetica, sans-serif" font-size="11.00" fill="#fafafa">NFS Volumes</text>
</g>
<!-- storage -->
<g id="node12" class="node">
<title>storage</title>
<path fill="#18181b" stroke="#10b981" stroke-width="1.5" d="M580.27,-201.7C580.27,-201.7 475.73,-201.7 475.73,-201.7 469.73,-201.7 463.73,-195.7 463.73,-189.7 463.73,-189.7 463.73,-159.1 463.73,-159.1 463.73,-153.1 469.73,-147.1 475.73,-147.1 475.73,-147.1 580.27,-147.1 580.27,-147.1 586.27,-147.1 592.27,-153.1 592.27,-159.1 592.27,-159.1 592.27,-189.7 592.27,-189.7 592.27,-195.7 586.27,-201.7 580.27,-201.7"/>
<text text-anchor="middle" x="528" y="-180.45" font-family="Inter, Helvetica, sans-serif" font-size="11.00" fill="#fafafa">Data &amp; Storage</text>
<text text-anchor="middle" x="528" y="-163.95" font-family="Inter, Helvetica, sans-serif" font-size="11.00" fill="#fafafa">CloudNativePG, CSI</text>
</g>
<!-- syn_nas&#45;&gt;storage -->
<g id="edge6" class="edge">
<title>syn_nas&#45;&gt;storage</title>
<path fill="none" stroke="#0ea5e9" stroke-width="1.2" stroke-dasharray="5,2" d="M513,-287.22C513,-287.22 513,-211.94 513,-211.94"/>
<polygon fill="#0ea5e9" stroke="#0ea5e9" stroke-width="1.2" points="515.8,-211.94 513,-203.94 510.2,-211.94 515.8,-211.94"/>
<text text-anchor="middle" x="493.88" y="-255.08" font-family="Inter, Helvetica, sans-serif" font-size="10.00" fill="#a1a1aa"> Mounts </text>
</g>
<!-- users -->
<g id="node7" class="node">
<title>users</title>
<path fill="#18181b" stroke="#3b82f6" stroke-width="1.5" d="M120.53,-201.7C120.53,-201.7 35.47,-201.7 35.47,-201.7 29.47,-201.7 23.48,-195.7 23.48,-189.7 23.48,-189.7 23.48,-159.1 23.48,-159.1 23.48,-153.1 29.48,-147.1 35.48,-147.1 35.48,-147.1 120.53,-147.1 120.53,-147.1 126.53,-147.1 132.53,-153.1 132.53,-159.1 132.53,-159.1 132.53,-189.7 132.53,-189.7 132.53,-195.7 126.53,-201.7 120.53,-201.7"/>
<text text-anchor="middle" x="78" y="-180.45" font-family="Inter, Helvetica, sans-serif" font-size="11.00" fill="#fafafa">Users</text>
<text text-anchor="middle" x="78" y="-163.95" font-family="Inter, Helvetica, sans-serif" font-size="11.00" fill="#fafafa">Public/LAN/VPN</text>
</g>
<!-- users&#45;&gt;ingress -->
<g id="edge1" class="edge">
<title>users&#45;&gt;ingress</title>
<path fill="none" stroke="#52525b" stroke-width="1.2" d="M132.86,-174C132.86,-174 151.14,-174 151.14,-174"/>
<polygon fill="#52525b" stroke="#52525b" stroke-width="1.2" points="151.14,-176.8 159.14,-174 151.14,-171.2 151.14,-176.8"/>
</g>
<!-- ai_apps -->
<g id="node14" class="node">
<title>ai_apps</title>
<path fill="#18181b" stroke="#ef4444" stroke-width="1.5" d="M274.9,-61.1C274.9,-61.1 147.1,-61.1 147.1,-61.1 141.1,-61.1 135.1,-55.1 135.1,-49.1 135.1,-49.1 135.1,-35 135.1,-35 135.1,-29 141.1,-23 147.1,-23 147.1,-23 274.9,-23 274.9,-23 280.9,-23 286.9,-29 286.9,-35 286.9,-35 286.9,-49.1 286.9,-49.1 286.9,-55.1 280.9,-61.1 274.9,-61.1"/>
<text text-anchor="middle" x="211" y="-39.85" font-family="Inter, Helvetica, sans-serif" font-size="11.00" fill="#fafafa">AI: LiteLLM, Open WebUI</text>
</g>
<!-- ingress&#45;&gt;ai_apps -->
<g id="edge7" class="edge">
<title>ingress&#45;&gt;ai_apps</title>
<path fill="none" stroke="#f59e0b" stroke-width="2" d="M194.45,-146.66C194.45,-146.66 194.45,-130.68 194.45,-113.54"/>
<polygon fill="#f59e0b" stroke="#f59e0b" stroke-width="2" points="197.25,-113.87 194.45,-105.87 191.65,-113.87 197.25,-113.87"/>
<text text-anchor="middle" x="161.45" y="-135.6" font-family="Inter, Helvetica, sans-serif" font-size="10.00" fill="#a1a1aa"> Routes Traffic </text>
</g>
<!-- ingress&#45;&gt;ai_apps -->
<g id="edge13" class="edge">
<title>ingress&#45;&gt;ai_apps</title>
<path fill="none" stroke="#52525b" stroke-width="1.2" d="M227.55,-146.66C227.55,-146.66 227.55,-71.02 227.55,-71.02"/>
<polygon fill="#52525b" stroke="#52525b" stroke-width="1.2" points="230.35,-71.02 227.55,-63.02 224.75,-71.02 230.35,-71.02"/>
</g>
<!-- proxmox&#45;&gt;k3s -->
<g id="edge2" class="edge">
<title>proxmox&#45;&gt;k3s</title>
<path fill="none" stroke="#52525b" stroke-width="1.2" d="M769.07,-184C769.07,-184 787.25,-184 787.25,-184"/>
<polygon fill="#52525b" stroke="#52525b" stroke-width="1.2" points="787.25,-186.8 795.25,-184 787.25,-181.2 787.25,-186.8"/>
</g>
<!-- proxmox&#45;&gt;k3s -->
<g id="edge9" class="edge">
<title>proxmox&#45;&gt;k3s</title>
<path fill="none" stroke="#52525b" stroke-width="1.2" d="M769.07,-165C769.07,-165 787.25,-165 787.25,-165"/>
<polygon fill="#52525b" stroke="#52525b" stroke-width="1.2" points="787.25,-167.8 795.25,-165 787.25,-162.2 787.25,-167.8"/>
</g>
<!-- docs -->
<g id="node16" class="node">
<title>docs</title>
<path fill="#18181b" stroke="#ef4444" stroke-width="1.5" d="M612.65,-61.1C612.65,-61.1 477.35,-61.1 477.35,-61.1 471.35,-61.1 465.35,-55.1 465.35,-49.1 465.35,-49.1 465.35,-35 465.35,-35 465.35,-29 471.35,-23 477.35,-23 477.35,-23 612.65,-23 612.65,-23 618.65,-23 624.65,-29 624.65,-35 624.65,-35 624.65,-49.1 624.65,-49.1 624.65,-55.1 618.65,-61.1 612.65,-61.1"/>
<text text-anchor="middle" x="545" y="-39.85" font-family="Inter, Helvetica, sans-serif" font-size="11.00" fill="#fafafa">Docs: Paperless, Karakeep</text>
</g>
<!-- k3s&#45;&gt;docs -->
<g id="edge10" class="edge">
<title>k3s&#45;&gt;docs</title>
<path fill="none" stroke="#52525b" stroke-width="1.2" d="M812.5,-146.98C812.5,-127.21 812.5,-104 812.5,-104 812.5,-104 616.94,-104 616.94,-104 616.94,-104 616.94,-71.13 616.94,-71.13"/>
<polygon fill="#52525b" stroke="#52525b" stroke-width="1.2" points="619.74,-71.13 616.94,-63.13 614.14,-71.13 619.74,-71.13"/>
</g>
<!-- obs -->
<g id="node13" class="node">
<title>obs</title>
<path fill="#18181b" stroke="#10b981" stroke-width="1.5" d="M1074.78,-201.7C1074.78,-201.7 973.23,-201.7 973.23,-201.7 967.23,-201.7 961.23,-195.7 961.23,-189.7 961.23,-189.7 961.23,-159.1 961.23,-159.1 961.23,-153.1 967.23,-147.1 973.23,-147.1 973.23,-147.1 1074.78,-147.1 1074.78,-147.1 1080.78,-147.1 1086.78,-153.1 1086.78,-159.1 1086.78,-159.1 1086.78,-189.7 1086.78,-189.7 1086.78,-195.7 1080.78,-201.7 1074.78,-201.7"/>
<text text-anchor="middle" x="1024" y="-180.45" font-family="Inter, Helvetica, sans-serif" font-size="11.00" fill="#fafafa">Observability</text>
<text text-anchor="middle" x="1024" y="-163.95" font-family="Inter, Helvetica, sans-serif" font-size="11.00" fill="#fafafa">Prom, Grafana, Loki</text>
</g>
<!-- media -->
<g id="node15" class="node">
<title>media</title>
<path fill="#18181b" stroke="#ef4444" stroke-width="1.5" d="M424.15,-61.1C424.15,-61.1 327.85,-61.1 327.85,-61.1 321.85,-61.1 315.85,-55.1 315.85,-49.1 315.85,-49.1 315.85,-35 315.85,-35 315.85,-29 321.85,-23 327.85,-23 327.85,-23 424.15,-23 424.15,-23 430.15,-23 436.15,-29 436.15,-35 436.15,-35 436.15,-49.1 436.15,-49.1 436.15,-55.1 430.15,-61.1 424.15,-61.1"/>
<text text-anchor="middle" x="376" y="-39.85" font-family="Inter, Helvetica, sans-serif" font-size="11.00" fill="#fafafa">Media: Jellyfin, *arr</text>
</g>
<!-- utility -->
<g id="node17" class="node">
<title>utility</title>
<path fill="#18181b" stroke="#ef4444" stroke-width="1.5" d="M786.15,-61.1C786.15,-61.1 665.85,-61.1 665.85,-61.1 659.85,-61.1 653.85,-55.1 653.85,-49.1 653.85,-49.1 653.85,-35 653.85,-35 653.85,-29 659.85,-23 665.85,-23 665.85,-23 786.15,-23 786.15,-23 792.15,-23 798.15,-29 798.15,-35 798.15,-35 798.15,-49.1 798.15,-49.1 798.15,-55.1 792.15,-61.1 786.15,-61.1"/>
<text text-anchor="middle" x="726" y="-39.85" font-family="Inter, Helvetica, sans-serif" font-size="11.00" fill="#fafafa">Util: Homepage, Budget</text>
</g>
<!-- dev -->
<g id="node18" class="node">
<title>dev</title>
<path fill="#18181b" stroke="#ef4444" stroke-width="1.5" d="M923.15,-61.1C923.15,-61.1 838.85,-61.1 838.85,-61.1 832.85,-61.1 826.85,-55.1 826.85,-49.1 826.85,-49.1 826.85,-35 826.85,-35 826.85,-29 832.85,-23 838.85,-23 838.85,-23 923.15,-23 923.15,-23 929.15,-23 935.15,-29 935.15,-35 935.15,-35 935.15,-49.1 935.15,-49.1 935.15,-55.1 929.15,-61.1 923.15,-61.1"/>
<text text-anchor="middle" x="881" y="-39.85" font-family="Inter, Helvetica, sans-serif" font-size="11.00" fill="#fafafa">Dev: n8n, Coder</text>
</g>
<!-- home -->
<g id="node19" class="node">
<title>home</title>
<path fill="#18181b" stroke="#ef4444" stroke-width="1.5" d="M1083.4,-61.1C1083.4,-61.1 976.6,-61.1 976.6,-61.1 970.6,-61.1 964.6,-55.1 964.6,-49.1 964.6,-49.1 964.6,-35 964.6,-35 964.6,-29 970.6,-23 976.6,-23 976.6,-23 1083.4,-23 1083.4,-23 1089.4,-23 1095.4,-29 1095.4,-35 1095.4,-35 1095.4,-49.1 1095.4,-49.1 1095.4,-55.1 1089.4,-61.1 1083.4,-61.1"/>
<text text-anchor="middle" x="1030" y="-39.85" font-family="Inter, Helvetica, sans-serif" font-size="11.00" fill="#fafafa">Home: Assistant, MC</text>
</g>
</g>
</svg>
