<?xml version="1.0" encoding="UTF-8" standalone="no"?>
<!DOCTYPE svg PUBLIC "-//W3C//DTD SVG 1.1//EN"
 "http://www.w3.org/Graphics/SVG/1.1/DTD/svg11.dtd">
<!-- Generated by graphviz version 12.2.1 (0)
 -->
<!-- Title: homelab Pages: 1 -->
<svg width="1239pt" height="729pt"
 viewBox="0.00 0.00 1239.00 728.75" xmlns="http://www.w3.org/2000/svg" xmlns:xlink="http://www.w3.org/1999/xlink">
<g id="graph0" class="graph" transform="scale(1 1) rotate(0) translate(36 692.75)">
<title>homelab</title>
<polygon fill="#09090b" stroke="none" points="-36,36 -36,-692.75 1203,-692.75 1203,36 -36,36"/>
<g id="clust1" class="cluster">
<title>cluster_gitops</title>
<path fill="#111111" stroke="#7c3aed" d="M20,-537.4C20,-537.4 542,-537.4 542,-537.4 548,-537.4 554,-543.4 554,-549.4 554,-549.4 554,-636.75 554,-636.75 554,-642.75 548,-648.75 542,-648.75 542,-648.75 20,-648.75 20,-648.75 14,-648.75 8,-642.75 8,-636.75 8,-636.75 8,-549.4 8,-549.4 8,-543.4 14,-537.4 20,-537.4"/>
<text text-anchor="middle" x="281" y="-632.4" font-family="Inter, Helvetica, sans-serif" font-size="13.00" fill="#a78bfa">GITOPS &amp; IaC</text>
</g>
<g id="clust3" class="cluster">
<title>cluster_network</title>
<path fill="#111111" stroke="#3b82f6" d="M618,-545.65C618,-545.65 773,-545.65 773,-545.65 779,-545.65 785,-551.65 785,-557.65 785,-557.65 785,-628.5 785,-628.5 785,-634.5 779,-640.5 773,-640.5 773,-640.5 618,-640.5 618,-640.5 612,-640.5 606,-634.5 606,-628.5 606,-628.5 606,-557.65 606,-557.65 606,-551.65 612,-545.65 618,-545.65"/>
<text text-anchor="middle" x="695.5" y="-624.15" font-family="Inter, Helvetica, sans-serif" font-size="13.00" fill="#93c5fd">NETWORK ENTRY</text>
</g>
<g id="clust5" class="cluster">
<title>cluster_external</title>
<path fill="#111111" stroke="#0ea5e9" d="M708,-396.8C708,-396.8 943,-396.8 943,-396.8 949,-396.8 955,-402.8 955,-408.8 955,-408.8 955,-496.15 955,-496.15 955,-502.15 949,-508.15 943,-508.15 943,-508.15 708,-508.15 708,-508.15 702,-508.15 696,-502.15 696,-496.15 696,-496.15 696,-408.8 696,-408.8 696,-402.8 702,-396.8 708,-396.8"/>
<text text-anchor="middle" x="825.5" y="-491.8" font-family="Inter, Helvetica, sans-serif" font-size="13.00" fill="#7dd3fc">EXTERNAL</text>
</g>
<g id="clust7" class="cluster">
<title>cluster_hardware</title>
<path fill="#111111" stroke="#10b981" d="M163,-396.8C163,-396.8 457,-396.8 457,-396.8 463,-396.8 469,-402.8 469,-408.8 469,-408.8 469,-496.15 469,-496.15 469,-502.15 463,-508.15 457,-508.15 457,-508.15 163,-508.15 163,-508.15 157,-508.15 151,-502.15 151,-496.15 151,-496.15 151,-408.8 151,-408.8 151,-402.8 157,-396.8 163,-396.8"/>
<text text-anchor="middle" x="310" y="-491.8" font-family="Inter, Helvetica, sans-serif" font-size="13.00" fill="#6ee7b7">HARDWARE</text>
</g>
<g id="clust9" class="cluster">
<title>cluster_vm</title>
<path fill="#111111" stroke="#ef4444" d="M429,-272.7C429,-272.7 778,-272.7 778,-272.7 784,-272.7 790,-278.7 790,-284.7 790,-284.7 790,-355.55 790,-355.55 790,-361.55 784,-367.55 778,-367.55 778,-367.55 429,-367.55 429,-367.55 423,-367.55 417,-361.55 417,-355.55 417,-355.55 417,-284.7 417,-284.7 417,-278.7 423,-272.7 429,-272.7"/>
<text text-anchor="middle" x="603.5" y="-351.2" font-family="Inter, Helvetica, sans-serif" font-size="13.00" fill="#fca5a1">VIRTUAL MACHINES</text>
</g>
<g id="clust11" class="cluster">
<title>cluster_infra</title>
<path fill="#111111" stroke="#ef4444" d="M306,-132.1C306,-132.1 946,-132.1 946,-132.1 952,-132.1 958,-138.1 958,-144.1 958,-144.1 958,-231.45 958,-231.45 958,-237.45 952,-243.45 946,-243.45 946,-243.45 306,-243.45 306,-243.45 300,-243.45 294,-237.45 294,-231.45 294,-231.45 294,-144.1 294,-144.1 294,-138.1 300,-132.1 306,-132.1"/>
<text text-anchor="middle" x="626" y="-227.1" font-family="Inter, Helvetica, sans-serif" font-size="13.00" fill="#fca5a1">KUBERNETES INFRASTRUCTURE</text>
</g>
<g id="clust13" class="cluster">
<title>cluster_workloads</title>
<path fill="#111111" stroke="#ef4444" d="M181,-8C181,-8 1147,-8 1147,-8 1153,-8 1159,-14 1159,-20 1159,-20 1159,-90.85 1159,-90.85 1159,-96.85 1153,-102.85 1147,-102.85 1147,-102.85 181,-102.85 181,-102.85 175,-102.85 169,-96.85 169,-90.85 169,-90.85 169,-20 169,-20 169,-14 175,-8 181,-8"/>
<text text-anchor="middle" x="664" y="-86.5" font-family="Inter, Helvetica, sans-serif" font-size="13.00" fill="#fca5a1">PRODUCTION WORKLOADS</text>
</g>
<!-- github -->
<g id="node1" class="node">
<title>github</title>
<path fill="#18181b" stroke="#7c3aed" stroke-width="1.5" d="M136.77,-607C136.77,-607 35.23,-607 35.23,-607 29.23,-607 23.23,-601 23.23,-595 23.23,-595 23.23,-564.4 23.23,-564.4 23.23,-558.4 29.23,-552.4 35.23,-552.4 35.23,-552.4 136.77,-552.4 136.77,-552.4 142.77,-552.4 148.77,-558.4 148.77,-564.4 148.77,-564.4 148.77,-595 148.77,-595 148.77,-601 142.77,-607 136.77,-607"/>
<text text-anchor="middle" x="86" y="-585.75" font-family="Inter, Helvetica, sans-serif" font-size="11.00" fill="#fafafa">GitHub Repo</text>
<text text-anchor="middle" x="86" y="-569.25" font-family="Inter, Helvetica, sans-serif" font-size="11.00" fill="#fafafa">Flux + Tofu Sources</text>
</g>
<!-- flux -->
<g id="node4" class="node">
<title>flux</title>
<path fill="#18181b" stroke="#7c3aed" stroke-width="1.5" d="M282.27,-607C282.27,-607 189.72,-607 189.72,-607 183.72,-607 177.72,-601 177.72,-595 177.72,-595 177.72,-564.4 177.72,-564.4 177.72,-558.4 183.72,-552.4 189.72,-552.4 189.72,-552.4 282.27,-552.4 282.27,-552.4 288.27,-552.4 294.27,-558.4 294.27,-564.4 294.27,-564.4 294.27,-595 294.27,-595 294.27,-601 288.27,-607 282.27,-607"/>
<text text-anchor="middle" x="236" y="-585.75" font-family="Inter, Helvetica, sans-serif" font-size="11.00" fill="#fafafa">FluxCD</text>
<text text-anchor="middle" x="236" y="-569.25" font-family="Inter, Helvetica, sans-serif" font-size="11.00" fill="#fafafa">K8s Reconciliation</text>
</g>
<!-- github&#45;&gt;flux -->
<!-- nixos -->
<g id="node2" class="node">
<title>nixos</title>
<path fill="#18181b" stroke="#7c3aed" stroke-width="1.5" d="M526.52,-607C526.52,-607 471.48,-607 471.48,-607 465.48,-607 459.48,-601 459.48,-595 459.48,-595 459.48,-564.4 459.48,-564.4 459.48,-558.4 465.48,-552.4 471.48,-552.4 471.48,-552.4 526.52,-552.4 526.52,-552.4 532.52,-552.4 538.52,-558.4 538.52,-564.4 538.52,-564.4 538.52,-595 538.52,-595 538.52,-601 532.52,-607 526.52,-607"/>
<text text-anchor="middle" x="499" y="-585.75" font-family="Inter, Helvetica, sans-serif" font-size="11.00" fill="#fafafa">NixOS</text>
<text text-anchor="middle" x="499" y="-569.25" font-family="Inter, Helvetica, sans-serif" font-size="11.00" fill="#fafafa">OS Config</text>
</g>
<!-- tofu -->
<g id="node3" class="node">
<title>tofu</title>
<path fill="#18181b" stroke="#7c3aed" stroke-width="1.5" d="M418.4,-607C418.4,-607 335.6,-607 335.6,-607 329.6,-607 323.6,-601 323.6,-595 323.6,-595 323.6,-564.4 323.6,-564.4 323.6,-558.4 329.6,-552.4 335.6,-552.4 335.6,-552.4 418.4,-552.4 418.4,-552.4 424.4,-552.4 430.4,-558.4 430.4,-564.4 430.4,-564.4 430.4,-595 430.4,-595 430.4,-601 424.4,-607 418.4,-607"/>
<text text-anchor="middle" x="377" y="-585.75" font-family="Inter, Helvetica, sans-serif" font-size="11.00" fill="#fafafa">OpenTofu</text>
<text text-anchor="middle" x="377" y="-569.25" font-family="Inter, Helvetica, sans-serif" font-size="11.00" fill="#fafafa">VM Provisioning</text>
</g>
<!-- nixos&#45;&gt;tofu -->
<!-- opencode -->
<g id="node13" class="node">
<title>opencode</title>
<path fill="#18181b" stroke="#ef4444" stroke-width="1.5" d="M501.65,-325.8C501.65,-325.8 444.35,-325.8 444.35,-325.8 438.35,-325.8 432.35,-319.8 432.35,-313.8 432.35,-313.8 432.35,-299.7 432.35,-299.7 432.35,-293.7 438.35,-287.7 444.35,-287.7 444.35,-287.7 501.65,-287.7 501.65,-287.7 507.65,-287.7 513.65,-293.7 513.65,-299.7 513.65,-299.7 513.65,-313.8 513.65,-313.8 513.65,-319.8 507.65,-325.8 501.65,-325.8"/>
<text text-anchor="middle" x="473" y="-304.55" font-family="Inter, Helvetica, sans-serif" font-size="11.00" fill="#fafafa">OpenCode</text>
</g>
<!-- nixos&#45;&gt;opencode -->
<g id="edge18" class="edge">
<title>nixos&#45;&gt;opencode</title>
<path fill="none" stroke="#a1a1aa" stroke-width="1.2" stroke-dasharray="5,2" d="M486.56,-552.03C486.56,-552.03 486.56,-439.85 486.56,-377.16"/>
<polygon fill="#a1a1aa" stroke="#a1a1aa" stroke-width="1.2" points="489.36,-377.36 486.56,-369.36 483.76,-377.36 489.36,-377.36"/>
<text text-anchor="middle" x="513.19" y="-470.09" font-family="Inter, Helvetica, sans-serif" font-size="10.00" fill="#a1a1aa"> Configures </text>
</g>
<!-- proxmox -->
<g id="node9" class="node">
<title>proxmox</title>
<path fill="#18181b" stroke="#10b981" stroke-width="1.5" d="M441.52,-466.4C441.52,-466.4 338.48,-466.4 338.48,-466.4 332.48,-466.4 326.48,-460.4 326.48,-454.4 326.48,-454.4 326.48,-423.8 326.48,-423.8 326.48,-417.8 332.48,-411.8 338.48,-411.8 338.48,-411.8 441.52,-411.8 441.52,-411.8 447.52,-411.8 453.52,-417.8 453.52,-423.8 453.52,-423.8 453.52,-454.4 453.52,-454.4 453.52,-460.4 447.52,-466.4 441.52,-466.4"/>
<text text-anchor="middle" x="390" y="-445.15" font-family="Inter, Helvetica, sans-serif" font-size="11.00" fill="#fafafa">Proxmox VE Cluster</text>
<text text-anchor="middle" x="390" y="-428.65" font-family="Inter, Helvetica, sans-serif" font-size="11.00" fill="#fafafa">3 Nodes</text>
</g>
<!-- tofu&#45;&gt;proxmox -->
<g id="edge17" class="edge">
<title>tofu&#45;&gt;proxmox</title>
<path fill="none" stroke="#a1a1aa" stroke-width="1.2" stroke-dasharray="5,2" d="M378.44,-551.92C378.44,-551.92 378.44,-476.64 378.44,-476.64"/>
<polygon fill="#a1a1aa" stroke="#a1a1aa" stroke-width="1.2" points="381.24,-476.64 378.44,-468.64 375.64,-476.64 381.24,-476.64"/>
<text text-anchor="middle" x="352.56" y="-519.78" font-family="Inter, Helvetica, sans-serif" font-size="10.00" fill="#a1a1aa"> Provisions </text>
</g>
<!-- flux&#45;&gt;nixos -->
<!-- storage -->
<g id="node14" class="node">
<title>storage</title>
<path fill="#18181b" stroke="#ef4444" stroke-width="1.5" d="M450.65,-201.7C450.65,-201.7 321.35,-201.7 321.35,-201.7 315.35,-201.7 309.35,-195.7 309.35,-189.7 309.35,-189.7 309.35,-159.1 309.35,-159.1 309.35,-153.1 315.35,-147.1 321.35,-147.1 321.35,-147.1 450.65,-147.1 450.65,-147.1 456.65,-147.1 462.65,-153.1 462.65,-159.1 462.65,-159.1 462.65,-189.7 462.65,-189.7 462.65,-195.7 456.65,-201.7 450.65,-201.7"/>
<text text-anchor="middle" x="386" y="-180.45" font-family="Inter, Helvetica, sans-serif" font-size="11.00" fill="#fafafa">Data &amp; Storage &amp; Backup</text>
<text text-anchor="middle" x="386" y="-163.95" font-family="Inter, Helvetica, sans-serif" font-size="11.00" fill="#fafafa">CloudNativePG, Velero</text>
</g>
<!-- flux&#45;&gt;storage -->
<g id="edge20" class="edge">
<title>flux&#45;&gt;storage</title>
<path fill="none" stroke="#a1a1aa" stroke-width="1.2" stroke-dasharray="5,2" d="M294.44,-580C308.15,-580 318.85,-580 318.85,-580 318.85,-580 318.85,-349.35 318.85,-253.14"/>
<polygon fill="#a1a1aa" stroke="#a1a1aa" stroke-width="1.2" points="321.65,-253.27 318.85,-245.27 316.05,-253.27 321.65,-253.27"/>
<text text-anchor="middle" x="291.85" y="-434.28" font-family="Inter, Helvetica, sans-serif" font-size="10.00" fill="#a1a1aa"> Reconciles </text>
</g>
<!-- public -->
<g id="node5" class="node">
<title>public</title>
<path fill="#18181b" stroke="#3b82f6" stroke-width="1.5" d="M758.02,-598.75C758.02,-598.75 723.98,-598.75 723.98,-598.75 717.98,-598.75 711.98,-592.75 711.98,-586.75 711.98,-586.75 711.98,-572.65 711.98,-572.65 711.98,-566.65 717.98,-560.65 723.98,-560.65 723.98,-560.65 758.02,-560.65 758.02,-560.65 764.02,-560.65 770.02,-566.65 770.02,-572.65 770.02,-572.65 770.02,-586.75 770.02,-586.75 770.02,-592.75 764.02,-598.75 758.02,-598.75"/>
<text text-anchor="middle" x="741" y="-577.5" font-family="Inter, Helvetica, sans-serif" font-size="11.00" fill="#fafafa">Public</text>
</g>
<!-- private -->
<g id="node6" class="node">
<title>private</title>
<path fill="#18181b" stroke="#3b82f6" stroke-width="1.5" d="M671.27,-598.75C671.27,-598.75 632.73,-598.75 632.73,-598.75 626.73,-598.75 620.73,-592.75 620.73,-586.75 620.73,-586.75 620.73,-572.65 620.73,-572.65 620.73,-566.65 626.73,-560.65 632.73,-560.65 632.73,-560.65 671.27,-560.65 671.27,-560.65 677.27,-560.65 683.27,-566.65 683.27,-572.65 683.27,-572.65 683.27,-586.75 683.27,-586.75 683.27,-592.75 677.27,-598.75 671.27,-598.75"/>
<text text-anchor="middle" x="652" y="-577.5" font-family="Inter, Helvetica, sans-serif" font-size="11.00" fill="#fafafa">Private</text>
</g>
<!-- public&#45;&gt;private -->
<!-- cloudflare -->
<g id="node8" class="node">
<title>cloudflare</title>
<path fill="#18181b" stroke="#0ea5e9" stroke-width="1.5" d="M928.02,-466.4C928.02,-466.4 857.98,-466.4 857.98,-466.4 851.98,-466.4 845.98,-460.4 845.98,-454.4 845.98,-454.4 845.98,-423.8 845.98,-423.8 845.98,-417.8 851.98,-411.8 857.98,-411.8 857.98,-411.8 928.02,-411.8 928.02,-411.8 934.02,-411.8 940.02,-417.8 940.02,-423.8 940.02,-423.8 940.02,-454.4 940.02,-454.4 940.02,-460.4 934.02,-466.4 928.02,-466.4"/>
<text text-anchor="middle" x="893" y="-445.15" font-family="Inter, Helvetica, sans-serif" font-size="11.00" fill="#fafafa">Cloudflare</text>
<text text-anchor="middle" x="893" y="-428.65" font-family="Inter, Helvetica, sans-serif" font-size="11.00" fill="#fafafa">DNS &amp; Proxy</text>
</g>
<!-- public&#45;&gt;cloudflare -->
<g id="edge23" class="edge">
<title>public&#45;&gt;cloudflare</title>
<path fill="none" stroke="#3b82f6" stroke-width="2" d="M750.67,-560.33C750.67,-527.4 750.67,-464 750.67,-464 750.67,-464 834.58,-464 834.58,-464"/>
<polygon fill="#3b82f6" stroke="#3b82f6" stroke-width="2" points="834.58,-466.8 842.58,-464 834.58,-461.2 834.58,-466.8"/>
<text text-anchor="middle" x="717.67" y="-475.71" font-family="Inter, Helvetica, sans-serif" font-size="10.00" fill="#a1a1aa"> Routes Traffic </text>
</g>
<!-- public&#45;&gt;cloudflare -->
<!-- pihole -->
<g id="node12" class="node">
<title>pihole</title>
<path fill="#18181b" stroke="#ef4444" stroke-width="1.5" d="M647.27,-325.8C647.27,-325.8 554.73,-325.8 554.73,-325.8 548.73,-325.8 542.73,-319.8 542.73,-313.8 542.73,-313.8 542.73,-299.7 542.73,-299.7 542.73,-293.7 548.73,-287.7 554.73,-287.7 554.73,-287.7 647.27,-287.7 647.27,-287.7 653.27,-287.7 659.27,-293.7 659.27,-299.7 659.27,-299.7 659.27,-313.8 659.27,-313.8 659.27,-319.8 653.27,-325.8 647.27,-325.8"/>
<text text-anchor="middle" x="601" y="-304.55" font-family="Inter, Helvetica, sans-serif" font-size="11.00" fill="#fafafa">Pi&#45;hole &amp; Tailscale</text>
</g>
<!-- private&#45;&gt;pihole -->
<g id="edge25" class="edge">
<title>private&#45;&gt;pihole</title>
<path fill="none" stroke="#3b82f6" stroke-width="2" d="M633.58,-560.51C633.58,-560.51 633.58,-337.31 633.58,-337.31"/>
<polygon fill="#3b82f6" stroke="#3b82f6" stroke-width="2" points="636.38,-337.31 633.58,-329.31 630.78,-337.31 636.38,-337.31"/>
<text text-anchor="middle" x="600.58" y="-454.41" font-family="Inter, Helvetica, sans-serif" font-size="10.00" fill="#a1a1aa"> Routes Traffic </text>
</g>
<!-- private&#45;&gt;pihole -->
<!-- azure_kv -->
<g id="node7" class="node">
<title>azure_kv</title>
<path fill="#18181b" stroke="#0ea5e9" stroke-width="1.5" d="M804.65,-458.15C804.65,-458.15 723.35,-458.15 723.35,-458.15 717.35,-458.15 711.35,-452.15 711.35,-446.15 711.35,-446.15 711.35,-432.05 711.35,-432.05 711.35,-426.05 717.35,-420.05 723.35,-420.05 723.35,-420.05 804.65,-420.05 804.65,-420.05 810.65,-420.05 816.65,-426.05 816.65,-432.05 816.65,-432.05 816.65,-446.15 816.65,-446.15 816.65,-452.15 810.65,-458.15 804.65,-458.15"/>
<text text-anchor="middle" x="764" y="-436.9" font-family="Inter, Helvetica, sans-serif" font-size="11.00" fill="#fafafa">Azure Key Vault</text>
</g>
<!-- azure_kv&#45;&gt;cloudflare -->
<!-- haproxy -->
<g id="node11" class="node">
<title>haproxy</title>
<path fill="#18181b" stroke="#ef4444" stroke-width="1.5" d="M763.27,-325.8C763.27,-325.8 700.73,-325.8 700.73,-325.8 694.73,-325.8 688.73,-319.8 688.73,-313.8 688.73,-313.8 688.73,-299.7 688.73,-299.7 688.73,-293.7 694.73,-287.7 700.73,-287.7 700.73,-287.7 763.27,-287.7 763.27,-287.7 769.27,-287.7 775.27,-293.7 775.27,-299.7 775.27,-299.7 775.27,-313.8 775.27,-313.8 775.27,-319.8 769.27,-325.8 763.27,-325.8"/>
<text text-anchor="middle" x="732" y="-304.55" font-family="Inter, Helvetica, sans-serif" font-size="11.00" fill="#fafafa">HAProxy x3</text>
</g>
<!-- azure_kv&#45;&gt;haproxy -->
<!-- platform -->
<g id="node15" class="node">
<title>platform</title>
<path fill="#18181b" stroke="#ef4444" stroke-width="1.5" d="M802.65,-201.7C802.65,-201.7 691.35,-201.7 691.35,-201.7 685.35,-201.7 679.35,-195.7 679.35,-189.7 679.35,-189.7 679.35,-159.1 679.35,-159.1 679.35,-153.1 685.35,-147.1 691.35,-147.1 691.35,-147.1 802.65,-147.1 802.65,-147.1 808.65,-147.1 814.65,-153.1 814.65,-159.1 814.65,-159.1 814.65,-189.7 814.65,-189.7 814.65,-195.7 808.65,-201.7 802.65,-201.7"/>
<text text-anchor="middle" x="747" y="-180.45" font-family="Inter, Helvetica, sans-serif" font-size="11.00" fill="#fafafa">Core Services</text>
<text text-anchor="middle" x="747" y="-163.95" font-family="Inter, Helvetica, sans-serif" font-size="11.00" fill="#fafafa">Cert&#45;Manager, Harbor</text>
</g>
<!-- azure_kv&#45;&gt;platform -->
<g id="edge21" class="edge">
<title>azure_kv&#45;&gt;platform</title>
<path fill="none" stroke="#0ea5e9" stroke-width="1.2" stroke-dasharray="5,2" d="M794.96,-419.64C794.96,-419.64 794.96,-211.83 794.96,-211.83"/>
<polygon fill="#0ea5e9" stroke="#0ea5e9" stroke-width="1.2" points="797.76,-211.83 794.96,-203.83 792.16,-211.83 797.76,-211.83"/>
<text text-anchor="middle" x="814.84" y="-321.24" font-family="Inter, Helvetica, sans-serif" font-size="10.00" fill="#a1a1aa"> Secrets </text>
</g>
<!-- ingress -->
<g id="node16" class="node">
<title>ingress</title>
<path fill="#18181b" stroke="#ef4444" stroke-width="1.5" d="M930.65,-201.7C930.65,-201.7 855.35,-201.7 855.35,-201.7 849.35,-201.7 843.35,-195.7 843.35,-189.7 843.35,-189.7 843.35,-159.1 843.35,-159.1 843.35,-153.1 849.35,-147.1 855.35,-147.1 855.35,-147.1 930.65,-147.1 930.65,-147.1 936.65,-147.1 942.65,-153.1 942.65,-159.1 942.65,-159.1 942.65,-189.7 942.65,-189.7 942.65,-195.7 936.65,-201.7 930.65,-201.7"/>
<text text-anchor="middle" x="893" y="-180.45" font-family="Inter, Helvetica, sans-serif" font-size="11.00" fill="#fafafa">Traefik Ingress</text>
<text text-anchor="middle" x="893" y="-163.95" font-family="Inter, Helvetica, sans-serif" font-size="11.00" fill="#fafafa">Controller</text>
</g>
<!-- cloudflare&#45;&gt;ingress -->
<g id="edge24" class="edge">
<title>cloudflare&#45;&gt;ingress</title>
<path fill="none" stroke="#3b82f6" stroke-width="2" d="M883.6,-411.77C883.6,-411.77 883.6,-213.01 883.6,-213.01"/>
<polygon fill="#3b82f6" stroke="#3b82f6" stroke-width="2" points="886.4,-213.01 883.6,-205.01 880.8,-213.01 886.4,-213.01"/>
<text text-anchor="middle" x="916.6" y="-317.89" font-family="Inter, Helvetica, sans-serif" font-size="10.00" fill="#a1a1aa"> Routes Traffic </text>
</g>
<!-- cloudflare&#45;&gt;ingress -->
<!-- proxmox&#45;&gt;pihole -->
<g id="edge19" class="edge">
<title>proxmox&#45;&gt;pihole</title>
<path fill="none" stroke="#a1a1aa" stroke-width="1.2" stroke-dasharray="5,2" d="M453.84,-416C509.61,-416 581.73,-416 581.73,-416 581.73,-416 581.73,-336.1 581.73,-336.1"/>
<polygon fill="#a1a1aa" stroke="#a1a1aa" stroke-width="1.2" points="584.53,-336.1 581.73,-328.1 578.93,-336.1 584.53,-336.1"/>
<text text-anchor="middle" x="541.61" y="-421.5" font-family="Inter, Helvetica, sans-serif" font-size="10.00" fill="#a1a1aa"> Hosts </text>
</g>
<!-- home -->
<g id="node23" class="node">
<title>home</title>
<path fill="#18181b" stroke="#ef4444" stroke-width="1.5" d="M302.4,-61.1C302.4,-61.1 195.6,-61.1 195.6,-61.1 189.6,-61.1 183.6,-55.1 183.6,-49.1 183.6,-49.1 183.6,-35 183.6,-35 183.6,-29 189.6,-23 195.6,-23 195.6,-23 302.4,-23 302.4,-23 308.4,-23 314.4,-29 314.4,-35 314.4,-35 314.4,-49.1 314.4,-49.1 314.4,-55.1 308.4,-61.1 302.4,-61.1"/>
<text text-anchor="middle" x="249" y="-39.85" font-family="Inter, Helvetica, sans-serif" font-size="11.00" fill="#fafafa">Home: Assistant, MC</text>
</g>
<!-- proxmox&#45;&gt;home -->
<!-- syn_nas -->
<g id="node10" class="node">
<title>syn_nas</title>
<path fill="#18181b" stroke="#10b981" stroke-width="1.5" d="M285.77,-466.4C285.77,-466.4 178.22,-466.4 178.22,-466.4 172.22,-466.4 166.22,-460.4 166.22,-454.4 166.22,-454.4 166.22,-423.8 166.22,-423.8 166.22,-417.8 172.22,-411.8 178.22,-411.8 178.22,-411.8 285.77,-411.8 285.77,-411.8 291.77,-411.8 297.77,-417.8 297.77,-423.8 297.77,-423.8 297.77,-454.4 297.77,-454.4 297.77,-460.4 291.77,-466.4 285.77,-466.4"/>
<text text-anchor="middle" x="232" y="-445.15" font-family="Inter, Helvetica, sans-serif" font-size="11.00" fill="#fafafa">Synology NAS</text>
<text text-anchor="middle" x="232" y="-428.65" font-family="Inter, Helvetica, sans-serif" font-size="11.00" fill="#fafafa">NFS Volumes &amp; LUN</text>
</g>
<!-- syn_nas&#45;&gt;proxmox -->
<!-- syn_nas&#45;&gt;opencode -->
<!-- syn_nas&#45;&gt;storage -->
<g id="edge22" class="edge">
<title>syn_nas&#45;&gt;storage</title>
<path fill="none" stroke="#0ea5e9" stroke-width="1.2" stroke-dasharray="5,2" d="M298.27,-425C307.61,-425 314.1,-425 314.1,-425 314.1,-425 314.1,-314.81 314.1,-252.94"/>
<polygon fill="#0ea5e9" stroke="#0ea5e9" stroke-width="1.2" points="316.9,-253.26 314.1,-245.26 311.3,-253.26 316.9,-253.26"/>
<text text-anchor="middle" x="294.98" y="-352.38" font-family="Inter, Helvetica, sans-serif" font-size="10.00" fill="#a1a1aa"> Mounts </text>
</g>
<!-- haproxy&#45;&gt;pihole -->
<!-- haproxy&#45;&gt;platform -->
<!-- haproxy&#45;&gt;ingress -->
<g id="edge27" class="edge">
<title>haproxy&#45;&gt;ingress</title>
<path fill="none" stroke="#3b82f6" stroke-width="2" d="M775.48,-307C814.2,-307 864.78,-307 864.78,-307 864.78,-307 864.78,-213.22 864.78,-213.22"/>
<polygon fill="#3b82f6" stroke="#3b82f6" stroke-width="2" points="867.59,-213.22 864.79,-205.22 861.99,-213.22 867.59,-213.22"/>
<text text-anchor="middle" x="831.78" y="-295.27" font-family="Inter, Helvetica, sans-serif" font-size="10.00" fill="#a1a1aa"> Routes Traffic </text>
</g>
<!-- pihole&#45;&gt;haproxy -->
<g id="edge26" class="edge">
<title>pihole&#45;&gt;haproxy</title>
<path fill="none" stroke="#3b82f6" stroke-width="2" d="M659.6,-300C659.6,-300 677.35,-300 677.35,-300"/>
<polygon fill="#3b82f6" stroke="#3b82f6" stroke-width="2" points="677.35,-302.8 685.35,-300 677.35,-297.2 677.35,-302.8"/>
<text text-anchor="middle" x="668.48" y="-290.5" font-family="Inter, Helvetica, sans-serif" font-size="10.00" fill="#a1a1aa"> Routes Traffic </text>
</g>
<!-- pihole&#45;&gt;opencode -->
<!-- pihole&#45;&gt;storage -->
<!-- obs -->
<g id="node17" class="node">
<title>obs</title>
<path fill="#18181b" stroke="#ef4444" stroke-width="1.5" d="M637.9,-201.7C637.9,-201.7 504.1,-201.7 504.1,-201.7 498.1,-201.7 492.1,-195.7 492.1,-189.7 492.1,-189.7 492.1,-159.1 492.1,-159.1 492.1,-153.1 498.1,-147.1 504.1,-147.1 504.1,-147.1 637.9,-147.1 637.9,-147.1 643.9,-147.1 649.9,-153.1 649.9,-159.1 649.9,-159.1 649.9,-189.7 649.9,-189.7 649.9,-195.7 643.9,-201.7 637.9,-201.7"/>
<text text-anchor="middle" x="571" y="-180.45" font-family="Inter, Helvetica, sans-serif" font-size="11.00" fill="#fafafa">Observability</text>
<text text-anchor="middle" x="571" y="-163.95" font-family="Inter, Helvetica, sans-serif" font-size="11.00" fill="#fafafa">Prometheus, Grafana, Loki</text>
</g>
<!-- opencode&#45;&gt;obs -->
<!-- storage&#45;&gt;obs -->
<!-- utility -->
<g id="node21" class="node">
<title>utility</title>
<path fill="#18181b" stroke="#ef4444" stroke-width="1.5" d="M476.15,-61.1C476.15,-61.1 355.85,-61.1 355.85,-61.1 349.85,-61.1 343.85,-55.1 343.85,-49.1 343.85,-49.1 343.85,-35 343.85,-35 343.85,-29 349.85,-23 355.85,-23 355.85,-23 476.15,-23 476.15,-23 482.15,-23 488.15,-29 488.15,-35 488.15,-35 488.15,-49.1 488.15,-49.1 488.15,-55.1 482.15,-61.1 476.15,-61.1"/>
<text text-anchor="middle" x="416" y="-39.85" font-family="Inter, Helvetica, sans-serif" font-size="11.00" fill="#fafafa">Util: Homepage, Budget</text>
</g>
<!-- storage&#45;&gt;utility -->
<!-- platform&#45;&gt;ingress -->
<!-- ai_apps -->
<g id="node18" class="node">
<title>ai_apps</title>
<path fill="#18181b" stroke="#ef4444" stroke-width="1.5" d="M793.9,-61.1C793.9,-61.1 666.1,-61.1 666.1,-61.1 660.1,-61.1 654.1,-55.1 654.1,-49.1 654.1,-49.1 654.1,-35 654.1,-35 654.1,-29 660.1,-23 666.1,-23 666.1,-23 793.9,-23 793.9,-23 799.9,-23 805.9,-29 805.9,-35 805.9,-35 805.9,-49.1 805.9,-49.1 805.9,-55.1 799.9,-61.1 793.9,-61.1"/>
<text text-anchor="middle" x="730" y="-39.85" font-family="Inter, Helvetica, sans-serif" font-size="11.00" fill="#fafafa">AI: LiteLLM, Open WebUI</text>
</g>
<!-- platform&#45;&gt;ai_apps -->
<!-- ingress&#45;&gt;storage -->
<!-- docs -->
<g id="node20" class="node">
<title>docs</title>
<path fill="#18181b" stroke="#ef4444" stroke-width="1.5" d="M1131.65,-61.1C1131.65,-61.1 996.35,-61.1 996.35,-61.1 990.35,-61.1 984.35,-55.1 984.35,-49.1 984.35,-49.1 984.35,-35 984.35,-35 984.35,-29 990.35,-23 996.35,-23 996.35,-23 1131.65,-23 1131.65,-23 1137.65,-23 1143.65,-29 1143.65,-35 1143.65,-35 1143.65,-49.1 1143.65,-49.1 1143.65,-55.1 1137.65,-61.1 1131.65,-61.1"/>
<text text-anchor="middle" x="1064" y="-39.85" font-family="Inter, Helvetica, sans-serif" font-size="11.00" fill="#fafafa">Docs: Paperless, Karakeep</text>
</g>
<!-- ingress&#45;&gt;docs -->
<g id="edge28" class="edge">
<title>ingress&#45;&gt;docs</title>
<path fill="none" stroke="#f59e0b" stroke-width="2" d="M942.92,-184C993.39,-184 1064,-184 1064,-184 1064,-184 1064,-145.48 1064,-113.72"/>
<polygon fill="#f59e0b" stroke="#f59e0b" stroke-width="2" points="1066.8,-113.87 1064,-105.87 1061.2,-113.87 1066.8,-113.87"/>
<text text-anchor="middle" x="1005.6" y="-189.5" font-family="Inter, Helvetica, sans-serif" font-size="10.00" fill="#a1a1aa"> Routes Traffic </text>
</g>
<!-- ingress&#45;&gt;docs -->
<!-- dev -->
<g id="node22" class="node">
<title>dev</title>
<path fill="#18181b" stroke="#ef4444" stroke-width="1.5" d="M613.15,-61.1C613.15,-61.1 528.85,-61.1 528.85,-61.1 522.85,-61.1 516.85,-55.1 516.85,-49.1 516.85,-49.1 516.85,-35 516.85,-35 516.85,-29 522.85,-23 528.85,-23 528.85,-23 613.15,-23 613.15,-23 619.15,-23 625.15,-29 625.15,-35 625.15,-35 625.15,-49.1 625.15,-49.1 625.15,-55.1 619.15,-61.1 613.15,-61.1"/>
<text text-anchor="middle" x="571" y="-39.85" font-family="Inter, Helvetica, sans-serif" font-size="11.00" fill="#fafafa">Dev: n8n, Coder</text>
</g>
<!-- obs&#45;&gt;dev -->
<!-- media -->
<g id="node19" class="node">
<title>media</title>
<path fill="#18181b" stroke="#ef4444" stroke-width="1.5" d="M943.15,-61.1C943.15,-61.1 846.85,-61.1 846.85,-61.1 840.85,-61.1 834.85,-55.1 834.85,-49.1 834.85,-49.1 834.85,-35 834.85,-35 834.85,-29 840.85,-23 846.85,-23 846.85,-23 943.15,-23 943.15,-23 949.15,-23 955.15,-29 955.15,-35 955.15,-35 955.15,-49.1 955.15,-49.1 955.15,-55.1 949.15,-61.1 943.15,-61.1"/>
<text text-anchor="middle" x="895" y="-39.85" font-family="Inter, Helvetica, sans-serif" font-size="11.00" fill="#fafafa">Media: Jellyfin, *arr</text>
</g>
<!-- ai_apps&#45;&gt;media -->
<!-- media&#45;&gt;docs -->
<!-- docs&#45;&gt;utility -->
<!-- utility&#45;&gt;dev -->
<!-- dev&#45;&gt;home -->
</g>
</svg>
