<?xml version="1.0" encoding="UTF-8" standalone="no"?>
<!DOCTYPE svg PUBLIC "-//W3C//DTD SVG 1.1//EN"
 "http://www.w3.org/Graphics/SVG/1.1/DTD/svg11.dtd">
<!-- Generated by graphviz version 12.2.1 (0)
 -->
<!-- Title: Homelab_Pro Pages: 1 -->
<svg width="1114pt" height="745pt"
 viewBox="0.00 0.00 1114.00 745.25" xmlns="http://www.w3.org/2000/svg" xmlns:xlink="http://www.w3.org/1999/xlink">
<g id="graph0" class="graph" transform="scale(1 1) rotate(0) translate(36 709.25)">
<title>Homelab_Pro</title>
<polygon fill="#09090b" stroke="none" points="-36,36 -36,-709.25 1078,-709.25 1078,36 -36,36"/>
<g id="clust1" class="cluster">
<title>cluster_gitops</title>
<path fill="#111111" stroke="#7c3aed" d="M112,-553.9C112,-553.9 633,-553.9 633,-553.9 639,-553.9 645,-559.9 645,-565.9 645,-565.9 645,-653.25 645,-653.25 645,-659.25 639,-665.25 633,-665.25 633,-665.25 112,-665.25 112,-665.25 106,-665.25 100,-659.25 100,-653.25 100,-653.25 100,-565.9 100,-565.9 100,-559.9 106,-553.9 112,-553.9"/>
<text text-anchor="middle" x="372.5" y="-648.9" font-family="Inter, Helvetica, sans-serif" font-size="13.00" fill="#a78bfa">GITOPS &amp; IaC</text>
</g>
<g id="clust2" class="cluster">
<title>cluster_external</title>
<path fill="#111111" stroke="#0ea5e9" d="M585,-272.7C585,-272.7 820,-272.7 820,-272.7 826,-272.7 832,-278.7 832,-284.7 832,-284.7 832,-372.05 832,-372.05 832,-378.05 826,-384.05 820,-384.05 820,-384.05 585,-384.05 585,-384.05 579,-384.05 573,-378.05 573,-372.05 573,-372.05 573,-284.7 573,-284.7 573,-278.7 579,-272.7 585,-272.7"/>
<text text-anchor="middle" x="702.5" y="-367.7" font-family="Inter, Helvetica, sans-serif" font-size="13.00" fill="#7dd3fc">EXTERNAL</text>
</g>
<g id="clust3" class="cluster">
<title>cluster_network</title>
<path fill="#111111" stroke="#3b82f6" d="M505,-421.55C505,-421.55 660,-421.55 660,-421.55 666,-421.55 672,-427.55 672,-433.55 672,-433.55 672,-504.4 672,-504.4 672,-510.4 666,-516.4 660,-516.4 660,-516.4 505,-516.4 505,-516.4 499,-516.4 493,-510.4 493,-504.4 493,-504.4 493,-433.55 493,-433.55 493,-427.55 499,-421.55 505,-421.55"/>
<text text-anchor="middle" x="582.5" y="-500.05" font-family="Inter, Helvetica, sans-serif" font-size="13.00" fill="#93c5fd">NETWORK ENTRY</text>
</g>
<g id="clust5" class="cluster">
<title>cluster_infra</title>
<path fill="#111111" stroke="#10b981" d="M93,-413.3C93,-413.3 387,-413.3 387,-413.3 393,-413.3 399,-419.3 399,-425.3 399,-425.3 399,-512.65 399,-512.65 399,-518.65 393,-524.65 387,-524.65 387,-524.65 93,-524.65 93,-524.65 87,-524.65 81,-518.65 81,-512.65 81,-512.65 81,-425.3 81,-425.3 81,-419.3 87,-413.3 93,-413.3"/>
<text text-anchor="middle" x="240" y="-508.3" font-family="Inter, Helvetica, sans-serif" font-size="13.00" fill="#6ee7b7">INFRASTRUCTURE</text>
</g>
<g id="clust6" class="cluster">
<title>cluster_vm</title>
<path fill="#111111" stroke="#ef4444" d="M204,-280.95C204,-280.95 553,-280.95 553,-280.95 559,-280.95 565,-286.95 565,-292.95 565,-292.95 565,-363.8 565,-363.8 565,-369.8 559,-375.8 553,-375.8 553,-375.8 204,-375.8 204,-375.8 198,-375.8 192,-369.8 192,-363.8 192,-363.8 192,-292.95 192,-292.95 192,-286.95 198,-280.95 204,-280.95"/>
<text text-anchor="middle" x="378.5" y="-359.45" font-family="Inter, Helvetica, sans-serif" font-size="13.00" fill="#fca5a1">PROXMOX VM</text>
</g>
<g id="clust8" class="cluster">
<title>cluster_kubernetes</title>
<path fill="#111111" stroke="#ef4444" d="M383,-132.1C383,-132.1 1022,-132.1 1022,-132.1 1028,-132.1 1034,-138.1 1034,-144.1 1034,-144.1 1034,-231.45 1034,-231.45 1034,-237.45 1028,-243.45 1022,-243.45 1022,-243.45 383,-243.45 383,-243.45 377,-243.45 371,-237.45 371,-231.45 371,-231.45 371,-144.1 371,-144.1 371,-138.1 377,-132.1 383,-132.1"/>
<text text-anchor="middle" x="702.5" y="-227.1" font-family="Inter, Helvetica, sans-serif" font-size="13.00" fill="#fca5a1">KUBERNETES</text>
</g>
<g id="clust9" class="cluster">
<title>cluster_workloads</title>
<path fill="#111111" stroke="#ef4444" d="M20,-8C20,-8 985,-8 985,-8 991,-8 997,-14 997,-20 997,-20 997,-90.85 997,-90.85 997,-96.85 991,-102.85 985,-102.85 985,-102.85 20,-102.85 20,-102.85 14,-102.85 8,-96.85 8,-90.85 8,-90.85 8,-20 8,-20 8,-14 14,-8 20,-8"/>
<text text-anchor="middle" x="502.5" y="-86.5" font-family="Inter, Helvetica, sans-serif" font-size="13.00" fill="#fca5a1">PRODUCTION WORKLOADS</text>
</g>
<!-- github -->
<g id="node1" class="node">
<title>github</title>
<path fill="#18181b" stroke="#7c3aed" stroke-width="1.5" d="M228.77,-623.5C228.77,-623.5 127.23,-623.5 127.23,-623.5 121.23,-623.5 115.23,-617.5 115.23,-611.5 115.23,-611.5 115.23,-580.9 115.23,-580.9 115.23,-574.9 121.23,-568.9 127.23,-568.9 127.23,-568.9 228.77,-568.9 228.77,-568.9 234.77,-568.9 240.77,-574.9 240.77,-580.9 240.77,-580.9 240.77,-611.5 240.77,-611.5 240.77,-617.5 234.77,-623.5 228.77,-623.5"/>
<text text-anchor="middle" x="178" y="-602.25" font-family="Inter, Helvetica, sans-serif" font-size="11.00" fill="#fafafa">GitHub Repo</text>
<text text-anchor="middle" x="178" y="-585.75" font-family="Inter, Helvetica, sans-serif" font-size="11.00" fill="#fafafa">Flux + Tofu Sources</text>
</g>
<!-- syn_nas -->
<g id="node10" class="node">
<title>syn_nas</title>
<path fill="#18181b" stroke="#10b981" stroke-width="1.5" d="M215.78,-482.9C215.78,-482.9 108.22,-482.9 108.22,-482.9 102.22,-482.9 96.22,-476.9 96.22,-470.9 96.22,-470.9 96.22,-440.3 96.22,-440.3 96.22,-434.3 102.22,-428.3 108.22,-428.3 108.22,-428.3 215.78,-428.3 215.78,-428.3 221.78,-428.3 227.78,-434.3 227.78,-440.3 227.78,-440.3 227.78,-470.9 227.78,-470.9 227.78,-476.9 221.78,-482.9 215.78,-482.9"/>
<text text-anchor="middle" x="162" y="-461.65" font-family="Inter, Helvetica, sans-serif" font-size="11.00" fill="#fafafa">Synology NAS</text>
<text text-anchor="middle" x="162" y="-445.15" font-family="Inter, Helvetica, sans-serif" font-size="11.00" fill="#fafafa">NFS Volumes &amp; LUN</text>
</g>
<!-- github&#45;&gt;syn_nas -->
<g id="edge13" class="edge">
<title>github&#45;&gt;syn_nas</title>
<path fill="none" stroke="#52525b" stroke-width="1.2" d="M171.5,-568.42C171.5,-568.42 171.5,-493.14 171.5,-493.14"/>
<polygon fill="#52525b" stroke="#52525b" stroke-width="1.2" points="174.3,-493.14 171.5,-485.14 168.7,-493.14 174.3,-493.14"/>
</g>
<!-- nixos -->
<g id="node2" class="node">
<title>nixos</title>
<path fill="#18181b" stroke="#7c3aed" stroke-width="1.5" d="M472.52,-623.5C472.52,-623.5 417.48,-623.5 417.48,-623.5 411.48,-623.5 405.48,-617.5 405.48,-611.5 405.48,-611.5 405.48,-580.9 405.48,-580.9 405.48,-574.9 411.48,-568.9 417.48,-568.9 417.48,-568.9 472.52,-568.9 472.52,-568.9 478.52,-568.9 484.52,-574.9 484.52,-580.9 484.52,-580.9 484.52,-611.5 484.52,-611.5 484.52,-617.5 478.52,-623.5 472.52,-623.5"/>
<text text-anchor="middle" x="445" y="-602.25" font-family="Inter, Helvetica, sans-serif" font-size="11.00" fill="#fafafa">NixOS</text>
<text text-anchor="middle" x="445" y="-585.75" font-family="Inter, Helvetica, sans-serif" font-size="11.00" fill="#fafafa">OS Config</text>
</g>
<!-- opencode -->
<g id="node13" class="node">
<title>opencode</title>
<path fill="#18181b" stroke="#ef4444" stroke-width="1.5" d="M537.65,-334.05C537.65,-334.05 480.35,-334.05 480.35,-334.05 474.35,-334.05 468.35,-328.05 468.35,-322.05 468.35,-322.05 468.35,-307.95 468.35,-307.95 468.35,-301.95 474.35,-295.95 480.35,-295.95 480.35,-295.95 537.65,-295.95 537.65,-295.95 543.65,-295.95 549.65,-301.95 549.65,-307.95 549.65,-307.95 549.65,-322.05 549.65,-322.05 549.65,-328.05 543.65,-334.05 537.65,-334.05"/>
<text text-anchor="middle" x="509" y="-312.8" font-family="Inter, Helvetica, sans-serif" font-size="11.00" fill="#fafafa">OpenCode</text>
</g>
<!-- nixos&#45;&gt;opencode -->
<g id="edge2" class="edge">
<title>nixos&#45;&gt;opencode</title>
<path fill="none" stroke="#a1a1aa" stroke-width="1.2" stroke-dasharray="5,2" d="M476.44,-568.47C476.44,-568.47 476.44,-450.05 476.44,-385.32"/>
<polygon fill="#a1a1aa" stroke="#a1a1aa" stroke-width="1.2" points="479.24,-385.61 476.44,-377.61 473.64,-385.61 479.24,-385.61"/>
<text text-anchor="middle" x="449.81" y="-482.39" font-family="Inter, Helvetica, sans-serif" font-size="10.00" fill="#a1a1aa"> Configures </text>
</g>
<!-- tofu -->
<g id="node3" class="node">
<title>tofu</title>
<path fill="#18181b" stroke="#7c3aed" stroke-width="1.5" d="M364.4,-623.5C364.4,-623.5 281.6,-623.5 281.6,-623.5 275.6,-623.5 269.6,-617.5 269.6,-611.5 269.6,-611.5 269.6,-580.9 269.6,-580.9 269.6,-574.9 275.6,-568.9 281.6,-568.9 281.6,-568.9 364.4,-568.9 364.4,-568.9 370.4,-568.9 376.4,-574.9 376.4,-580.9 376.4,-580.9 376.4,-611.5 376.4,-611.5 376.4,-617.5 370.4,-623.5 364.4,-623.5"/>
<text text-anchor="middle" x="323" y="-602.25" font-family="Inter, Helvetica, sans-serif" font-size="11.00" fill="#fafafa">OpenTofu</text>
<text text-anchor="middle" x="323" y="-585.75" font-family="Inter, Helvetica, sans-serif" font-size="11.00" fill="#fafafa">VM Provisioning</text>
</g>
<!-- proxmox -->
<g id="node9" class="node">
<title>proxmox</title>
<path fill="#18181b" stroke="#10b981" stroke-width="1.5" d="M371.52,-482.9C371.52,-482.9 268.48,-482.9 268.48,-482.9 262.48,-482.9 256.48,-476.9 256.48,-470.9 256.48,-470.9 256.48,-440.3 256.48,-440.3 256.48,-434.3 262.48,-428.3 268.48,-428.3 268.48,-428.3 371.52,-428.3 371.52,-428.3 377.52,-428.3 383.52,-434.3 383.52,-440.3 383.52,-440.3 383.52,-470.9 383.52,-470.9 383.52,-476.9 377.52,-482.9 371.52,-482.9"/>
<text text-anchor="middle" x="320" y="-461.65" font-family="Inter, Helvetica, sans-serif" font-size="11.00" fill="#fafafa">Proxmox VE Cluster</text>
<text text-anchor="middle" x="320" y="-445.15" font-family="Inter, Helvetica, sans-serif" font-size="11.00" fill="#fafafa">3 Nodes</text>
</g>
<!-- tofu&#45;&gt;proxmox -->
<g id="edge1" class="edge">
<title>tofu&#45;&gt;proxmox</title>
<path fill="none" stroke="#a1a1aa" stroke-width="1.2" stroke-dasharray="5,2" d="M323,-568.42C323,-568.42 323,-493.14 323,-493.14"/>
<polygon fill="#a1a1aa" stroke="#a1a1aa" stroke-width="1.2" points="325.8,-493.14 323,-485.14 320.2,-493.14 325.8,-493.14"/>
<text text-anchor="middle" x="297.12" y="-536.28" font-family="Inter, Helvetica, sans-serif" font-size="10.00" fill="#a1a1aa"> Provisions </text>
</g>
<!-- flux -->
<g id="node4" class="node">
<title>flux</title>
<path fill="#18181b" stroke="#7c3aed" stroke-width="1.5" d="M618.27,-623.5C618.27,-623.5 525.73,-623.5 525.73,-623.5 519.73,-623.5 513.73,-617.5 513.73,-611.5 513.73,-611.5 513.73,-580.9 513.73,-580.9 513.73,-574.9 519.73,-568.9 525.73,-568.9 525.73,-568.9 618.27,-568.9 618.27,-568.9 624.27,-568.9 630.27,-574.9 630.27,-580.9 630.27,-580.9 630.27,-611.5 630.27,-611.5 630.27,-617.5 624.27,-623.5 618.27,-623.5"/>
<text text-anchor="middle" x="572" y="-602.25" font-family="Inter, Helvetica, sans-serif" font-size="11.00" fill="#fafafa">FluxCD</text>
<text text-anchor="middle" x="572" y="-585.75" font-family="Inter, Helvetica, sans-serif" font-size="11.00" fill="#fafafa">K8s Reconciliation</text>
</g>
<!-- storage -->
<g id="node14" class="node">
<title>storage</title>
<path fill="#18181b" stroke="#ef4444" stroke-width="1.5" d="M527.65,-201.7C527.65,-201.7 398.35,-201.7 398.35,-201.7 392.35,-201.7 386.35,-195.7 386.35,-189.7 386.35,-189.7 386.35,-159.1 386.35,-159.1 386.35,-153.1 392.35,-147.1 398.35,-147.1 398.35,-147.1 527.65,-147.1 527.65,-147.1 533.65,-147.1 539.65,-153.1 539.65,-159.1 539.65,-159.1 539.65,-189.7 539.65,-189.7 539.65,-195.7 533.65,-201.7 527.65,-201.7"/>
<text text-anchor="middle" x="463" y="-180.45" font-family="Inter, Helvetica, sans-serif" font-size="11.00" fill="#fafafa">Data &amp; Storage &amp; Backup</text>
<text text-anchor="middle" x="463" y="-163.95" font-family="Inter, Helvetica, sans-serif" font-size="11.00" fill="#fafafa">CloudNativePG, Velero</text>
</g>
<!-- flux&#45;&gt;storage -->
<g id="edge4" class="edge">
<title>flux&#45;&gt;storage</title>
<path fill="none" stroke="#a1a1aa" stroke-width="1.2" stroke-dasharray="5,2" d="M576.17,-568.49C576.17,-493.64 576.17,-293 576.17,-293 576.17,-293 504,-293 504,-293 504,-293 504,-273.25 504,-253.22"/>
<polygon fill="#a1a1aa" stroke="#a1a1aa" stroke-width="1.2" points="506.8,-253.26 504,-245.26 501.2,-253.26 506.8,-253.26"/>
<text text-anchor="middle" x="549.17" y="-380.26" font-family="Inter, Helvetica, sans-serif" font-size="10.00" fill="#a1a1aa"> Reconciles </text>
</g>
<!-- azure_kv -->
<g id="node5" class="node">
<title>azure_kv</title>
<path fill="#18181b" stroke="#0ea5e9" stroke-width="1.5" d="M804.65,-334.05C804.65,-334.05 723.35,-334.05 723.35,-334.05 717.35,-334.05 711.35,-328.05 711.35,-322.05 711.35,-322.05 711.35,-307.95 711.35,-307.95 711.35,-301.95 717.35,-295.95 723.35,-295.95 723.35,-295.95 804.65,-295.95 804.65,-295.95 810.65,-295.95 816.65,-301.95 816.65,-307.95 816.65,-307.95 816.65,-322.05 816.65,-322.05 816.65,-328.05 810.65,-334.05 804.65,-334.05"/>
<text text-anchor="middle" x="764" y="-312.8" font-family="Inter, Helvetica, sans-serif" font-size="11.00" fill="#fafafa">Azure Key Vault</text>
</g>
<!-- platform -->
<g id="node15" class="node">
<title>platform</title>
<path fill="#18181b" stroke="#ef4444" stroke-width="1.5" d="M819.65,-201.7C819.65,-201.7 708.35,-201.7 708.35,-201.7 702.35,-201.7 696.35,-195.7 696.35,-189.7 696.35,-189.7 696.35,-159.1 696.35,-159.1 696.35,-153.1 702.35,-147.1 708.35,-147.1 708.35,-147.1 819.65,-147.1 819.65,-147.1 825.65,-147.1 831.65,-153.1 831.65,-159.1 831.65,-159.1 831.65,-189.7 831.65,-189.7 831.65,-195.7 825.65,-201.7 819.65,-201.7"/>
<text text-anchor="middle" x="764" y="-180.45" font-family="Inter, Helvetica, sans-serif" font-size="11.00" fill="#fafafa">Core Services</text>
<text text-anchor="middle" x="764" y="-163.95" font-family="Inter, Helvetica, sans-serif" font-size="11.00" fill="#fafafa">Cert&#45;Manager, Harbor</text>
</g>
<!-- azure_kv&#45;&gt;platform -->
<g id="edge5" class="edge">
<title>azure_kv&#45;&gt;platform</title>
<path fill="none" stroke="#0ea5e9" stroke-width="1.2" stroke-dasharray="5,2" d="M746.45,-295.45C746.45,-295.45 746.45,-211.82 746.45,-211.82"/>
<polygon fill="#0ea5e9" stroke="#0ea5e9" stroke-width="1.2" points="749.25,-211.82 746.45,-203.82 743.65,-211.82 749.25,-211.82"/>
<text text-anchor="middle" x="726.58" y="-259.13" font-family="Inter, Helvetica, sans-serif" font-size="10.00" fill="#a1a1aa"> Secrets </text>
</g>
<!-- azure_kv&#45;&gt;platform -->
<g id="edge15" class="edge">
<title>azure_kv&#45;&gt;platform</title>
<path fill="none" stroke="#52525b" stroke-width="1.2" d="M781.55,-295.45C781.55,-295.45 781.55,-211.82 781.55,-211.82"/>
<polygon fill="#52525b" stroke="#52525b" stroke-width="1.2" points="784.35,-211.82 781.55,-203.82 778.75,-211.82 784.35,-211.82"/>
</g>
<!-- cloudflare -->
<g id="node6" class="node">
<title>cloudflare</title>
<path fill="#18181b" stroke="#0ea5e9" stroke-width="1.5" d="M670.02,-342.3C670.02,-342.3 599.98,-342.3 599.98,-342.3 593.98,-342.3 587.98,-336.3 587.98,-330.3 587.98,-330.3 587.98,-299.7 587.98,-299.7 587.98,-293.7 593.98,-287.7 599.98,-287.7 599.98,-287.7 670.02,-287.7 670.02,-287.7 676.02,-287.7 682.02,-293.7 682.02,-299.7 682.02,-299.7 682.02,-330.3 682.02,-330.3 682.02,-336.3 676.02,-342.3 670.02,-342.3"/>
<text text-anchor="middle" x="635" y="-321.05" font-family="Inter, Helvetica, sans-serif" font-size="11.00" fill="#fafafa">Cloudflare</text>
<text text-anchor="middle" x="635" y="-304.55" font-family="Inter, Helvetica, sans-serif" font-size="11.00" fill="#fafafa">DNS &amp; Proxy</text>
</g>
<!-- ingress -->
<g id="node16" class="node">
<title>ingress</title>
<path fill="#18181b" stroke="#ef4444" stroke-width="1.5" d="M655.65,-201.7C655.65,-201.7 580.35,-201.7 580.35,-201.7 574.35,-201.7 568.35,-195.7 568.35,-189.7 568.35,-189.7 568.35,-159.1 568.35,-159.1 568.35,-153.1 574.35,-147.1 580.35,-147.1 580.35,-147.1 655.65,-147.1 655.65,-147.1 661.65,-147.1 667.65,-153.1 667.65,-159.1 667.65,-159.1 667.65,-189.7 667.65,-189.7 667.65,-195.7 661.65,-201.7 655.65,-201.7"/>
<text text-anchor="middle" x="618" y="-180.45" font-family="Inter, Helvetica, sans-serif" font-size="11.00" fill="#fafafa">Traefik Ingress</text>
<text text-anchor="middle" x="618" y="-163.95" font-family="Inter, Helvetica, sans-serif" font-size="11.00" fill="#fafafa">Controller</text>
</g>
<!-- cloudflare&#45;&gt;ingress -->
<g id="edge8" class="edge">
<title>cloudflare&#45;&gt;ingress</title>
<path fill="none" stroke="#3b82f6" stroke-width="2" d="M627.81,-287.22C627.81,-287.22 627.81,-213.15 627.81,-213.15"/>
<polygon fill="#3b82f6" stroke="#3b82f6" stroke-width="2" points="630.61,-213.15 627.81,-205.15 625.01,-213.15 630.61,-213.15"/>
<text text-anchor="middle" x="594.81" y="-255.68" font-family="Inter, Helvetica, sans-serif" font-size="10.00" fill="#a1a1aa"> Routes Traffic </text>
</g>
<!-- public -->
<g id="node7" class="node">
<title>public</title>
<path fill="#18181b" stroke="#3b82f6" stroke-width="1.5" d="M645.02,-474.65C645.02,-474.65 610.98,-474.65 610.98,-474.65 604.98,-474.65 598.98,-468.65 598.98,-462.65 598.98,-462.65 598.98,-448.55 598.98,-448.55 598.98,-442.55 604.98,-436.55 610.98,-436.55 610.98,-436.55 645.02,-436.55 645.02,-436.55 651.02,-436.55 657.02,-442.55 657.02,-448.55 657.02,-448.55 657.02,-462.65 657.02,-462.65 657.02,-468.65 651.02,-474.65 645.02,-474.65"/>
<text text-anchor="middle" x="628" y="-453.4" font-family="Inter, Helvetica, sans-serif" font-size="11.00" fill="#fafafa">Public</text>
</g>
<!-- public&#45;&gt;cloudflare -->
<g id="edge7" class="edge">
<title>public&#45;&gt;cloudflare</title>
<path fill="none" stroke="#3b82f6" stroke-width="2" d="M628,-436.05C628,-436.05 628,-353.63 628,-353.63"/>
<polygon fill="#3b82f6" stroke="#3b82f6" stroke-width="2" points="630.8,-353.63 628,-345.63 625.2,-353.63 630.8,-353.63"/>
<text text-anchor="middle" x="595" y="-400.34" font-family="Inter, Helvetica, sans-serif" font-size="10.00" fill="#a1a1aa"> Routes Traffic </text>
</g>
<!-- private -->
<g id="node8" class="node">
<title>private</title>
<path fill="#18181b" stroke="#3b82f6" stroke-width="1.5" d="M558.27,-474.65C558.27,-474.65 519.73,-474.65 519.73,-474.65 513.73,-474.65 507.73,-468.65 507.73,-462.65 507.73,-462.65 507.73,-448.55 507.73,-448.55 507.73,-442.55 513.73,-436.55 519.73,-436.55 519.73,-436.55 558.27,-436.55 558.27,-436.55 564.27,-436.55 570.27,-442.55 570.27,-448.55 570.27,-448.55 570.27,-462.65 570.27,-462.65 570.27,-468.65 564.27,-474.65 558.27,-474.65"/>
<text text-anchor="middle" x="539" y="-453.4" font-family="Inter, Helvetica, sans-serif" font-size="11.00" fill="#fafafa">Private</text>
</g>
<!-- pihole -->
<g id="node12" class="node">
<title>pihole</title>
<path fill="#18181b" stroke="#ef4444" stroke-width="1.5" d="M311.27,-334.05C311.27,-334.05 218.72,-334.05 218.72,-334.05 212.72,-334.05 206.72,-328.05 206.72,-322.05 206.72,-322.05 206.72,-307.95 206.72,-307.95 206.72,-301.95 212.72,-295.95 218.72,-295.95 218.72,-295.95 311.27,-295.95 311.27,-295.95 317.27,-295.95 323.27,-301.95 323.27,-307.95 323.27,-307.95 323.27,-322.05 323.27,-322.05 323.27,-328.05 317.27,-334.05 311.27,-334.05"/>
<text text-anchor="middle" x="265" y="-312.8" font-family="Inter, Helvetica, sans-serif" font-size="11.00" fill="#fafafa">Pi&#45;hole &amp; Tailscale</text>
</g>
<!-- private&#45;&gt;pihole -->
<g id="edge9" class="edge">
<title>private&#45;&gt;pihole</title>
<path fill="none" stroke="#3b82f6" stroke-width="2" d="M528.69,-436.31C528.69,-415.4 528.69,-385 528.69,-385 528.69,-385 301.01,-385 301.01,-385 301.01,-385 301.01,-345.53 301.01,-345.53"/>
<polygon fill="#3b82f6" stroke="#3b82f6" stroke-width="2" points="303.81,-345.53 301.01,-337.53 298.21,-345.53 303.81,-345.53"/>
<text text-anchor="middle" x="387.77" y="-390.5" font-family="Inter, Helvetica, sans-serif" font-size="10.00" fill="#a1a1aa"> Routes Traffic </text>
</g>
<!-- proxmox&#45;&gt;pihole -->
<g id="edge3" class="edge">
<title>proxmox&#45;&gt;pihole</title>
<path fill="none" stroke="#a1a1aa" stroke-width="1.2" stroke-dasharray="5,2" d="M278.74,-427.82C278.74,-427.82 278.74,-343.97 278.74,-343.97"/>
<polygon fill="#a1a1aa" stroke="#a1a1aa" stroke-width="1.2" points="281.54,-343.97 278.74,-335.97 275.94,-343.97 281.54,-343.97"/>
<text text-anchor="middle" x="262.62" y="-391.4" font-family="Inter, Helvetica, sans-serif" font-size="10.00" fill="#a1a1aa"> Hosts </text>
</g>
<!-- syn_nas&#45;&gt;storage -->
<g id="edge6" class="edge">
<title>syn_nas&#45;&gt;storage</title>
<path fill="none" stroke="#0ea5e9" stroke-width="1.2" stroke-dasharray="5,2" d="M194.69,-427.83C194.69,-356.79 194.69,-174 194.69,-174 194.69,-174 318.07,-174 361.44,-174"/>
<polygon fill="#0ea5e9" stroke="#0ea5e9" stroke-width="1.2" points="361.19,-176.8 369.19,-174 361.19,-171.2 361.19,-176.8"/>
<text text-anchor="middle" x="175.56" y="-223.04" font-family="Inter, Helvetica, sans-serif" font-size="10.00" fill="#a1a1aa"> Mounts </text>
</g>
<!-- docs -->
<g id="node20" class="node">
<title>docs</title>
<path fill="#18181b" stroke="#ef4444" stroke-width="1.5" d="M170.65,-61.1C170.65,-61.1 35.35,-61.1 35.35,-61.1 29.35,-61.1 23.35,-55.1 23.35,-49.1 23.35,-49.1 23.35,-35 23.35,-35 23.35,-29 29.35,-23 35.35,-23 35.35,-23 170.65,-23 170.65,-23 176.65,-23 182.65,-29 182.65,-35 182.65,-35 182.65,-49.1 182.65,-49.1 182.65,-55.1 176.65,-61.1 170.65,-61.1"/>
<text text-anchor="middle" x="103" y="-39.85" font-family="Inter, Helvetica, sans-serif" font-size="11.00" fill="#fafafa">Docs: Paperless, Karakeep</text>
</g>
<!-- syn_nas&#45;&gt;docs -->
<g id="edge14" class="edge">
<title>syn_nas&#45;&gt;docs</title>
<path fill="none" stroke="#52525b" stroke-width="1.2" d="M139.44,-427.82C139.44,-427.82 139.44,-70.98 139.44,-70.98"/>
<polygon fill="#52525b" stroke="#52525b" stroke-width="1.2" points="142.24,-70.98 139.44,-62.98 136.64,-70.98 142.24,-70.98"/>
</g>
<!-- haproxy -->
<g id="node11" class="node">
<title>haproxy</title>
<path fill="#18181b" stroke="#ef4444" stroke-width="1.5" d="M427.27,-334.05C427.27,-334.05 364.73,-334.05 364.73,-334.05 358.73,-334.05 352.73,-328.05 352.73,-322.05 352.73,-322.05 352.73,-307.95 352.73,-307.95 352.73,-301.95 358.73,-295.95 364.73,-295.95 364.73,-295.95 427.27,-295.95 427.27,-295.95 433.27,-295.95 439.27,-301.95 439.27,-307.95 439.27,-307.95 439.27,-322.05 439.27,-322.05 439.27,-328.05 433.27,-334.05 427.27,-334.05"/>
<text text-anchor="middle" x="396" y="-312.8" font-family="Inter, Helvetica, sans-serif" font-size="11.00" fill="#fafafa">HAProxy x3</text>
</g>
<!-- haproxy&#45;&gt;ingress -->
<g id="edge11" class="edge">
<title>haproxy&#45;&gt;ingress</title>
<path fill="none" stroke="#3b82f6" stroke-width="2" d="M412.81,-295.8C412.81,-292.44 412.81,-290 412.81,-290 412.81,-290 582.08,-290 582.08,-290 582.08,-290 582.08,-213.12 582.08,-213.12"/>
<polygon fill="#3b82f6" stroke="#3b82f6" stroke-width="2" points="584.88,-213.12 582.08,-205.12 579.28,-213.12 584.88,-213.12"/>
<text text-anchor="middle" x="499.99" y="-280.5" font-family="Inter, Helvetica, sans-serif" font-size="10.00" fill="#a1a1aa"> Routes Traffic </text>
</g>
<!-- pihole&#45;&gt;haproxy -->
<g id="edge10" class="edge">
<title>pihole&#45;&gt;haproxy</title>
<path fill="none" stroke="#3b82f6" stroke-width="2" d="M323.6,-315C323.6,-315 341.35,-315 341.35,-315"/>
<polygon fill="#3b82f6" stroke="#3b82f6" stroke-width="2" points="341.35,-317.8 349.35,-315 341.35,-312.2 341.35,-317.8"/>
<text text-anchor="middle" x="315.98" y="-305.5" font-family="Inter, Helvetica, sans-serif" font-size="10.00" fill="#a1a1aa"> Routes Traffic </text>
</g>
<!-- dev -->
<g id="node22" class="node">
<title>dev</title>
<path fill="#18181b" stroke="#ef4444" stroke-width="1.5" d="M457.15,-61.1C457.15,-61.1 372.85,-61.1 372.85,-61.1 366.85,-61.1 360.85,-55.1 360.85,-49.1 360.85,-49.1 360.85,-35 360.85,-35 360.85,-29 366.85,-23 372.85,-23 372.85,-23 457.15,-23 457.15,-23 463.15,-23 469.15,-29 469.15,-35 469.15,-35 469.15,-49.1 469.15,-49.1 469.15,-55.1 463.15,-61.1 457.15,-61.1"/>
<text text-anchor="middle" x="415" y="-39.85" font-family="Inter, Helvetica, sans-serif" font-size="11.00" fill="#fafafa">Dev: n8n, Coder</text>
</g>
<!-- platform&#45;&gt;dev -->
<g id="edge16" class="edge">
<title>platform&#45;&gt;dev</title>
<path fill="none" stroke="#52525b" stroke-width="1.2" d="M759.62,-146.98C759.62,-127.21 759.62,-104 759.62,-104 759.62,-104 427.75,-104 427.75,-104 427.75,-104 427.75,-71.13 427.75,-71.13"/>
<polygon fill="#52525b" stroke="#52525b" stroke-width="1.2" points="430.55,-71.13 427.75,-63.13 424.95,-71.13 430.55,-71.13"/>
</g>
<!-- ai_apps -->
<g id="node18" class="node">
<title>ai_apps</title>
<path fill="#18181b" stroke="#ef4444" stroke-width="1.5" d="M810.9,-61.1C810.9,-61.1 683.1,-61.1 683.1,-61.1 677.1,-61.1 671.1,-55.1 671.1,-49.1 671.1,-49.1 671.1,-35 671.1,-35 671.1,-29 677.1,-23 683.1,-23 683.1,-23 810.9,-23 810.9,-23 816.9,-23 822.9,-29 822.9,-35 822.9,-35 822.9,-49.1 822.9,-49.1 822.9,-55.1 816.9,-61.1 810.9,-61.1"/>
<text text-anchor="middle" x="747" y="-39.85" font-family="Inter, Helvetica, sans-serif" font-size="11.00" fill="#fafafa">AI: LiteLLM, Open WebUI</text>
</g>
<!-- ingress&#45;&gt;ai_apps -->
<g id="edge12" class="edge">
<title>ingress&#45;&gt;ai_apps</title>
<path fill="none" stroke="#f59e0b" stroke-width="2" d="M667.92,-174C673.13,-174 676.56,-174 676.56,-174 676.56,-174 676.56,-141.85 676.56,-113.74"/>
<polygon fill="#f59e0b" stroke="#f59e0b" stroke-width="2" points="679.36,-113.88 676.56,-105.88 673.76,-113.88 679.36,-113.88"/>
<text text-anchor="middle" x="660.06" y="-138.69" font-family="Inter, Helvetica, sans-serif" font-size="10.00" fill="#a1a1aa"> Routes Traffic </text>
</g>
<!-- obs -->
<g id="node17" class="node">
<title>obs</title>
<path fill="#18181b" stroke="#ef4444" stroke-width="1.5" d="M1006.9,-201.7C1006.9,-201.7 873.1,-201.7 873.1,-201.7 867.1,-201.7 861.1,-195.7 861.1,-189.7 861.1,-189.7 861.1,-159.1 861.1,-159.1 861.1,-153.1 867.1,-147.1 873.1,-147.1 873.1,-147.1 1006.9,-147.1 1006.9,-147.1 1012.9,-147.1 1018.9,-153.1 1018.9,-159.1 1018.9,-159.1 1018.9,-189.7 1018.9,-189.7 1018.9,-195.7 1012.9,-201.7 1006.9,-201.7"/>
<text text-anchor="middle" x="940" y="-180.45" font-family="Inter, Helvetica, sans-serif" font-size="11.00" fill="#fafafa">Observability</text>
<text text-anchor="middle" x="940" y="-163.95" font-family="Inter, Helvetica, sans-serif" font-size="11.00" fill="#fafafa">Prometheus, Grafana, Loki</text>
</g>
<!-- media -->
<g id="node19" class="node">
<title>media</title>
<path fill="#18181b" stroke="#ef4444" stroke-width="1.5" d="M320.15,-61.1C320.15,-61.1 223.85,-61.1 223.85,-61.1 217.85,-61.1 211.85,-55.1 211.85,-49.1 211.85,-49.1 211.85,-35 211.85,-35 211.85,-29 217.85,-23 223.85,-23 223.85,-23 320.15,-23 320.15,-23 326.15,-23 332.15,-29 332.15,-35 332.15,-35 332.15,-49.1 332.15,-49.1 332.15,-55.1 326.15,-61.1 320.15,-61.1"/>
<text text-anchor="middle" x="272" y="-39.85" font-family="Inter, Helvetica, sans-serif" font-size="11.00" fill="#fafafa">Media: Jellyfin, *arr</text>
</g>
<!-- utility -->
<g id="node21" class="node">
<title>utility</title>
<path fill="#18181b" stroke="#ef4444" stroke-width="1.5" d="M630.15,-61.1C630.15,-61.1 509.85,-61.1 509.85,-61.1 503.85,-61.1 497.85,-55.1 497.85,-49.1 497.85,-49.1 497.85,-35 497.85,-35 497.85,-29 503.85,-23 509.85,-23 509.85,-23 630.15,-23 630.15,-23 636.15,-23 642.15,-29 642.15,-35 642.15,-35 642.15,-49.1 642.15,-49.1 642.15,-55.1 636.15,-61.1 630.15,-61.1"/>
<text text-anchor="middle" x="570" y="-39.85" font-family="Inter, Helvetica, sans-serif" font-size="11.00" fill="#fafafa">Util: Homepage, Budget</text>
</g>
<!-- home -->
<g id="node23" class="node">
<title>home</title>
<path fill="#18181b" stroke="#ef4444" stroke-width="1.5" d="M970.4,-61.1C970.4,-61.1 863.6,-61.1 863.6,-61.1 857.6,-61.1 851.6,-55.1 851.6,-49.1 851.6,-49.1 851.6,-35 851.6,-35 851.6,-29 857.6,-23 863.6,-23 863.6,-23 970.4,-23 970.4,-23 976.4,-23 982.4,-29 982.4,-35 982.4,-35 982.4,-49.1 982.4,-49.1 982.4,-55.1 976.4,-61.1 970.4,-61.1"/>
<text text-anchor="middle" x="917" y="-39.85" font-family="Inter, Helvetica, sans-serif" font-size="11.00" fill="#fafafa">Home: Assistant, MC</text>
</g>
</g>
</svg>
